G04 #@! TF.GenerationSoftware,KiCad,Pcbnew,(5.1.8)-1*
G04 #@! TF.CreationDate,2020-12-21T10:11:38+01:00*
G04 #@! TF.ProjectId,Penguino-STM32WL-LoRa-E5,50656e67-7569-46e6-9f2d-53544d333257,0.1*
G04 #@! TF.SameCoordinates,PX8198450PY59a5380*
G04 #@! TF.FileFunction,Legend,Bot*
G04 #@! TF.FilePolarity,Positive*
%FSLAX46Y46*%
G04 Gerber Fmt 4.6, Leading zero omitted, Abs format (unit mm)*
G04 Created by KiCad (PCBNEW (5.1.8)-1) date 2020-12-21 10:11:38*
%MOMM*%
%LPD*%
G01*
G04 APERTURE LIST*
%ADD10C,0.200000*%
%ADD11C,0.150000*%
%ADD12C,0.187500*%
%ADD13C,0.175000*%
%ADD14C,0.287500*%
G04 #@! TA.AperFunction,Profile*
%ADD15C,0.150000*%
G04 #@! TD*
%ADD16C,0.010000*%
%ADD17C,0.120000*%
%ADD18C,0.170000*%
G04 APERTURE END LIST*
D10*
X1628571Y-17815714D02*
X1390476Y-18482380D01*
X1152380Y-17815714D01*
X580952Y-17482380D02*
X485714Y-17482380D01*
X390476Y-17530000D01*
X342857Y-17577619D01*
X295238Y-17672857D01*
X247619Y-17863333D01*
X247619Y-18101428D01*
X295238Y-18291904D01*
X342857Y-18387142D01*
X390476Y-18434761D01*
X485714Y-18482380D01*
X580952Y-18482380D01*
X676190Y-18434761D01*
X723809Y-18387142D01*
X771428Y-18291904D01*
X819047Y-18101428D01*
X819047Y-17863333D01*
X771428Y-17672857D01*
X723809Y-17577619D01*
X676190Y-17530000D01*
X580952Y-17482380D01*
X-180953Y-18387142D02*
X-228572Y-18434761D01*
X-180953Y-18482380D01*
X-133334Y-18434761D01*
X-180953Y-18387142D01*
X-180953Y-18482380D01*
X-1180953Y-18482380D02*
X-609524Y-18482380D01*
X-895239Y-18482380D02*
X-895239Y-17482380D01*
X-800000Y-17625238D01*
X-704762Y-17720476D01*
X-609524Y-17768095D01*
D11*
X8517142Y13638096D02*
X8517142Y14438096D01*
X8174285Y13638096D02*
X8174285Y14057143D01*
X8212380Y14133334D01*
X8288571Y14171429D01*
X8402857Y14171429D01*
X8479047Y14133334D01*
X8517142Y14095239D01*
X7907619Y14171429D02*
X7602857Y14171429D01*
X7793333Y14438096D02*
X7793333Y13752381D01*
X7755238Y13676191D01*
X7679047Y13638096D01*
X7602857Y13638096D01*
X7450476Y14171429D02*
X7145714Y14171429D01*
X7336190Y14438096D02*
X7336190Y13752381D01*
X7298095Y13676191D01*
X7221904Y13638096D01*
X7145714Y13638096D01*
X6879047Y14171429D02*
X6879047Y13371429D01*
X6879047Y14133334D02*
X6802857Y14171429D01*
X6650476Y14171429D01*
X6574285Y14133334D01*
X6536190Y14095239D01*
X6498095Y14019048D01*
X6498095Y13790477D01*
X6536190Y13714286D01*
X6574285Y13676191D01*
X6650476Y13638096D01*
X6802857Y13638096D01*
X6879047Y13676191D01*
X6193333Y13676191D02*
X6117142Y13638096D01*
X5964761Y13638096D01*
X5888571Y13676191D01*
X5850476Y13752381D01*
X5850476Y13790477D01*
X5888571Y13866667D01*
X5964761Y13904762D01*
X6079047Y13904762D01*
X6155238Y13942858D01*
X6193333Y14019048D01*
X6193333Y14057143D01*
X6155238Y14133334D01*
X6079047Y14171429D01*
X5964761Y14171429D01*
X5888571Y14133334D01*
X5507619Y13714286D02*
X5469523Y13676191D01*
X5507619Y13638096D01*
X5545714Y13676191D01*
X5507619Y13714286D01*
X5507619Y13638096D01*
X5507619Y14133334D02*
X5469523Y14095239D01*
X5507619Y14057143D01*
X5545714Y14095239D01*
X5507619Y14133334D01*
X5507619Y14057143D01*
X4555238Y14476191D02*
X5240952Y13447620D01*
X3717142Y14476191D02*
X4402857Y13447620D01*
X3450476Y13638096D02*
X3450476Y14171429D01*
X3450476Y14095239D02*
X3412380Y14133334D01*
X3336190Y14171429D01*
X3221904Y14171429D01*
X3145714Y14133334D01*
X3107619Y14057143D01*
X3107619Y13638096D01*
X3107619Y14057143D02*
X3069523Y14133334D01*
X2993333Y14171429D01*
X2879047Y14171429D01*
X2802857Y14133334D01*
X2764761Y14057143D01*
X2764761Y13638096D01*
X2040952Y13638096D02*
X2040952Y14057143D01*
X2079047Y14133334D01*
X2155238Y14171429D01*
X2307619Y14171429D01*
X2383809Y14133334D01*
X2040952Y13676191D02*
X2117142Y13638096D01*
X2307619Y13638096D01*
X2383809Y13676191D01*
X2421904Y13752381D01*
X2421904Y13828572D01*
X2383809Y13904762D01*
X2307619Y13942858D01*
X2117142Y13942858D01*
X2040952Y13980953D01*
X1660000Y13638096D02*
X1660000Y14438096D01*
X1583809Y13942858D02*
X1355238Y13638096D01*
X1355238Y14171429D02*
X1660000Y13866667D01*
X707619Y13676191D02*
X783809Y13638096D01*
X936190Y13638096D01*
X1012380Y13676191D01*
X1050476Y13752381D01*
X1050476Y14057143D01*
X1012380Y14133334D01*
X936190Y14171429D01*
X783809Y14171429D01*
X707619Y14133334D01*
X669523Y14057143D01*
X669523Y13980953D01*
X1050476Y13904762D01*
X326666Y13638096D02*
X326666Y14171429D01*
X326666Y14019048D02*
X288571Y14095239D01*
X250476Y14133334D01*
X174285Y14171429D01*
X98095Y14171429D01*
X-54286Y14171429D02*
X-359048Y14171429D01*
X-168572Y14438096D02*
X-168572Y13752381D01*
X-206667Y13676191D01*
X-282858Y13638096D01*
X-359048Y13638096D01*
X-625715Y13638096D02*
X-625715Y14171429D01*
X-625715Y14019048D02*
X-663810Y14095239D01*
X-701905Y14133334D01*
X-778096Y14171429D01*
X-854286Y14171429D01*
X-1235239Y13638096D02*
X-1159048Y13676191D01*
X-1120953Y13714286D01*
X-1082858Y13790477D01*
X-1082858Y14019048D01*
X-1120953Y14095239D01*
X-1159048Y14133334D01*
X-1235239Y14171429D01*
X-1349524Y14171429D01*
X-1425715Y14133334D01*
X-1463810Y14095239D01*
X-1501905Y14019048D01*
X-1501905Y13790477D01*
X-1463810Y13714286D01*
X-1425715Y13676191D01*
X-1349524Y13638096D01*
X-1235239Y13638096D01*
X-1844762Y14171429D02*
X-1844762Y13638096D01*
X-1844762Y14095239D02*
X-1882858Y14133334D01*
X-1959048Y14171429D01*
X-2073334Y14171429D01*
X-2149524Y14133334D01*
X-2187620Y14057143D01*
X-2187620Y13638096D01*
X-2568572Y13638096D02*
X-2568572Y14171429D01*
X-2568572Y14438096D02*
X-2530477Y14400000D01*
X-2568572Y14361905D01*
X-2606667Y14400000D01*
X-2568572Y14438096D01*
X-2568572Y14361905D01*
X-2949524Y13638096D02*
X-2949524Y14438096D01*
X-3025715Y13942858D02*
X-3254286Y13638096D01*
X-3254286Y14171429D02*
X-2949524Y13866667D01*
X-3940000Y13638096D02*
X-3940000Y14057143D01*
X-3901905Y14133334D01*
X-3825715Y14171429D01*
X-3673334Y14171429D01*
X-3597143Y14133334D01*
X-3940000Y13676191D02*
X-3863810Y13638096D01*
X-3673334Y13638096D01*
X-3597143Y13676191D01*
X-3559048Y13752381D01*
X-3559048Y13828572D01*
X-3597143Y13904762D01*
X-3673334Y13942858D01*
X-3863810Y13942858D01*
X-3940000Y13980953D01*
X-4320953Y13714286D02*
X-4359048Y13676191D01*
X-4320953Y13638096D01*
X-4282858Y13676191D01*
X-4320953Y13714286D01*
X-4320953Y13638096D01*
X-5044762Y13676191D02*
X-4968572Y13638096D01*
X-4816191Y13638096D01*
X-4740000Y13676191D01*
X-4701905Y13714286D01*
X-4663810Y13790477D01*
X-4663810Y14019048D01*
X-4701905Y14095239D01*
X-4740000Y14133334D01*
X-4816191Y14171429D01*
X-4968572Y14171429D01*
X-5044762Y14133334D01*
X-5501905Y13638096D02*
X-5425715Y13676191D01*
X-5387620Y13714286D01*
X-5349524Y13790477D01*
X-5349524Y14019048D01*
X-5387620Y14095239D01*
X-5425715Y14133334D01*
X-5501905Y14171429D01*
X-5616191Y14171429D01*
X-5692381Y14133334D01*
X-5730477Y14095239D01*
X-5768572Y14019048D01*
X-5768572Y13790477D01*
X-5730477Y13714286D01*
X-5692381Y13676191D01*
X-5616191Y13638096D01*
X-5501905Y13638096D01*
X-6111429Y13638096D02*
X-6111429Y14171429D01*
X-6111429Y14095239D02*
X-6149524Y14133334D01*
X-6225715Y14171429D01*
X-6340000Y14171429D01*
X-6416191Y14133334D01*
X-6454286Y14057143D01*
X-6454286Y13638096D01*
X-6454286Y14057143D02*
X-6492381Y14133334D01*
X-6568572Y14171429D01*
X-6682858Y14171429D01*
X-6759048Y14133334D01*
X-6797143Y14057143D01*
X-6797143Y13638096D01*
D12*
X-8228096Y19778330D02*
X-8609048Y20030711D01*
X-8228096Y20292616D02*
X-9028096Y20192616D01*
X-9028096Y19849759D01*
X-8990000Y19768806D01*
X-8951905Y19730711D01*
X-8875715Y19697378D01*
X-8761429Y19711663D01*
X-8685239Y19764044D01*
X-8647143Y19811663D01*
X-8609048Y19902140D01*
X-8609048Y20244997D01*
X-8266191Y19430711D02*
X-8228096Y19306902D01*
X-8228096Y19092616D01*
X-8266191Y19002140D01*
X-8304286Y18954521D01*
X-8380477Y18902140D01*
X-8456667Y18892616D01*
X-8532858Y18925949D01*
X-8570953Y18964044D01*
X-8609048Y19044997D01*
X-8647143Y19211663D01*
X-8685239Y19292616D01*
X-8723334Y19330711D01*
X-8799524Y19364044D01*
X-8875715Y19354521D01*
X-8951905Y19302140D01*
X-8990000Y19254521D01*
X-9028096Y19164044D01*
X-9028096Y18949759D01*
X-8990000Y18825949D01*
X-9028096Y18564044D02*
X-9028096Y18049759D01*
X-8228096Y18406902D02*
X-9028096Y18306902D01*
D13*
X5876666Y2416154D02*
X5176666Y2328654D01*
X5176666Y2023892D01*
X5210000Y1951868D01*
X5243333Y1917939D01*
X5310000Y1888178D01*
X5410000Y1900678D01*
X5476666Y1947106D01*
X5510000Y1989368D01*
X5543333Y2069725D01*
X5543333Y2374487D01*
X5510000Y1303654D02*
X5543333Y1193535D01*
X5576666Y1159606D01*
X5643333Y1129844D01*
X5743333Y1142344D01*
X5810000Y1188773D01*
X5843333Y1231035D01*
X5876666Y1311392D01*
X5876666Y1616154D01*
X5176666Y1528654D01*
X5176666Y1261987D01*
X5210000Y1189963D01*
X5243333Y1156035D01*
X5310000Y1126273D01*
X5376666Y1134606D01*
X5443333Y1181035D01*
X5476666Y1223297D01*
X5510000Y1303654D01*
X5510000Y1570320D01*
X5176666Y385797D02*
X5176666Y538178D01*
X5210000Y618535D01*
X5243333Y660797D01*
X5343333Y749487D01*
X5476666Y804249D01*
X5743333Y837582D01*
X5810000Y807820D01*
X5843333Y773892D01*
X5876666Y701868D01*
X5876666Y549487D01*
X5843333Y469130D01*
X5810000Y426868D01*
X5743333Y380439D01*
X5576666Y359606D01*
X5510000Y389368D01*
X5476666Y423297D01*
X5443333Y495320D01*
X5443333Y647701D01*
X5476666Y728059D01*
X5510000Y770320D01*
X5576666Y816749D01*
D10*
X4841904Y21842858D02*
X4841904Y22742858D01*
X4841904Y22400000D02*
X4746666Y22442858D01*
X4556190Y22442858D01*
X4460952Y22400000D01*
X4413333Y22357143D01*
X4365714Y22271429D01*
X4365714Y22014286D01*
X4413333Y21928572D01*
X4460952Y21885715D01*
X4556190Y21842858D01*
X4746666Y21842858D01*
X4841904Y21885715D01*
X4032380Y22442858D02*
X3794285Y21842858D01*
X3556190Y22442858D02*
X3794285Y21842858D01*
X3889523Y21628572D01*
X3937142Y21585715D01*
X4032380Y21542858D01*
X1984761Y21842858D02*
X1984761Y22314286D01*
X2032380Y22400000D01*
X2127619Y22442858D01*
X2318095Y22442858D01*
X2413333Y22400000D01*
X1984761Y21885715D02*
X2080000Y21842858D01*
X2318095Y21842858D01*
X2413333Y21885715D01*
X2460952Y21971429D01*
X2460952Y22057143D01*
X2413333Y22142858D01*
X2318095Y22185715D01*
X2080000Y22185715D01*
X1984761Y22228572D01*
X1603809Y22442858D02*
X1080000Y22442858D01*
X1603809Y21842858D01*
X1080000Y21842858D01*
X318095Y21885715D02*
X413333Y21842858D01*
X603809Y21842858D01*
X699047Y21885715D01*
X746666Y21971429D01*
X746666Y22314286D01*
X699047Y22400000D01*
X603809Y22442858D01*
X413333Y22442858D01*
X318095Y22400000D01*
X270476Y22314286D01*
X270476Y22228572D01*
X746666Y22142858D01*
X-158096Y21842858D02*
X-158096Y22442858D01*
X-158096Y22271429D02*
X-205715Y22357143D01*
X-253334Y22400000D01*
X-348572Y22442858D01*
X-443810Y22442858D01*
X-777143Y21842858D02*
X-777143Y22442858D01*
X-777143Y22742858D02*
X-729524Y22700000D01*
X-777143Y22657143D01*
X-824762Y22700000D01*
X-777143Y22742858D01*
X-777143Y22657143D01*
X-1253334Y21842858D02*
X-1253334Y22442858D01*
X-1253334Y22357143D02*
X-1300953Y22400000D01*
X-1396191Y22442858D01*
X-1539048Y22442858D01*
X-1634286Y22400000D01*
X-1681905Y22314286D01*
X-1681905Y21842858D01*
X-1681905Y22314286D02*
X-1729524Y22400000D01*
X-1824762Y22442858D01*
X-1967620Y22442858D01*
X-2062858Y22400000D01*
X-2110477Y22314286D01*
X-2110477Y21842858D01*
X-3015239Y21842858D02*
X-3015239Y22314286D01*
X-2967620Y22400000D01*
X-2872381Y22442858D01*
X-2681905Y22442858D01*
X-2586667Y22400000D01*
X-3015239Y21885715D02*
X-2920000Y21842858D01*
X-2681905Y21842858D01*
X-2586667Y21885715D01*
X-2539048Y21971429D01*
X-2539048Y22057143D01*
X-2586667Y22142858D01*
X-2681905Y22185715D01*
X-2920000Y22185715D01*
X-3015239Y22228572D01*
X-3491429Y21842858D02*
X-3491429Y22742858D01*
X-3586667Y22185715D02*
X-3872381Y21842858D01*
X-3872381Y22442858D02*
X-3491429Y22100000D01*
X-4681905Y21885715D02*
X-4586667Y21842858D01*
X-4396191Y21842858D01*
X-4300953Y21885715D01*
X-4253334Y21971429D01*
X-4253334Y22314286D01*
X-4300953Y22400000D01*
X-4396191Y22442858D01*
X-4586667Y22442858D01*
X-4681905Y22400000D01*
X-4729524Y22314286D01*
X-4729524Y22228572D01*
X-4253334Y22142858D01*
X-5158096Y21842858D02*
X-5158096Y22442858D01*
X-5158096Y22271429D02*
X-5205715Y22357143D01*
X-5253334Y22400000D01*
X-5348572Y22442858D01*
X-5443810Y22442858D01*
D12*
X-5806909Y16342858D02*
X-6492623Y16342858D01*
X-6111671Y16038096D02*
X-6187861Y16647620D01*
X-6897385Y16838096D02*
X-7454528Y16838096D01*
X-7116433Y16533334D01*
X-7245004Y16533334D01*
X-7325957Y16495239D01*
X-7364052Y16457143D01*
X-7397385Y16380953D01*
X-7373576Y16190477D01*
X-7321195Y16114286D01*
X-7273576Y16076191D01*
X-7183099Y16038096D01*
X-6925957Y16038096D01*
X-6845004Y16076191D01*
X-6806909Y16114286D01*
X-7711671Y16838096D02*
X-7911671Y16038096D01*
X-8311671Y16838096D01*
X-8525957Y16838096D02*
X-9083099Y16838096D01*
X-8745004Y16533334D01*
X-8873576Y16533334D01*
X-8954528Y16495239D01*
X-8992623Y16457143D01*
X-9025957Y16380953D01*
X-9002147Y16190477D01*
X-8949766Y16114286D01*
X-8902147Y16076191D01*
X-8811671Y16038096D01*
X-8554528Y16038096D01*
X-8473576Y16076191D01*
X-8435480Y16114286D01*
D13*
X9017796Y9293334D02*
X8838630Y8593334D01*
X8484463Y9293334D01*
X7992796Y8960000D02*
X7882677Y8926667D01*
X7848749Y8893334D01*
X7818987Y8826667D01*
X7831487Y8726667D01*
X7877915Y8660000D01*
X7920177Y8626667D01*
X8000534Y8593334D01*
X8305296Y8593334D01*
X8217796Y9293334D01*
X7951130Y9293334D01*
X7879106Y9260000D01*
X7845177Y9226667D01*
X7815415Y9160000D01*
X7823749Y9093334D01*
X7870177Y9026667D01*
X7912439Y8993334D01*
X7992796Y8960000D01*
X8259463Y8960000D01*
X7518392Y8793334D02*
X7137439Y8793334D01*
X7619582Y8593334D02*
X7265415Y9293334D01*
X7086249Y8593334D01*
X6846368Y9293334D02*
X6389225Y9293334D01*
X6705296Y8593334D02*
X6617796Y9293334D01*
D12*
X-7490242Y13507382D02*
X-7590242Y14307382D01*
X-8004528Y13507382D01*
X-8104528Y14307382D01*
X-8956909Y13583572D02*
X-8909290Y13545477D01*
X-8775956Y13507382D01*
X-8690242Y13507382D01*
X-8566433Y13545477D01*
X-8490242Y13621667D01*
X-8456909Y13697858D01*
X-8433099Y13850239D01*
X-8447385Y13964525D01*
X-8509290Y14116906D01*
X-8561671Y14193096D01*
X-8656909Y14269286D01*
X-8790242Y14307382D01*
X-8875956Y14307382D01*
X-8999766Y14269286D01*
X-9037861Y14231191D01*
X-7156909Y11738572D02*
X-7075956Y11776668D01*
X-6947385Y11776668D01*
X-6814052Y11738572D01*
X-6718814Y11662382D01*
X-6666433Y11586192D01*
X-6604528Y11433811D01*
X-6590242Y11319525D01*
X-6614052Y11167144D01*
X-6647385Y11090953D01*
X-6723576Y11014763D01*
X-6847385Y10976668D01*
X-6933099Y10976668D01*
X-7066433Y11014763D01*
X-7114052Y11052858D01*
X-7147385Y11319525D01*
X-6975956Y11319525D01*
X-7490242Y10976668D02*
X-7590242Y11776668D01*
X-8004528Y10976668D01*
X-8104528Y11776668D01*
X-8433099Y10976668D02*
X-8533099Y11776668D01*
X-8747385Y11776668D01*
X-8871195Y11738572D01*
X-8947385Y11662382D01*
X-8980718Y11586192D01*
X-9004528Y11433811D01*
X-8990242Y11319525D01*
X-8928337Y11167144D01*
X-8875956Y11090953D01*
X-8780718Y11014763D01*
X-8647385Y10976668D01*
X-8433099Y10976668D01*
X-6675956Y8445954D02*
X-6775956Y9245954D01*
X-7118813Y9245954D01*
X-7199766Y9207858D01*
X-7237861Y9169763D01*
X-7271194Y9093573D01*
X-7256909Y8979287D01*
X-7204528Y8903097D01*
X-7156909Y8865001D01*
X-7066433Y8826906D01*
X-6723575Y8826906D01*
X-7928337Y8865001D02*
X-8052147Y8826906D01*
X-8090242Y8788811D01*
X-8123575Y8712620D01*
X-8109290Y8598335D01*
X-8056909Y8522144D01*
X-8009290Y8484049D01*
X-7918813Y8445954D01*
X-7575956Y8445954D01*
X-7675956Y9245954D01*
X-7975956Y9245954D01*
X-8056909Y9207858D01*
X-8095004Y9169763D01*
X-8128337Y9093573D01*
X-8118813Y9017382D01*
X-8066433Y8941192D01*
X-8018813Y8903097D01*
X-7928337Y8865001D01*
X-7628337Y8865001D01*
X-8928337Y8979287D02*
X-8861671Y8445954D01*
X-8752147Y9284049D02*
X-8466433Y8712620D01*
X-9023575Y8712620D01*
X-6675956Y5915240D02*
X-6775956Y6715240D01*
X-7118813Y6715240D01*
X-7199766Y6677144D01*
X-7237861Y6639049D01*
X-7271194Y6562859D01*
X-7256909Y6448573D01*
X-7204528Y6372383D01*
X-7156909Y6334287D01*
X-7066433Y6296192D01*
X-6723575Y6296192D01*
X-7928337Y6334287D02*
X-8052147Y6296192D01*
X-8090242Y6258097D01*
X-8123575Y6181906D01*
X-8109290Y6067621D01*
X-8056909Y5991430D01*
X-8009290Y5953335D01*
X-7918813Y5915240D01*
X-7575956Y5915240D01*
X-7675956Y6715240D01*
X-7975956Y6715240D01*
X-8056909Y6677144D01*
X-8095004Y6639049D01*
X-8128337Y6562859D01*
X-8118813Y6486668D01*
X-8066433Y6410478D01*
X-8018813Y6372383D01*
X-7928337Y6334287D01*
X-7628337Y6334287D01*
X-8490242Y6715240D02*
X-9047385Y6715240D01*
X-8709290Y6410478D01*
X-8837861Y6410478D01*
X-8918813Y6372383D01*
X-8956909Y6334287D01*
X-8990242Y6258097D01*
X-8966433Y6067621D01*
X-8914052Y5991430D01*
X-8866433Y5953335D01*
X-8775956Y5915240D01*
X-8518813Y5915240D01*
X-8437861Y5953335D01*
X-8399766Y5991430D01*
X-5947385Y3384526D02*
X-6047385Y4184526D01*
X-6390242Y4184526D01*
X-6471194Y4146430D01*
X-6509289Y4108335D01*
X-6542623Y4032145D01*
X-6528337Y3917859D01*
X-6475956Y3841669D01*
X-6428337Y3803573D01*
X-6337861Y3765478D01*
X-5995004Y3765478D01*
X-6833099Y3613097D02*
X-7261670Y3613097D01*
X-6718813Y3384526D02*
X-7118813Y4184526D01*
X-7318813Y3384526D01*
X-8090242Y3384526D02*
X-7575956Y3384526D01*
X-7833099Y3384526D02*
X-7933099Y4184526D01*
X-7833099Y4070240D01*
X-7737861Y3994050D01*
X-7647385Y3955954D01*
X-8928337Y3917859D02*
X-8861670Y3384526D01*
X-8752147Y4222621D02*
X-8466432Y3651192D01*
X-9023575Y3651192D01*
X-5947385Y853812D02*
X-6047385Y1653812D01*
X-6390242Y1653812D01*
X-6471194Y1615716D01*
X-6509289Y1577621D01*
X-6542623Y1501431D01*
X-6528337Y1387145D01*
X-6475956Y1310955D01*
X-6428337Y1272859D01*
X-6337861Y1234764D01*
X-5995004Y1234764D01*
X-6833099Y1082383D02*
X-7261670Y1082383D01*
X-6718813Y853812D02*
X-7118813Y1653812D01*
X-7318813Y853812D01*
X-8090242Y853812D02*
X-7575956Y853812D01*
X-7833099Y853812D02*
X-7933099Y1653812D01*
X-7833099Y1539526D01*
X-7737861Y1463336D01*
X-7647385Y1425240D01*
X-8490242Y1653812D02*
X-9047385Y1653812D01*
X-8709289Y1349050D01*
X-8837861Y1349050D01*
X-8918813Y1310955D01*
X-8956908Y1272859D01*
X-8990242Y1196669D01*
X-8966432Y1006193D01*
X-8914051Y930002D01*
X-8866432Y891907D01*
X-8775956Y853812D01*
X-8518813Y853812D01*
X-8437861Y891907D01*
X-8399766Y930002D01*
X-6675956Y-1676902D02*
X-6775956Y-876902D01*
X-7118813Y-876902D01*
X-7199766Y-914998D01*
X-7237861Y-953093D01*
X-7271194Y-1029283D01*
X-7256909Y-1143569D01*
X-7204528Y-1219759D01*
X-7156909Y-1257855D01*
X-7066433Y-1295950D01*
X-6723575Y-1295950D01*
X-7928337Y-1257855D02*
X-8052147Y-1295950D01*
X-8090242Y-1334045D01*
X-8123575Y-1410236D01*
X-8109290Y-1524521D01*
X-8056909Y-1600712D01*
X-8009290Y-1638807D01*
X-7918813Y-1676902D01*
X-7575956Y-1676902D01*
X-7675956Y-876902D01*
X-7975956Y-876902D01*
X-8056909Y-914998D01*
X-8095004Y-953093D01*
X-8128337Y-1029283D01*
X-8118813Y-1105474D01*
X-8066433Y-1181664D01*
X-8018813Y-1219759D01*
X-7928337Y-1257855D01*
X-7628337Y-1257855D01*
X-9004528Y-876902D02*
X-8575956Y-876902D01*
X-8485480Y-1257855D01*
X-8533099Y-1219759D01*
X-8623575Y-1181664D01*
X-8837861Y-1181664D01*
X-8918813Y-1219759D01*
X-8956909Y-1257855D01*
X-8990242Y-1334045D01*
X-8966433Y-1524521D01*
X-8914052Y-1600712D01*
X-8866433Y-1638807D01*
X-8775956Y-1676902D01*
X-8561671Y-1676902D01*
X-8480718Y-1638807D01*
X-8442623Y-1600712D01*
X-8228096Y-2600241D02*
X-9028096Y-2700241D01*
X-9028096Y-3043098D01*
X-8990000Y-3124051D01*
X-8951905Y-3162146D01*
X-8875715Y-3195479D01*
X-8761429Y-3181194D01*
X-8685239Y-3128813D01*
X-8647143Y-3081194D01*
X-8609048Y-2990718D01*
X-8609048Y-2647860D01*
X-8647143Y-3852622D02*
X-8609048Y-3976432D01*
X-8570953Y-4014527D01*
X-8494762Y-4047860D01*
X-8380477Y-4033575D01*
X-8304286Y-3981194D01*
X-8266191Y-3933575D01*
X-8228096Y-3843098D01*
X-8228096Y-3500241D01*
X-9028096Y-3600241D01*
X-9028096Y-3900241D01*
X-8990000Y-3981194D01*
X-8951905Y-4019289D01*
X-8875715Y-4052622D01*
X-8799524Y-4043098D01*
X-8723334Y-3990718D01*
X-8685239Y-3943098D01*
X-8647143Y-3852622D01*
X-8647143Y-3552622D01*
X-8228096Y-4443098D02*
X-8228096Y-4614527D01*
X-8266191Y-4705003D01*
X-8304286Y-4752622D01*
X-8418572Y-4852622D01*
X-8570953Y-4914527D01*
X-8875715Y-4952622D01*
X-8951905Y-4919289D01*
X-8990000Y-4881194D01*
X-9028096Y-4800241D01*
X-9028096Y-4628813D01*
X-8990000Y-4538337D01*
X-8951905Y-4490718D01*
X-8875715Y-4438337D01*
X-8685239Y-4414527D01*
X-8609048Y-4447860D01*
X-8570953Y-4485956D01*
X-8532858Y-4566908D01*
X-8532858Y-4738337D01*
X-8570953Y-4828813D01*
X-8609048Y-4876432D01*
X-8685239Y-4928813D01*
X-5818813Y-6738330D02*
X-5918813Y-5938330D01*
X-6261670Y-5938330D01*
X-6342622Y-5976426D01*
X-6380718Y-6014521D01*
X-6414051Y-6090711D01*
X-6399765Y-6204997D01*
X-6347384Y-6281187D01*
X-6299765Y-6319283D01*
X-6209289Y-6357378D01*
X-5866432Y-6357378D01*
X-7071194Y-6319283D02*
X-7195003Y-6357378D01*
X-7233099Y-6395473D01*
X-7266432Y-6471664D01*
X-7252146Y-6585949D01*
X-7199765Y-6662140D01*
X-7152146Y-6700235D01*
X-7061670Y-6738330D01*
X-6718813Y-6738330D01*
X-6818813Y-5938330D01*
X-7118813Y-5938330D01*
X-7199765Y-5976426D01*
X-7237861Y-6014521D01*
X-7271194Y-6090711D01*
X-7261670Y-6166902D01*
X-7209289Y-6243092D01*
X-7161670Y-6281187D01*
X-7071194Y-6319283D01*
X-6771194Y-6319283D01*
X-8090241Y-6738330D02*
X-7575956Y-6738330D01*
X-7833099Y-6738330D02*
X-7933099Y-5938330D01*
X-7833099Y-6052616D01*
X-7737861Y-6128806D01*
X-7647384Y-6166902D01*
X-8490241Y-5938330D02*
X-9047384Y-5938330D01*
X-8709289Y-6243092D01*
X-8837861Y-6243092D01*
X-8918813Y-6281187D01*
X-8956908Y-6319283D01*
X-8990241Y-6395473D01*
X-8966432Y-6585949D01*
X-8914051Y-6662140D01*
X-8866432Y-6700235D01*
X-8775956Y-6738330D01*
X-8518813Y-6738330D01*
X-8437861Y-6700235D01*
X-8399765Y-6662140D01*
X-5947385Y-9269044D02*
X-6047385Y-8469044D01*
X-6390242Y-8469044D01*
X-6471194Y-8507140D01*
X-6509289Y-8545235D01*
X-6542623Y-8621425D01*
X-6528337Y-8735711D01*
X-6475956Y-8811901D01*
X-6428337Y-8849997D01*
X-6337861Y-8888092D01*
X-5995004Y-8888092D01*
X-6833099Y-9040473D02*
X-7261670Y-9040473D01*
X-6718813Y-9269044D02*
X-7118813Y-8469044D01*
X-7318813Y-9269044D01*
X-8090242Y-9269044D02*
X-7575956Y-9269044D01*
X-7833099Y-9269044D02*
X-7933099Y-8469044D01*
X-7833099Y-8583330D01*
X-7737861Y-8659520D01*
X-7647385Y-8697616D01*
X-8747385Y-8469044D02*
X-8833099Y-8469044D01*
X-8914051Y-8507140D01*
X-8952147Y-8545235D01*
X-8985480Y-8621425D01*
X-9009289Y-8773806D01*
X-8985480Y-8964282D01*
X-8923575Y-9116663D01*
X-8871194Y-9192854D01*
X-8823575Y-9230949D01*
X-8733099Y-9269044D01*
X-8647385Y-9269044D01*
X-8566432Y-9230949D01*
X-8528337Y-9192854D01*
X-8495004Y-9116663D01*
X-8471194Y-8964282D01*
X-8495004Y-8773806D01*
X-8556908Y-8621425D01*
X-8609289Y-8545235D01*
X-8656908Y-8507140D01*
X-8747385Y-8469044D01*
X-5818813Y-11799758D02*
X-5918813Y-10999758D01*
X-6261670Y-10999758D01*
X-6342622Y-11037854D01*
X-6380718Y-11075949D01*
X-6414051Y-11152139D01*
X-6399765Y-11266425D01*
X-6347384Y-11342615D01*
X-6299765Y-11380711D01*
X-6209289Y-11418806D01*
X-5866432Y-11418806D01*
X-7071194Y-11380711D02*
X-7195003Y-11418806D01*
X-7233099Y-11456901D01*
X-7266432Y-11533092D01*
X-7252146Y-11647377D01*
X-7199765Y-11723568D01*
X-7152146Y-11761663D01*
X-7061670Y-11799758D01*
X-6718813Y-11799758D01*
X-6818813Y-10999758D01*
X-7118813Y-10999758D01*
X-7199765Y-11037854D01*
X-7237861Y-11075949D01*
X-7271194Y-11152139D01*
X-7261670Y-11228330D01*
X-7209289Y-11304520D01*
X-7161670Y-11342615D01*
X-7071194Y-11380711D01*
X-6771194Y-11380711D01*
X-8090241Y-11799758D02*
X-7575956Y-11799758D01*
X-7833099Y-11799758D02*
X-7933099Y-10999758D01*
X-7833099Y-11114044D01*
X-7737861Y-11190234D01*
X-7647384Y-11228330D01*
X-8928337Y-11266425D02*
X-8861670Y-11799758D01*
X-8752146Y-10961663D02*
X-8466432Y-11533092D01*
X-9023575Y-11533092D01*
X-6675956Y-14330472D02*
X-6775956Y-13530472D01*
X-7118813Y-13530472D01*
X-7199766Y-13568568D01*
X-7237861Y-13606663D01*
X-7271194Y-13682853D01*
X-7256909Y-13797139D01*
X-7204528Y-13873329D01*
X-7156909Y-13911425D01*
X-7066433Y-13949520D01*
X-6723575Y-13949520D01*
X-8099766Y-14254282D02*
X-8052147Y-14292377D01*
X-7918813Y-14330472D01*
X-7833099Y-14330472D01*
X-7709290Y-14292377D01*
X-7633099Y-14216187D01*
X-7599766Y-14139996D01*
X-7575956Y-13987615D01*
X-7590242Y-13873329D01*
X-7652147Y-13720948D01*
X-7704528Y-13644758D01*
X-7799766Y-13568568D01*
X-7933099Y-13530472D01*
X-8018813Y-13530472D01*
X-8142623Y-13568568D01*
X-8180718Y-13606663D01*
X-8747385Y-13530472D02*
X-8833099Y-13530472D01*
X-8914052Y-13568568D01*
X-8952147Y-13606663D01*
X-8985480Y-13682853D01*
X-9009290Y-13835234D01*
X-8985480Y-14025710D01*
X-8923575Y-14178091D01*
X-8871194Y-14254282D01*
X-8823575Y-14292377D01*
X-8733099Y-14330472D01*
X-8647385Y-14330472D01*
X-8566433Y-14292377D01*
X-8528337Y-14254282D01*
X-8495004Y-14178091D01*
X-8471194Y-14025710D01*
X-8495004Y-13835234D01*
X-8556909Y-13682853D01*
X-8609290Y-13606663D01*
X-8656909Y-13568568D01*
X-8747385Y-13530472D01*
X-6675956Y-16861186D02*
X-6775956Y-16061186D01*
X-7118813Y-16061186D01*
X-7199766Y-16099282D01*
X-7237861Y-16137377D01*
X-7271194Y-16213567D01*
X-7256909Y-16327853D01*
X-7204528Y-16404043D01*
X-7156909Y-16442139D01*
X-7066433Y-16480234D01*
X-6723575Y-16480234D01*
X-8099766Y-16784996D02*
X-8052147Y-16823091D01*
X-7918813Y-16861186D01*
X-7833099Y-16861186D01*
X-7709290Y-16823091D01*
X-7633099Y-16746901D01*
X-7599766Y-16670710D01*
X-7575956Y-16518329D01*
X-7590242Y-16404043D01*
X-7652147Y-16251662D01*
X-7704528Y-16175472D01*
X-7799766Y-16099282D01*
X-7933099Y-16061186D01*
X-8018813Y-16061186D01*
X-8142623Y-16099282D01*
X-8180718Y-16137377D01*
X-8947385Y-16861186D02*
X-8433099Y-16861186D01*
X-8690242Y-16861186D02*
X-8790242Y-16061186D01*
X-8690242Y-16175472D01*
X-8595004Y-16251662D01*
X-8504528Y-16289758D01*
X-7156909Y-18630000D02*
X-7075956Y-18591904D01*
X-6947385Y-18591904D01*
X-6814052Y-18630000D01*
X-6718814Y-18706190D01*
X-6666433Y-18782380D01*
X-6604528Y-18934761D01*
X-6590242Y-19049047D01*
X-6614052Y-19201428D01*
X-6647385Y-19277619D01*
X-6723576Y-19353809D01*
X-6847385Y-19391904D01*
X-6933099Y-19391904D01*
X-7066433Y-19353809D01*
X-7114052Y-19315714D01*
X-7147385Y-19049047D01*
X-6975956Y-19049047D01*
X-7490242Y-19391904D02*
X-7590242Y-18591904D01*
X-8004528Y-19391904D01*
X-8104528Y-18591904D01*
X-8433099Y-19391904D02*
X-8533099Y-18591904D01*
X-8747385Y-18591904D01*
X-8871195Y-18630000D01*
X-8947385Y-18706190D01*
X-8980718Y-18782380D01*
X-9004528Y-18934761D01*
X-8990242Y-19049047D01*
X-8928337Y-19201428D01*
X-8875956Y-19277619D01*
X-8780718Y-19353809D01*
X-8647385Y-19391904D01*
X-8433099Y-19391904D01*
X9003507Y-19561904D02*
X8903507Y-18761904D01*
X8560650Y-18761904D01*
X8479698Y-18800000D01*
X8441603Y-18838095D01*
X8408269Y-18914285D01*
X8422555Y-19028571D01*
X8474936Y-19104761D01*
X8522555Y-19142857D01*
X8613031Y-19180952D01*
X8955888Y-19180952D01*
X8117793Y-19333333D02*
X7689222Y-19333333D01*
X8232079Y-19561904D02*
X7832079Y-18761904D01*
X7632079Y-19561904D01*
X6860650Y-19561904D02*
X7374936Y-19561904D01*
X7117793Y-19561904D02*
X7017793Y-18761904D01*
X7117793Y-18876190D01*
X7213031Y-18952380D01*
X7303507Y-18990476D01*
X5946365Y-18761904D02*
X6374936Y-18761904D01*
X6465412Y-19142857D01*
X6417793Y-19104761D01*
X6327317Y-19066666D01*
X6113031Y-19066666D01*
X6032079Y-19104761D01*
X5993984Y-19142857D01*
X5960650Y-19219047D01*
X5984460Y-19409523D01*
X6036841Y-19485714D01*
X6084460Y-19523809D01*
X6174936Y-19561904D01*
X6389222Y-19561904D01*
X6470174Y-19523809D01*
X6508269Y-19485714D01*
X9003507Y-16978569D02*
X8903507Y-16178569D01*
X8560650Y-16178569D01*
X8479698Y-16216665D01*
X8441602Y-16254760D01*
X8408269Y-16330950D01*
X8422555Y-16445236D01*
X8474936Y-16521426D01*
X8522555Y-16559522D01*
X8613031Y-16597617D01*
X8955888Y-16597617D01*
X7751126Y-16559522D02*
X7627317Y-16597617D01*
X7589221Y-16635712D01*
X7555888Y-16711903D01*
X7570174Y-16826188D01*
X7622555Y-16902379D01*
X7670174Y-16940474D01*
X7760650Y-16978569D01*
X8103507Y-16978569D01*
X8003507Y-16178569D01*
X7703507Y-16178569D01*
X7622555Y-16216665D01*
X7584459Y-16254760D01*
X7551126Y-16330950D01*
X7560650Y-16407141D01*
X7613031Y-16483331D01*
X7660650Y-16521426D01*
X7751126Y-16559522D01*
X8051126Y-16559522D01*
X6732079Y-16978569D02*
X7246364Y-16978569D01*
X6989221Y-16978569D02*
X6889221Y-16178569D01*
X6989221Y-16292855D01*
X7084459Y-16369045D01*
X7174936Y-16407141D01*
X5817793Y-16178569D02*
X6246364Y-16178569D01*
X6336840Y-16559522D01*
X6289221Y-16521426D01*
X6198745Y-16483331D01*
X5984459Y-16483331D01*
X5903507Y-16521426D01*
X5865412Y-16559522D01*
X5832079Y-16635712D01*
X5855888Y-16826188D01*
X5908269Y-16902379D01*
X5955888Y-16940474D01*
X6046364Y-16978569D01*
X6260650Y-16978569D01*
X6341602Y-16940474D01*
X6379698Y-16902379D01*
X9003507Y-14395236D02*
X8903507Y-13595236D01*
X8560650Y-13595236D01*
X8479697Y-13633332D01*
X8441602Y-13671427D01*
X8408269Y-13747617D01*
X8422555Y-13861903D01*
X8474936Y-13938093D01*
X8522555Y-13976189D01*
X8613031Y-14014284D01*
X8955888Y-14014284D01*
X8117793Y-14166665D02*
X7689221Y-14166665D01*
X8232078Y-14395236D02*
X7832078Y-13595236D01*
X7632078Y-14395236D01*
X7317793Y-13595236D02*
X6760650Y-13595236D01*
X7098745Y-13899998D01*
X6970174Y-13899998D01*
X6889221Y-13938093D01*
X6851126Y-13976189D01*
X6817793Y-14052379D01*
X6841602Y-14242855D01*
X6893983Y-14319046D01*
X6941602Y-14357141D01*
X7032078Y-14395236D01*
X7289221Y-14395236D01*
X7370174Y-14357141D01*
X7408269Y-14319046D01*
X9003507Y-11811903D02*
X8903507Y-11011903D01*
X8560650Y-11011903D01*
X8479697Y-11049999D01*
X8441602Y-11088094D01*
X8408269Y-11164284D01*
X8422555Y-11278570D01*
X8474936Y-11354760D01*
X8522555Y-11392856D01*
X8613031Y-11430951D01*
X8955888Y-11430951D01*
X8117793Y-11583332D02*
X7689221Y-11583332D01*
X8232078Y-11811903D02*
X7832078Y-11011903D01*
X7632078Y-11811903D01*
X7284459Y-11088094D02*
X7236840Y-11049999D01*
X7146364Y-11011903D01*
X6932078Y-11011903D01*
X6851126Y-11049999D01*
X6813031Y-11088094D01*
X6779697Y-11164284D01*
X6789221Y-11240475D01*
X6846364Y-11354760D01*
X7417793Y-11811903D01*
X6860650Y-11811903D01*
X9003507Y-9228570D02*
X8903507Y-8428570D01*
X8560650Y-8428570D01*
X8479698Y-8466666D01*
X8441602Y-8504761D01*
X8408269Y-8580951D01*
X8422555Y-8695237D01*
X8474936Y-8771427D01*
X8522555Y-8809523D01*
X8613031Y-8847618D01*
X8955888Y-8847618D01*
X7751126Y-8809523D02*
X7627317Y-8847618D01*
X7589221Y-8885713D01*
X7555888Y-8961904D01*
X7570174Y-9076189D01*
X7622555Y-9152380D01*
X7670174Y-9190475D01*
X7760650Y-9228570D01*
X8103507Y-9228570D01*
X8003507Y-8428570D01*
X7703507Y-8428570D01*
X7622555Y-8466666D01*
X7584459Y-8504761D01*
X7551126Y-8580951D01*
X7560650Y-8657142D01*
X7613031Y-8733332D01*
X7660650Y-8771427D01*
X7751126Y-8809523D01*
X8051126Y-8809523D01*
X6732079Y-9228570D02*
X7246364Y-9228570D01*
X6989221Y-9228570D02*
X6889221Y-8428570D01*
X6989221Y-8542856D01*
X7084459Y-8619046D01*
X7174936Y-8657142D01*
X6074936Y-8428570D02*
X5989221Y-8428570D01*
X5908269Y-8466666D01*
X5870174Y-8504761D01*
X5836840Y-8580951D01*
X5813031Y-8733332D01*
X5836840Y-8923808D01*
X5898745Y-9076189D01*
X5951126Y-9152380D01*
X5998745Y-9190475D01*
X6089221Y-9228570D01*
X6174936Y-9228570D01*
X6255888Y-9190475D01*
X6293983Y-9152380D01*
X6327317Y-9076189D01*
X6351126Y-8923808D01*
X6327317Y-8733332D01*
X6265412Y-8580951D01*
X6213031Y-8504761D01*
X6165412Y-8466666D01*
X6074936Y-8428570D01*
X9121867Y-6645237D02*
X9021867Y-5845237D01*
X8679010Y-5845237D01*
X8598058Y-5883333D01*
X8559962Y-5921428D01*
X8526629Y-5997618D01*
X8540915Y-6111904D01*
X8593296Y-6188094D01*
X8640915Y-6226190D01*
X8731391Y-6264285D01*
X9074248Y-6264285D01*
X8236153Y-6416666D02*
X7807581Y-6416666D01*
X8350438Y-6645237D02*
X7950438Y-5845237D01*
X7750438Y-6645237D01*
X7407581Y-6645237D02*
X7236153Y-6645237D01*
X7145677Y-6607142D01*
X7098058Y-6569047D01*
X6998058Y-6454761D01*
X6936153Y-6302380D01*
X6898058Y-5997618D01*
X6931391Y-5921428D01*
X6969486Y-5883333D01*
X7050438Y-5845237D01*
X7221867Y-5845237D01*
X7312343Y-5883333D01*
X7359962Y-5921428D01*
X7412343Y-5997618D01*
X7436153Y-6188094D01*
X7402819Y-6264285D01*
X7364724Y-6302380D01*
X7283772Y-6340475D01*
X7112343Y-6340475D01*
X7021867Y-6302380D01*
X6974248Y-6264285D01*
X6921867Y-6188094D01*
X9121867Y-4061904D02*
X9021867Y-3261904D01*
X8679010Y-3261904D01*
X8598058Y-3300000D01*
X8559962Y-3338095D01*
X8526629Y-3414285D01*
X8540915Y-3528571D01*
X8593296Y-3604761D01*
X8640915Y-3642857D01*
X8731391Y-3680952D01*
X9074248Y-3680952D01*
X8236153Y-3833333D02*
X7807581Y-3833333D01*
X8350438Y-4061904D02*
X7950438Y-3261904D01*
X7750438Y-4061904D01*
X7179010Y-3261904D02*
X7093296Y-3261904D01*
X7012343Y-3300000D01*
X6974248Y-3338095D01*
X6940915Y-3414285D01*
X6917105Y-3566666D01*
X6940915Y-3757142D01*
X7002819Y-3909523D01*
X7055200Y-3985714D01*
X7102819Y-4023809D01*
X7193296Y-4061904D01*
X7279010Y-4061904D01*
X7359962Y-4023809D01*
X7398058Y-3985714D01*
X7431391Y-3909523D01*
X7455200Y-3757142D01*
X7431391Y-3566666D01*
X7369486Y-3414285D01*
X7317105Y-3338095D01*
X7269486Y-3300000D01*
X7179010Y-3261904D01*
X5821904Y-200241D02*
X5021904Y-300241D01*
X5021904Y-643098D01*
X5060000Y-724051D01*
X5098095Y-762146D01*
X5174285Y-795479D01*
X5288571Y-781194D01*
X5364761Y-728813D01*
X5402857Y-681194D01*
X5440952Y-590718D01*
X5440952Y-247860D01*
X5402857Y-1452622D02*
X5440952Y-1576432D01*
X5479047Y-1614527D01*
X5555238Y-1647860D01*
X5669523Y-1633575D01*
X5745714Y-1581194D01*
X5783809Y-1533575D01*
X5821904Y-1443098D01*
X5821904Y-1100241D01*
X5021904Y-1200241D01*
X5021904Y-1500241D01*
X5060000Y-1581194D01*
X5098095Y-1619289D01*
X5174285Y-1652622D01*
X5250476Y-1643098D01*
X5326666Y-1590718D01*
X5364761Y-1543098D01*
X5402857Y-1452622D01*
X5402857Y-1152622D01*
X5021904Y-2014527D02*
X5021904Y-2614527D01*
X5821904Y-2128813D01*
D13*
X9017796Y4213334D02*
X8838630Y3513334D01*
X8484463Y4213334D01*
X7992796Y3880000D02*
X7882677Y3846667D01*
X7848749Y3813334D01*
X7818987Y3746667D01*
X7831487Y3646667D01*
X7877915Y3580000D01*
X7920177Y3546667D01*
X8000534Y3513334D01*
X8305296Y3513334D01*
X8217796Y4213334D01*
X7951130Y4213334D01*
X7879106Y4180000D01*
X7845177Y4146667D01*
X7815415Y4080000D01*
X7823749Y4013334D01*
X7870177Y3946667D01*
X7912439Y3913334D01*
X7992796Y3880000D01*
X8259463Y3880000D01*
X7417796Y4213334D02*
X7488630Y3646667D01*
X7458868Y3580000D01*
X7424939Y3546667D01*
X7352915Y3513334D01*
X7200534Y3513334D01*
X7120177Y3546667D01*
X7077915Y3580000D01*
X7031487Y3646667D01*
X6960653Y4213334D01*
X6701130Y3546667D02*
X6591011Y3513334D01*
X6400534Y3513334D01*
X6320177Y3546667D01*
X6277915Y3580000D01*
X6231487Y3646667D01*
X6223153Y3713334D01*
X6252915Y3780000D01*
X6286844Y3813334D01*
X6358868Y3846667D01*
X6507082Y3880000D01*
X6579106Y3913334D01*
X6613034Y3946667D01*
X6642796Y4013334D01*
X6634463Y4080000D01*
X6588034Y4146667D01*
X6545772Y4180000D01*
X6465415Y4213334D01*
X6274939Y4213334D01*
X6164820Y4180000D01*
X8945177Y6420000D02*
X8678510Y6420000D01*
X8610058Y6053334D02*
X8991010Y6053334D01*
X8903510Y6753334D01*
X8522558Y6753334D01*
X8208867Y6520000D02*
X8267200Y6053334D01*
X8217200Y6453334D02*
X8174938Y6486667D01*
X8094581Y6520000D01*
X7980296Y6520000D01*
X7908272Y6486667D01*
X7878510Y6420000D01*
X7924343Y6053334D01*
D14*
X3608571Y-13273988D02*
X3608571Y-12123988D01*
X3151428Y-12123988D01*
X3037142Y-12178750D01*
X2980000Y-12233511D01*
X2922857Y-12343035D01*
X2922857Y-12507321D01*
X2980000Y-12616845D01*
X3037142Y-12671607D01*
X3151428Y-12726369D01*
X3608571Y-12726369D01*
X1951428Y-13219226D02*
X2065714Y-13273988D01*
X2294285Y-13273988D01*
X2408571Y-13219226D01*
X2465714Y-13109702D01*
X2465714Y-12671607D01*
X2408571Y-12562083D01*
X2294285Y-12507321D01*
X2065714Y-12507321D01*
X1951428Y-12562083D01*
X1894285Y-12671607D01*
X1894285Y-12781130D01*
X2465714Y-12890654D01*
X1380000Y-12507321D02*
X1380000Y-13273988D01*
X1380000Y-12616845D02*
X1322857Y-12562083D01*
X1208571Y-12507321D01*
X1037142Y-12507321D01*
X922857Y-12562083D01*
X865714Y-12671607D01*
X865714Y-13273988D01*
X-220000Y-12507321D02*
X-220000Y-13438273D01*
X-162858Y-13547797D01*
X-105715Y-13602559D01*
X8571Y-13657321D01*
X180000Y-13657321D01*
X294285Y-13602559D01*
X-220000Y-13219226D02*
X-105715Y-13273988D01*
X122857Y-13273988D01*
X237142Y-13219226D01*
X294285Y-13164464D01*
X351428Y-13054940D01*
X351428Y-12726369D01*
X294285Y-12616845D01*
X237142Y-12562083D01*
X122857Y-12507321D01*
X-105715Y-12507321D01*
X-220000Y-12562083D01*
X-1305715Y-12507321D02*
X-1305715Y-13273988D01*
X-791429Y-12507321D02*
X-791429Y-13109702D01*
X-848572Y-13219226D01*
X-962858Y-13273988D01*
X-1134286Y-13273988D01*
X-1248572Y-13219226D01*
X-1305715Y-13164464D01*
X-1877143Y-13273988D02*
X-1877143Y-12507321D01*
X-1877143Y-12123988D02*
X-1820000Y-12178750D01*
X-1877143Y-12233511D01*
X-1934286Y-12178750D01*
X-1877143Y-12123988D01*
X-1877143Y-12233511D01*
X-2448572Y-12507321D02*
X-2448572Y-13273988D01*
X-2448572Y-12616845D02*
X-2505715Y-12562083D01*
X-2620000Y-12507321D01*
X-2791429Y-12507321D01*
X-2905715Y-12562083D01*
X-2962858Y-12671607D01*
X-2962858Y-13273988D01*
X-3705715Y-13273988D02*
X-3591429Y-13219226D01*
X-3534286Y-13164464D01*
X-3477143Y-13054940D01*
X-3477143Y-12726369D01*
X-3534286Y-12616845D01*
X-3591429Y-12562083D01*
X-3705715Y-12507321D01*
X-3877143Y-12507321D01*
X-3991429Y-12562083D01*
X-4048572Y-12616845D01*
X-4105715Y-12726369D01*
X-4105715Y-13054940D01*
X-4048572Y-13164464D01*
X-3991429Y-13219226D01*
X-3877143Y-13273988D01*
X-3705715Y-13273988D01*
X5437142Y-15231726D02*
X5265714Y-15286488D01*
X4980000Y-15286488D01*
X4865714Y-15231726D01*
X4808571Y-15176964D01*
X4751428Y-15067440D01*
X4751428Y-14957916D01*
X4808571Y-14848392D01*
X4865714Y-14793630D01*
X4980000Y-14738869D01*
X5208571Y-14684107D01*
X5322857Y-14629345D01*
X5380000Y-14574583D01*
X5437142Y-14465059D01*
X5437142Y-14355535D01*
X5380000Y-14246011D01*
X5322857Y-14191250D01*
X5208571Y-14136488D01*
X4922857Y-14136488D01*
X4751428Y-14191250D01*
X4408571Y-14136488D02*
X3722857Y-14136488D01*
X4065714Y-15286488D02*
X4065714Y-14136488D01*
X3322857Y-15286488D02*
X3322857Y-14136488D01*
X2922857Y-14957916D01*
X2522857Y-14136488D01*
X2522857Y-15286488D01*
X2065714Y-14136488D02*
X1322857Y-14136488D01*
X1722857Y-14574583D01*
X1551428Y-14574583D01*
X1437142Y-14629345D01*
X1380000Y-14684107D01*
X1322857Y-14793630D01*
X1322857Y-15067440D01*
X1380000Y-15176964D01*
X1437142Y-15231726D01*
X1551428Y-15286488D01*
X1894285Y-15286488D01*
X2008571Y-15231726D01*
X2065714Y-15176964D01*
X865714Y-14246011D02*
X808571Y-14191250D01*
X694285Y-14136488D01*
X408571Y-14136488D01*
X294285Y-14191250D01*
X237142Y-14246011D01*
X180000Y-14355535D01*
X180000Y-14465059D01*
X237142Y-14629345D01*
X922857Y-15286488D01*
X180000Y-15286488D01*
X-220000Y-14136488D02*
X-505715Y-15286488D01*
X-734286Y-14465059D01*
X-962858Y-15286488D01*
X-1248572Y-14136488D01*
X-2277143Y-15286488D02*
X-1705715Y-15286488D01*
X-1705715Y-14136488D01*
X-2677143Y-14848392D02*
X-3591429Y-14848392D01*
X-4162858Y-14684107D02*
X-4562858Y-14684107D01*
X-4734286Y-15286488D02*
X-4162858Y-15286488D01*
X-4162858Y-14136488D01*
X-4734286Y-14136488D01*
X-5820000Y-14136488D02*
X-5248572Y-14136488D01*
X-5191429Y-14684107D01*
X-5248572Y-14629345D01*
X-5362858Y-14574583D01*
X-5648572Y-14574583D01*
X-5762858Y-14629345D01*
X-5820000Y-14684107D01*
X-5877143Y-14793630D01*
X-5877143Y-15067440D01*
X-5820000Y-15176964D01*
X-5762858Y-15231726D01*
X-5648572Y-15286488D01*
X-5362858Y-15286488D01*
X-5248572Y-15231726D01*
X-5191429Y-15176964D01*
D15*
X-8890000Y-25380000D02*
G75*
G02*
X-11430000Y-22840000I0J2540000D01*
G01*
X11430000Y-22840000D02*
G75*
G02*
X8890000Y-25380000I-2540000J0D01*
G01*
X8890000Y25420000D02*
G75*
G02*
X11430000Y22880000I0J-2540000D01*
G01*
X-11430000Y22880000D02*
G75*
G02*
X-8890000Y25420000I2540000J0D01*
G01*
X-11430000Y-22840000D02*
X-11430000Y22880000D01*
X8890000Y-25380000D02*
X-8890000Y-25380000D01*
X11430000Y22880000D02*
X11430000Y-22840000D01*
X-8890000Y25420000D02*
X8890000Y25420000D01*
D16*
G36*
X-93910Y20407652D02*
G01*
X-172454Y20407222D01*
X-229298Y20406058D01*
X-268105Y20403793D01*
X-292538Y20400060D01*
X-306262Y20394494D01*
X-312940Y20386727D01*
X-316236Y20376395D01*
X-316556Y20375057D01*
X-321562Y20350921D01*
X-330829Y20303299D01*
X-343392Y20237259D01*
X-358287Y20157872D01*
X-374551Y20070204D01*
X-375119Y20067125D01*
X-391410Y19981211D01*
X-406652Y19905304D01*
X-419861Y19843955D01*
X-430054Y19801718D01*
X-436248Y19783145D01*
X-436543Y19782816D01*
X-454788Y19773747D01*
X-492405Y19758633D01*
X-541271Y19740738D01*
X-541543Y19740642D01*
X-603093Y19717507D01*
X-675657Y19688035D01*
X-744057Y19658403D01*
X-747294Y19656938D01*
X-858702Y19606374D01*
X-1105399Y19774840D01*
X-1181077Y19826197D01*
X-1249631Y19872111D01*
X-1307088Y19909970D01*
X-1349476Y19937163D01*
X-1372825Y19951079D01*
X-1375042Y19952111D01*
X-1392010Y19947516D01*
X-1423701Y19925345D01*
X-1471352Y19884553D01*
X-1536198Y19824095D01*
X-1602397Y19759773D01*
X-1666214Y19696388D01*
X-1723329Y19638549D01*
X-1770305Y19589825D01*
X-1803703Y19553790D01*
X-1820085Y19534016D01*
X-1820694Y19532998D01*
X-1822505Y19519428D01*
X-1815683Y19497267D01*
X-1798540Y19463522D01*
X-1769393Y19415200D01*
X-1726555Y19349308D01*
X-1669448Y19264483D01*
X-1618766Y19189823D01*
X-1573461Y19122860D01*
X-1536150Y19067484D01*
X-1509452Y19027580D01*
X-1495985Y19007038D01*
X-1495137Y19005644D01*
X-1496781Y18985962D01*
X-1509245Y18947707D01*
X-1530048Y18898111D01*
X-1537462Y18882272D01*
X-1569814Y18811710D01*
X-1604328Y18731647D01*
X-1632365Y18662371D01*
X-1652568Y18610955D01*
X-1668615Y18571881D01*
X-1677888Y18551459D01*
X-1679041Y18549886D01*
X-1696096Y18547279D01*
X-1736298Y18540137D01*
X-1794302Y18529477D01*
X-1864763Y18516315D01*
X-1942335Y18501667D01*
X-2021672Y18486551D01*
X-2097431Y18471982D01*
X-2164264Y18458978D01*
X-2216828Y18448555D01*
X-2249776Y18441730D01*
X-2257857Y18439801D01*
X-2266205Y18435038D01*
X-2272506Y18424282D01*
X-2277045Y18403902D01*
X-2280104Y18370266D01*
X-2281967Y18319745D01*
X-2282918Y18248708D01*
X-2283240Y18153524D01*
X-2283257Y18114508D01*
X-2283257Y17797201D01*
X-2207057Y17782161D01*
X-2164663Y17774005D01*
X-2101400Y17762101D01*
X-2024962Y17747884D01*
X-1943043Y17732790D01*
X-1920400Y17728645D01*
X-1844806Y17713947D01*
X-1778953Y17699495D01*
X-1728366Y17686625D01*
X-1698574Y17676678D01*
X-1693612Y17673713D01*
X-1681426Y17652717D01*
X-1663953Y17612033D01*
X-1644577Y17559678D01*
X-1640734Y17548400D01*
X-1615339Y17478477D01*
X-1583817Y17399582D01*
X-1552969Y17328734D01*
X-1552817Y17328405D01*
X-1501447Y17217267D01*
X-1670399Y16968747D01*
X-1839352Y16720228D01*
X-1622429Y16502942D01*
X-1556819Y16438274D01*
X-1496979Y16381267D01*
X-1446267Y16334967D01*
X-1408046Y16302416D01*
X-1385675Y16286657D01*
X-1382466Y16285657D01*
X-1363626Y16293531D01*
X-1325180Y16315422D01*
X-1271330Y16348733D01*
X-1206276Y16390869D01*
X-1135940Y16438057D01*
X-1064555Y16486190D01*
X-1000908Y16528072D01*
X-949041Y16561129D01*
X-912995Y16582782D01*
X-896867Y16590457D01*
X-877189Y16583963D01*
X-839875Y16566850D01*
X-792621Y16542674D01*
X-787612Y16539987D01*
X-723977Y16508073D01*
X-680341Y16492421D01*
X-653202Y16492255D01*
X-639057Y16506796D01*
X-638975Y16507000D01*
X-631905Y16524221D01*
X-615042Y16565101D01*
X-589695Y16626475D01*
X-557171Y16705181D01*
X-518778Y16798053D01*
X-475822Y16901928D01*
X-434222Y17002498D01*
X-388504Y17113484D01*
X-346526Y17216297D01*
X-309548Y17307785D01*
X-278827Y17384799D01*
X-255622Y17444185D01*
X-241190Y17482791D01*
X-236743Y17497200D01*
X-247896Y17513728D01*
X-277069Y17540070D01*
X-315971Y17569113D01*
X-426757Y17660961D01*
X-513351Y17766241D01*
X-574716Y17882734D01*
X-609815Y18008224D01*
X-617608Y18140493D01*
X-611943Y18201543D01*
X-581078Y18328205D01*
X-527920Y18440059D01*
X-455767Y18535999D01*
X-367917Y18614924D01*
X-267665Y18675730D01*
X-158310Y18717313D01*
X-43147Y18738572D01*
X74525Y18738401D01*
X191410Y18715699D01*
X304211Y18669362D01*
X409631Y18598287D01*
X453632Y18558089D01*
X538021Y18454871D01*
X596778Y18342075D01*
X630296Y18222990D01*
X638965Y18100905D01*
X623177Y17979107D01*
X583322Y17860884D01*
X519793Y17749525D01*
X432979Y17648316D01*
X335971Y17569113D01*
X295563Y17538838D01*
X267018Y17512781D01*
X256743Y17497175D01*
X262123Y17480157D01*
X277425Y17439500D01*
X301388Y17378358D01*
X332756Y17299881D01*
X370268Y17207220D01*
X412667Y17103528D01*
X454337Y17002474D01*
X500310Y16891393D01*
X542893Y16788459D01*
X580779Y16696835D01*
X612660Y16619684D01*
X637229Y16560169D01*
X653180Y16521456D01*
X659090Y16507000D01*
X673052Y16492315D01*
X700060Y16492358D01*
X743587Y16507901D01*
X807110Y16539716D01*
X807612Y16539987D01*
X855440Y16564677D01*
X894103Y16582662D01*
X915905Y16590386D01*
X916867Y16590457D01*
X933279Y16582622D01*
X969513Y16560835D01*
X1021526Y16527672D01*
X1085275Y16485709D01*
X1155940Y16438057D01*
X1227884Y16389809D01*
X1292726Y16347849D01*
X1346265Y16314773D01*
X1384303Y16293179D01*
X1402467Y16285657D01*
X1419192Y16295543D01*
X1452820Y16323174D01*
X1499990Y16365505D01*
X1557342Y16419495D01*
X1621516Y16482101D01*
X1642503Y16503017D01*
X1859501Y16720377D01*
X1694332Y16962780D01*
X1644136Y17037219D01*
X1600081Y17104028D01*
X1564638Y17159335D01*
X1540281Y17199271D01*
X1529478Y17219964D01*
X1529162Y17221437D01*
X1534857Y17240942D01*
X1550174Y17280178D01*
X1572463Y17332570D01*
X1588107Y17367645D01*
X1617359Y17434799D01*
X1644906Y17502642D01*
X1666263Y17559966D01*
X1672065Y17577428D01*
X1688548Y17624062D01*
X1704660Y17660095D01*
X1713510Y17673713D01*
X1733040Y17682048D01*
X1775666Y17693863D01*
X1835855Y17707819D01*
X1908078Y17722578D01*
X1940400Y17728645D01*
X2022478Y17743727D01*
X2101205Y17758331D01*
X2168891Y17771020D01*
X2217840Y17780358D01*
X2227057Y17782161D01*
X2303257Y17797201D01*
X2303257Y18114508D01*
X2303086Y18218846D01*
X2302384Y18297787D01*
X2300866Y18354962D01*
X2298251Y18394001D01*
X2294254Y18418535D01*
X2288591Y18432195D01*
X2280980Y18438611D01*
X2277857Y18439801D01*
X2259022Y18444020D01*
X2217412Y18452438D01*
X2158370Y18464039D01*
X2087243Y18477805D01*
X2009375Y18492720D01*
X1930113Y18507768D01*
X1854802Y18521931D01*
X1788787Y18534194D01*
X1737413Y18543539D01*
X1706025Y18548950D01*
X1699041Y18549886D01*
X1692715Y18562404D01*
X1678710Y18595754D01*
X1659645Y18643623D01*
X1652366Y18662371D01*
X1623004Y18734805D01*
X1588429Y18814830D01*
X1557463Y18882272D01*
X1534677Y18933841D01*
X1519518Y18976215D01*
X1514458Y19002166D01*
X1515264Y19005644D01*
X1525959Y19022064D01*
X1550380Y19058583D01*
X1585905Y19111313D01*
X1629913Y19176365D01*
X1679783Y19249849D01*
X1689644Y19264355D01*
X1747508Y19350296D01*
X1790044Y19415739D01*
X1818946Y19463696D01*
X1835910Y19497180D01*
X1842633Y19519205D01*
X1840810Y19532783D01*
X1840764Y19532869D01*
X1826414Y19550703D01*
X1794677Y19585183D01*
X1748990Y19632732D01*
X1692796Y19689778D01*
X1629532Y19752745D01*
X1622398Y19759773D01*
X1542670Y19836980D01*
X1481143Y19893670D01*
X1436579Y19930890D01*
X1407743Y19949685D01*
X1395042Y19952111D01*
X1376506Y19941529D01*
X1338039Y19917084D01*
X1283614Y19881388D01*
X1217202Y19837053D01*
X1142775Y19786689D01*
X1125399Y19774840D01*
X878703Y19606374D01*
X767294Y19656938D01*
X699543Y19686405D01*
X626817Y19716041D01*
X564297Y19739670D01*
X561543Y19740642D01*
X512640Y19758543D01*
X474943Y19773680D01*
X456575Y19782790D01*
X456544Y19782816D01*
X450715Y19799283D01*
X440808Y19839781D01*
X427805Y19899758D01*
X412691Y19974660D01*
X396448Y20059936D01*
X395119Y20067125D01*
X378825Y20154986D01*
X363867Y20234740D01*
X351209Y20301319D01*
X341814Y20349653D01*
X336646Y20374675D01*
X336556Y20375057D01*
X333411Y20385701D01*
X327296Y20393738D01*
X314547Y20399533D01*
X291500Y20403453D01*
X254491Y20405865D01*
X199856Y20407135D01*
X123933Y20407629D01*
X23056Y20407714D01*
X10000Y20407714D01*
X-93910Y20407652D01*
G37*
X-93910Y20407652D02*
X-172454Y20407222D01*
X-229298Y20406058D01*
X-268105Y20403793D01*
X-292538Y20400060D01*
X-306262Y20394494D01*
X-312940Y20386727D01*
X-316236Y20376395D01*
X-316556Y20375057D01*
X-321562Y20350921D01*
X-330829Y20303299D01*
X-343392Y20237259D01*
X-358287Y20157872D01*
X-374551Y20070204D01*
X-375119Y20067125D01*
X-391410Y19981211D01*
X-406652Y19905304D01*
X-419861Y19843955D01*
X-430054Y19801718D01*
X-436248Y19783145D01*
X-436543Y19782816D01*
X-454788Y19773747D01*
X-492405Y19758633D01*
X-541271Y19740738D01*
X-541543Y19740642D01*
X-603093Y19717507D01*
X-675657Y19688035D01*
X-744057Y19658403D01*
X-747294Y19656938D01*
X-858702Y19606374D01*
X-1105399Y19774840D01*
X-1181077Y19826197D01*
X-1249631Y19872111D01*
X-1307088Y19909970D01*
X-1349476Y19937163D01*
X-1372825Y19951079D01*
X-1375042Y19952111D01*
X-1392010Y19947516D01*
X-1423701Y19925345D01*
X-1471352Y19884553D01*
X-1536198Y19824095D01*
X-1602397Y19759773D01*
X-1666214Y19696388D01*
X-1723329Y19638549D01*
X-1770305Y19589825D01*
X-1803703Y19553790D01*
X-1820085Y19534016D01*
X-1820694Y19532998D01*
X-1822505Y19519428D01*
X-1815683Y19497267D01*
X-1798540Y19463522D01*
X-1769393Y19415200D01*
X-1726555Y19349308D01*
X-1669448Y19264483D01*
X-1618766Y19189823D01*
X-1573461Y19122860D01*
X-1536150Y19067484D01*
X-1509452Y19027580D01*
X-1495985Y19007038D01*
X-1495137Y19005644D01*
X-1496781Y18985962D01*
X-1509245Y18947707D01*
X-1530048Y18898111D01*
X-1537462Y18882272D01*
X-1569814Y18811710D01*
X-1604328Y18731647D01*
X-1632365Y18662371D01*
X-1652568Y18610955D01*
X-1668615Y18571881D01*
X-1677888Y18551459D01*
X-1679041Y18549886D01*
X-1696096Y18547279D01*
X-1736298Y18540137D01*
X-1794302Y18529477D01*
X-1864763Y18516315D01*
X-1942335Y18501667D01*
X-2021672Y18486551D01*
X-2097431Y18471982D01*
X-2164264Y18458978D01*
X-2216828Y18448555D01*
X-2249776Y18441730D01*
X-2257857Y18439801D01*
X-2266205Y18435038D01*
X-2272506Y18424282D01*
X-2277045Y18403902D01*
X-2280104Y18370266D01*
X-2281967Y18319745D01*
X-2282918Y18248708D01*
X-2283240Y18153524D01*
X-2283257Y18114508D01*
X-2283257Y17797201D01*
X-2207057Y17782161D01*
X-2164663Y17774005D01*
X-2101400Y17762101D01*
X-2024962Y17747884D01*
X-1943043Y17732790D01*
X-1920400Y17728645D01*
X-1844806Y17713947D01*
X-1778953Y17699495D01*
X-1728366Y17686625D01*
X-1698574Y17676678D01*
X-1693612Y17673713D01*
X-1681426Y17652717D01*
X-1663953Y17612033D01*
X-1644577Y17559678D01*
X-1640734Y17548400D01*
X-1615339Y17478477D01*
X-1583817Y17399582D01*
X-1552969Y17328734D01*
X-1552817Y17328405D01*
X-1501447Y17217267D01*
X-1670399Y16968747D01*
X-1839352Y16720228D01*
X-1622429Y16502942D01*
X-1556819Y16438274D01*
X-1496979Y16381267D01*
X-1446267Y16334967D01*
X-1408046Y16302416D01*
X-1385675Y16286657D01*
X-1382466Y16285657D01*
X-1363626Y16293531D01*
X-1325180Y16315422D01*
X-1271330Y16348733D01*
X-1206276Y16390869D01*
X-1135940Y16438057D01*
X-1064555Y16486190D01*
X-1000908Y16528072D01*
X-949041Y16561129D01*
X-912995Y16582782D01*
X-896867Y16590457D01*
X-877189Y16583963D01*
X-839875Y16566850D01*
X-792621Y16542674D01*
X-787612Y16539987D01*
X-723977Y16508073D01*
X-680341Y16492421D01*
X-653202Y16492255D01*
X-639057Y16506796D01*
X-638975Y16507000D01*
X-631905Y16524221D01*
X-615042Y16565101D01*
X-589695Y16626475D01*
X-557171Y16705181D01*
X-518778Y16798053D01*
X-475822Y16901928D01*
X-434222Y17002498D01*
X-388504Y17113484D01*
X-346526Y17216297D01*
X-309548Y17307785D01*
X-278827Y17384799D01*
X-255622Y17444185D01*
X-241190Y17482791D01*
X-236743Y17497200D01*
X-247896Y17513728D01*
X-277069Y17540070D01*
X-315971Y17569113D01*
X-426757Y17660961D01*
X-513351Y17766241D01*
X-574716Y17882734D01*
X-609815Y18008224D01*
X-617608Y18140493D01*
X-611943Y18201543D01*
X-581078Y18328205D01*
X-527920Y18440059D01*
X-455767Y18535999D01*
X-367917Y18614924D01*
X-267665Y18675730D01*
X-158310Y18717313D01*
X-43147Y18738572D01*
X74525Y18738401D01*
X191410Y18715699D01*
X304211Y18669362D01*
X409631Y18598287D01*
X453632Y18558089D01*
X538021Y18454871D01*
X596778Y18342075D01*
X630296Y18222990D01*
X638965Y18100905D01*
X623177Y17979107D01*
X583322Y17860884D01*
X519793Y17749525D01*
X432979Y17648316D01*
X335971Y17569113D01*
X295563Y17538838D01*
X267018Y17512781D01*
X256743Y17497175D01*
X262123Y17480157D01*
X277425Y17439500D01*
X301388Y17378358D01*
X332756Y17299881D01*
X370268Y17207220D01*
X412667Y17103528D01*
X454337Y17002474D01*
X500310Y16891393D01*
X542893Y16788459D01*
X580779Y16696835D01*
X612660Y16619684D01*
X637229Y16560169D01*
X653180Y16521456D01*
X659090Y16507000D01*
X673052Y16492315D01*
X700060Y16492358D01*
X743587Y16507901D01*
X807110Y16539716D01*
X807612Y16539987D01*
X855440Y16564677D01*
X894103Y16582662D01*
X915905Y16590386D01*
X916867Y16590457D01*
X933279Y16582622D01*
X969513Y16560835D01*
X1021526Y16527672D01*
X1085275Y16485709D01*
X1155940Y16438057D01*
X1227884Y16389809D01*
X1292726Y16347849D01*
X1346265Y16314773D01*
X1384303Y16293179D01*
X1402467Y16285657D01*
X1419192Y16295543D01*
X1452820Y16323174D01*
X1499990Y16365505D01*
X1557342Y16419495D01*
X1621516Y16482101D01*
X1642503Y16503017D01*
X1859501Y16720377D01*
X1694332Y16962780D01*
X1644136Y17037219D01*
X1600081Y17104028D01*
X1564638Y17159335D01*
X1540281Y17199271D01*
X1529478Y17219964D01*
X1529162Y17221437D01*
X1534857Y17240942D01*
X1550174Y17280178D01*
X1572463Y17332570D01*
X1588107Y17367645D01*
X1617359Y17434799D01*
X1644906Y17502642D01*
X1666263Y17559966D01*
X1672065Y17577428D01*
X1688548Y17624062D01*
X1704660Y17660095D01*
X1713510Y17673713D01*
X1733040Y17682048D01*
X1775666Y17693863D01*
X1835855Y17707819D01*
X1908078Y17722578D01*
X1940400Y17728645D01*
X2022478Y17743727D01*
X2101205Y17758331D01*
X2168891Y17771020D01*
X2217840Y17780358D01*
X2227057Y17782161D01*
X2303257Y17797201D01*
X2303257Y18114508D01*
X2303086Y18218846D01*
X2302384Y18297787D01*
X2300866Y18354962D01*
X2298251Y18394001D01*
X2294254Y18418535D01*
X2288591Y18432195D01*
X2280980Y18438611D01*
X2277857Y18439801D01*
X2259022Y18444020D01*
X2217412Y18452438D01*
X2158370Y18464039D01*
X2087243Y18477805D01*
X2009375Y18492720D01*
X1930113Y18507768D01*
X1854802Y18521931D01*
X1788787Y18534194D01*
X1737413Y18543539D01*
X1706025Y18548950D01*
X1699041Y18549886D01*
X1692715Y18562404D01*
X1678710Y18595754D01*
X1659645Y18643623D01*
X1652366Y18662371D01*
X1623004Y18734805D01*
X1588429Y18814830D01*
X1557463Y18882272D01*
X1534677Y18933841D01*
X1519518Y18976215D01*
X1514458Y19002166D01*
X1515264Y19005644D01*
X1525959Y19022064D01*
X1550380Y19058583D01*
X1585905Y19111313D01*
X1629913Y19176365D01*
X1679783Y19249849D01*
X1689644Y19264355D01*
X1747508Y19350296D01*
X1790044Y19415739D01*
X1818946Y19463696D01*
X1835910Y19497180D01*
X1842633Y19519205D01*
X1840810Y19532783D01*
X1840764Y19532869D01*
X1826414Y19550703D01*
X1794677Y19585183D01*
X1748990Y19632732D01*
X1692796Y19689778D01*
X1629532Y19752745D01*
X1622398Y19759773D01*
X1542670Y19836980D01*
X1481143Y19893670D01*
X1436579Y19930890D01*
X1407743Y19949685D01*
X1395042Y19952111D01*
X1376506Y19941529D01*
X1338039Y19917084D01*
X1283614Y19881388D01*
X1217202Y19837053D01*
X1142775Y19786689D01*
X1125399Y19774840D01*
X878703Y19606374D01*
X767294Y19656938D01*
X699543Y19686405D01*
X626817Y19716041D01*
X564297Y19739670D01*
X561543Y19740642D01*
X512640Y19758543D01*
X474943Y19773680D01*
X456575Y19782790D01*
X456544Y19782816D01*
X450715Y19799283D01*
X440808Y19839781D01*
X427805Y19899758D01*
X412691Y19974660D01*
X396448Y20059936D01*
X395119Y20067125D01*
X378825Y20154986D01*
X363867Y20234740D01*
X351209Y20301319D01*
X341814Y20349653D01*
X336646Y20374675D01*
X336556Y20375057D01*
X333411Y20385701D01*
X327296Y20393738D01*
X314547Y20399533D01*
X291500Y20403453D01*
X254491Y20405865D01*
X199856Y20407135D01*
X123933Y20407629D01*
X23056Y20407714D01*
X10000Y20407714D01*
X-93910Y20407652D01*
G36*
X-3143595Y15683034D02*
G01*
X-3201021Y15645503D01*
X-3228719Y15611904D01*
X-3250662Y15550936D01*
X-3252405Y15502692D01*
X-3248457Y15438184D01*
X-3099686Y15373066D01*
X-3027349Y15339798D01*
X-2980084Y15313036D01*
X-2955507Y15289856D01*
X-2951237Y15267333D01*
X-2964889Y15242545D01*
X-2979943Y15226114D01*
X-3023746Y15199765D01*
X-3071389Y15197919D01*
X-3115145Y15218454D01*
X-3147289Y15259248D01*
X-3153038Y15273653D01*
X-3180576Y15318644D01*
X-3212258Y15337818D01*
X-3255714Y15354221D01*
X-3255714Y15292034D01*
X-3251872Y15249717D01*
X-3236823Y15214031D01*
X-3205280Y15173057D01*
X-3200592Y15167733D01*
X-3165506Y15131280D01*
X-3135347Y15111717D01*
X-3097615Y15102717D01*
X-3066335Y15099770D01*
X-3010385Y15099035D01*
X-2970555Y15108340D01*
X-2945708Y15122154D01*
X-2906656Y15152533D01*
X-2879625Y15185387D01*
X-2862517Y15226706D01*
X-2853238Y15282479D01*
X-2849693Y15358695D01*
X-2849410Y15397378D01*
X-2850372Y15443753D01*
X-2938007Y15443753D01*
X-2939023Y15418874D01*
X-2941556Y15414800D01*
X-2958274Y15420335D01*
X-2994249Y15434983D01*
X-3042331Y15455810D01*
X-3052386Y15460286D01*
X-3113152Y15491186D01*
X-3146632Y15518343D01*
X-3153990Y15543780D01*
X-3136391Y15569519D01*
X-3121856Y15580891D01*
X-3069410Y15603636D01*
X-3020322Y15599878D01*
X-2979227Y15572116D01*
X-2950758Y15522848D01*
X-2941631Y15483743D01*
X-2938007Y15443753D01*
X-2850372Y15443753D01*
X-2851285Y15487751D01*
X-2858196Y15554616D01*
X-2871884Y15603305D01*
X-2894096Y15639151D01*
X-2926574Y15667487D01*
X-2940733Y15676645D01*
X-3005053Y15700493D01*
X-3075473Y15701994D01*
X-3143595Y15683034D01*
G37*
X-3143595Y15683034D02*
X-3201021Y15645503D01*
X-3228719Y15611904D01*
X-3250662Y15550936D01*
X-3252405Y15502692D01*
X-3248457Y15438184D01*
X-3099686Y15373066D01*
X-3027349Y15339798D01*
X-2980084Y15313036D01*
X-2955507Y15289856D01*
X-2951237Y15267333D01*
X-2964889Y15242545D01*
X-2979943Y15226114D01*
X-3023746Y15199765D01*
X-3071389Y15197919D01*
X-3115145Y15218454D01*
X-3147289Y15259248D01*
X-3153038Y15273653D01*
X-3180576Y15318644D01*
X-3212258Y15337818D01*
X-3255714Y15354221D01*
X-3255714Y15292034D01*
X-3251872Y15249717D01*
X-3236823Y15214031D01*
X-3205280Y15173057D01*
X-3200592Y15167733D01*
X-3165506Y15131280D01*
X-3135347Y15111717D01*
X-3097615Y15102717D01*
X-3066335Y15099770D01*
X-3010385Y15099035D01*
X-2970555Y15108340D01*
X-2945708Y15122154D01*
X-2906656Y15152533D01*
X-2879625Y15185387D01*
X-2862517Y15226706D01*
X-2853238Y15282479D01*
X-2849693Y15358695D01*
X-2849410Y15397378D01*
X-2850372Y15443753D01*
X-2938007Y15443753D01*
X-2939023Y15418874D01*
X-2941556Y15414800D01*
X-2958274Y15420335D01*
X-2994249Y15434983D01*
X-3042331Y15455810D01*
X-3052386Y15460286D01*
X-3113152Y15491186D01*
X-3146632Y15518343D01*
X-3153990Y15543780D01*
X-3136391Y15569519D01*
X-3121856Y15580891D01*
X-3069410Y15603636D01*
X-3020322Y15599878D01*
X-2979227Y15572116D01*
X-2950758Y15522848D01*
X-2941631Y15483743D01*
X-2938007Y15443753D01*
X-2850372Y15443753D01*
X-2851285Y15487751D01*
X-2858196Y15554616D01*
X-2871884Y15603305D01*
X-2894096Y15639151D01*
X-2926574Y15667487D01*
X-2940733Y15676645D01*
X-3005053Y15700493D01*
X-3075473Y15701994D01*
X-3143595Y15683034D01*
G36*
X-2642600Y15691248D02*
G01*
X-2659948Y15683666D01*
X-2701356Y15650872D01*
X-2736765Y15603453D01*
X-2758664Y15552849D01*
X-2762229Y15527902D01*
X-2750279Y15493073D01*
X-2724067Y15474643D01*
X-2695964Y15463484D01*
X-2683095Y15461428D01*
X-2676829Y15476351D01*
X-2664456Y15508825D01*
X-2659028Y15523498D01*
X-2628590Y15574256D01*
X-2584520Y15599573D01*
X-2528010Y15598794D01*
X-2523825Y15597797D01*
X-2493655Y15583493D01*
X-2471476Y15555607D01*
X-2456327Y15510713D01*
X-2447250Y15445385D01*
X-2443286Y15356196D01*
X-2442914Y15308739D01*
X-2442730Y15233929D01*
X-2441522Y15182931D01*
X-2438309Y15150529D01*
X-2432109Y15131505D01*
X-2421940Y15120644D01*
X-2406819Y15112728D01*
X-2405946Y15112330D01*
X-2376828Y15100019D01*
X-2362403Y15095486D01*
X-2360186Y15109191D01*
X-2358289Y15147075D01*
X-2356847Y15204285D01*
X-2355998Y15275973D01*
X-2355829Y15328435D01*
X-2356692Y15429953D01*
X-2360070Y15506968D01*
X-2367142Y15563977D01*
X-2379088Y15605474D01*
X-2397090Y15635957D01*
X-2422327Y15659920D01*
X-2447247Y15676645D01*
X-2507171Y15698903D01*
X-2576911Y15703924D01*
X-2642600Y15691248D01*
G37*
X-2642600Y15691248D02*
X-2659948Y15683666D01*
X-2701356Y15650872D01*
X-2736765Y15603453D01*
X-2758664Y15552849D01*
X-2762229Y15527902D01*
X-2750279Y15493073D01*
X-2724067Y15474643D01*
X-2695964Y15463484D01*
X-2683095Y15461428D01*
X-2676829Y15476351D01*
X-2664456Y15508825D01*
X-2659028Y15523498D01*
X-2628590Y15574256D01*
X-2584520Y15599573D01*
X-2528010Y15598794D01*
X-2523825Y15597797D01*
X-2493655Y15583493D01*
X-2471476Y15555607D01*
X-2456327Y15510713D01*
X-2447250Y15445385D01*
X-2443286Y15356196D01*
X-2442914Y15308739D01*
X-2442730Y15233929D01*
X-2441522Y15182931D01*
X-2438309Y15150529D01*
X-2432109Y15131505D01*
X-2421940Y15120644D01*
X-2406819Y15112728D01*
X-2405946Y15112330D01*
X-2376828Y15100019D01*
X-2362403Y15095486D01*
X-2360186Y15109191D01*
X-2358289Y15147075D01*
X-2356847Y15204285D01*
X-2355998Y15275973D01*
X-2355829Y15328435D01*
X-2356692Y15429953D01*
X-2360070Y15506968D01*
X-2367142Y15563977D01*
X-2379088Y15605474D01*
X-2397090Y15635957D01*
X-2422327Y15659920D01*
X-2447247Y15676645D01*
X-2507171Y15698903D01*
X-2576911Y15703924D01*
X-2642600Y15691248D01*
G36*
X-2134876Y15693665D02*
G01*
X-2176667Y15674656D01*
X-2209469Y15651622D01*
X-2233503Y15625867D01*
X-2250097Y15592642D01*
X-2260577Y15547200D01*
X-2266271Y15484793D01*
X-2268507Y15400673D01*
X-2268743Y15345279D01*
X-2268743Y15129174D01*
X-2231774Y15112330D01*
X-2202656Y15100019D01*
X-2188231Y15095486D01*
X-2185472Y15108975D01*
X-2183282Y15145347D01*
X-2181942Y15198458D01*
X-2181657Y15240628D01*
X-2180434Y15301553D01*
X-2177136Y15349885D01*
X-2172321Y15379482D01*
X-2168496Y15385771D01*
X-2142783Y15379348D01*
X-2102418Y15362875D01*
X-2055679Y15340542D01*
X-2010845Y15316543D01*
X-1976193Y15295070D01*
X-1960002Y15280315D01*
X-1959938Y15280155D01*
X-1961330Y15252848D01*
X-1973818Y15226781D01*
X-1995743Y15205608D01*
X-2027743Y15198526D01*
X-2055092Y15199351D01*
X-2093826Y15199958D01*
X-2114158Y15190884D01*
X-2126369Y15166908D01*
X-2127909Y15162387D01*
X-2133203Y15128194D01*
X-2119047Y15107432D01*
X-2082148Y15097538D01*
X-2042289Y15095708D01*
X-1970562Y15109273D01*
X-1933432Y15128645D01*
X-1887576Y15174155D01*
X-1863256Y15230017D01*
X-1861073Y15289043D01*
X-1881629Y15344047D01*
X-1912549Y15378514D01*
X-1943420Y15397811D01*
X-1991942Y15422241D01*
X-2048485Y15447015D01*
X-2057910Y15450801D01*
X-2120019Y15478209D01*
X-2155822Y15502366D01*
X-2167337Y15526381D01*
X-2156580Y15553365D01*
X-2138114Y15574457D01*
X-2094469Y15600428D01*
X-2046446Y15602376D01*
X-2002406Y15582363D01*
X-1970709Y15542449D01*
X-1966549Y15532152D01*
X-1942327Y15494276D01*
X-1906965Y15466158D01*
X-1862343Y15443083D01*
X-1862343Y15508515D01*
X-1864969Y15548494D01*
X-1876230Y15580003D01*
X-1901199Y15613622D01*
X-1925169Y15639516D01*
X-1962441Y15676183D01*
X-1991401Y15695879D01*
X-2022505Y15703780D01*
X-2057713Y15705086D01*
X-2134876Y15693665D01*
G37*
X-2134876Y15693665D02*
X-2176667Y15674656D01*
X-2209469Y15651622D01*
X-2233503Y15625867D01*
X-2250097Y15592642D01*
X-2260577Y15547200D01*
X-2266271Y15484793D01*
X-2268507Y15400673D01*
X-2268743Y15345279D01*
X-2268743Y15129174D01*
X-2231774Y15112330D01*
X-2202656Y15100019D01*
X-2188231Y15095486D01*
X-2185472Y15108975D01*
X-2183282Y15145347D01*
X-2181942Y15198458D01*
X-2181657Y15240628D01*
X-2180434Y15301553D01*
X-2177136Y15349885D01*
X-2172321Y15379482D01*
X-2168496Y15385771D01*
X-2142783Y15379348D01*
X-2102418Y15362875D01*
X-2055679Y15340542D01*
X-2010845Y15316543D01*
X-1976193Y15295070D01*
X-1960002Y15280315D01*
X-1959938Y15280155D01*
X-1961330Y15252848D01*
X-1973818Y15226781D01*
X-1995743Y15205608D01*
X-2027743Y15198526D01*
X-2055092Y15199351D01*
X-2093826Y15199958D01*
X-2114158Y15190884D01*
X-2126369Y15166908D01*
X-2127909Y15162387D01*
X-2133203Y15128194D01*
X-2119047Y15107432D01*
X-2082148Y15097538D01*
X-2042289Y15095708D01*
X-1970562Y15109273D01*
X-1933432Y15128645D01*
X-1887576Y15174155D01*
X-1863256Y15230017D01*
X-1861073Y15289043D01*
X-1881629Y15344047D01*
X-1912549Y15378514D01*
X-1943420Y15397811D01*
X-1991942Y15422241D01*
X-2048485Y15447015D01*
X-2057910Y15450801D01*
X-2120019Y15478209D01*
X-2155822Y15502366D01*
X-2167337Y15526381D01*
X-2156580Y15553365D01*
X-2138114Y15574457D01*
X-2094469Y15600428D01*
X-2046446Y15602376D01*
X-2002406Y15582363D01*
X-1970709Y15542449D01*
X-1966549Y15532152D01*
X-1942327Y15494276D01*
X-1906965Y15466158D01*
X-1862343Y15443083D01*
X-1862343Y15508515D01*
X-1864969Y15548494D01*
X-1876230Y15580003D01*
X-1901199Y15613622D01*
X-1925169Y15639516D01*
X-1962441Y15676183D01*
X-1991401Y15695879D01*
X-2022505Y15703780D01*
X-2057713Y15705086D01*
X-2134876Y15693665D01*
G36*
X-1769833Y15691337D02*
G01*
X-1772048Y15653150D01*
X-1773784Y15595114D01*
X-1774899Y15521820D01*
X-1775257Y15444945D01*
X-1775257Y15184804D01*
X-1729326Y15138873D01*
X-1697675Y15110571D01*
X-1669890Y15099107D01*
X-1631915Y15099832D01*
X-1616840Y15101679D01*
X-1569726Y15107052D01*
X-1530756Y15110131D01*
X-1521257Y15110415D01*
X-1489233Y15108555D01*
X-1443432Y15103886D01*
X-1425674Y15101679D01*
X-1382057Y15098265D01*
X-1352745Y15105680D01*
X-1323680Y15128573D01*
X-1313188Y15138873D01*
X-1267257Y15184804D01*
X-1267257Y15671398D01*
X-1304226Y15688242D01*
X-1336059Y15700718D01*
X-1354683Y15705086D01*
X-1359458Y15691282D01*
X-1363921Y15652714D01*
X-1367775Y15593644D01*
X-1370722Y15518337D01*
X-1372143Y15454714D01*
X-1376114Y15204343D01*
X-1410759Y15199444D01*
X-1442268Y15202869D01*
X-1457708Y15213959D01*
X-1462023Y15234692D01*
X-1465708Y15278855D01*
X-1468469Y15340854D01*
X-1470012Y15415091D01*
X-1470235Y15453294D01*
X-1470457Y15673217D01*
X-1516166Y15689151D01*
X-1548518Y15699985D01*
X-1566115Y15705038D01*
X-1566623Y15705086D01*
X-1568388Y15691352D01*
X-1570329Y15653270D01*
X-1572282Y15595518D01*
X-1574084Y15522773D01*
X-1575343Y15454714D01*
X-1579314Y15204343D01*
X-1666400Y15204343D01*
X-1670396Y15432760D01*
X-1674392Y15661178D01*
X-1716847Y15683132D01*
X-1748192Y15698207D01*
X-1766744Y15705049D01*
X-1767279Y15705086D01*
X-1769833Y15691337D01*
G37*
X-1769833Y15691337D02*
X-1772048Y15653150D01*
X-1773784Y15595114D01*
X-1774899Y15521820D01*
X-1775257Y15444945D01*
X-1775257Y15184804D01*
X-1729326Y15138873D01*
X-1697675Y15110571D01*
X-1669890Y15099107D01*
X-1631915Y15099832D01*
X-1616840Y15101679D01*
X-1569726Y15107052D01*
X-1530756Y15110131D01*
X-1521257Y15110415D01*
X-1489233Y15108555D01*
X-1443432Y15103886D01*
X-1425674Y15101679D01*
X-1382057Y15098265D01*
X-1352745Y15105680D01*
X-1323680Y15128573D01*
X-1313188Y15138873D01*
X-1267257Y15184804D01*
X-1267257Y15671398D01*
X-1304226Y15688242D01*
X-1336059Y15700718D01*
X-1354683Y15705086D01*
X-1359458Y15691282D01*
X-1363921Y15652714D01*
X-1367775Y15593644D01*
X-1370722Y15518337D01*
X-1372143Y15454714D01*
X-1376114Y15204343D01*
X-1410759Y15199444D01*
X-1442268Y15202869D01*
X-1457708Y15213959D01*
X-1462023Y15234692D01*
X-1465708Y15278855D01*
X-1468469Y15340854D01*
X-1470012Y15415091D01*
X-1470235Y15453294D01*
X-1470457Y15673217D01*
X-1516166Y15689151D01*
X-1548518Y15699985D01*
X-1566115Y15705038D01*
X-1566623Y15705086D01*
X-1568388Y15691352D01*
X-1570329Y15653270D01*
X-1572282Y15595518D01*
X-1574084Y15522773D01*
X-1575343Y15454714D01*
X-1579314Y15204343D01*
X-1666400Y15204343D01*
X-1670396Y15432760D01*
X-1674392Y15661178D01*
X-1716847Y15683132D01*
X-1748192Y15698207D01*
X-1766744Y15705049D01*
X-1767279Y15705086D01*
X-1769833Y15691337D01*
G36*
X-1180117Y15584642D02*
G01*
X-1179933Y15476163D01*
X-1179219Y15392713D01*
X-1177675Y15330296D01*
X-1175001Y15284915D01*
X-1170894Y15252571D01*
X-1165055Y15229267D01*
X-1157182Y15211005D01*
X-1151221Y15200582D01*
X-1101855Y15144055D01*
X-1039264Y15108623D01*
X-970013Y15095910D01*
X-900668Y15107537D01*
X-859375Y15128432D01*
X-816025Y15164578D01*
X-786481Y15208724D01*
X-768655Y15266538D01*
X-760463Y15343687D01*
X-759302Y15400286D01*
X-759458Y15404353D01*
X-860857Y15404353D01*
X-861476Y15339450D01*
X-864314Y15296486D01*
X-870840Y15268378D01*
X-882523Y15248047D01*
X-896483Y15232712D01*
X-943365Y15203110D01*
X-993701Y15200581D01*
X-1041276Y15225295D01*
X-1044979Y15228644D01*
X-1060783Y15246065D01*
X-1070693Y15266791D01*
X-1076058Y15297638D01*
X-1078228Y15345423D01*
X-1078571Y15398252D01*
X-1077827Y15464619D01*
X-1074748Y15508894D01*
X-1068061Y15537991D01*
X-1056496Y15558827D01*
X-1047013Y15569893D01*
X-1002960Y15597802D01*
X-952224Y15601157D01*
X-903796Y15579841D01*
X-894450Y15571927D01*
X-878540Y15554353D01*
X-868610Y15533413D01*
X-863278Y15502218D01*
X-861163Y15453878D01*
X-860857Y15404353D01*
X-759458Y15404353D01*
X-762810Y15491432D01*
X-774726Y15559914D01*
X-797135Y15611400D01*
X-832124Y15651557D01*
X-859375Y15672139D01*
X-908907Y15694375D01*
X-966316Y15704696D01*
X-1019682Y15701933D01*
X-1049543Y15690788D01*
X-1061261Y15687617D01*
X-1069037Y15699443D01*
X-1074465Y15731134D01*
X-1078571Y15779407D01*
X-1083067Y15833171D01*
X-1089313Y15865518D01*
X-1100676Y15884015D01*
X-1120528Y15896230D01*
X-1133000Y15901638D01*
X-1180171Y15921399D01*
X-1180117Y15584642D01*
G37*
X-1180117Y15584642D02*
X-1179933Y15476163D01*
X-1179219Y15392713D01*
X-1177675Y15330296D01*
X-1175001Y15284915D01*
X-1170894Y15252571D01*
X-1165055Y15229267D01*
X-1157182Y15211005D01*
X-1151221Y15200582D01*
X-1101855Y15144055D01*
X-1039264Y15108623D01*
X-970013Y15095910D01*
X-900668Y15107537D01*
X-859375Y15128432D01*
X-816025Y15164578D01*
X-786481Y15208724D01*
X-768655Y15266538D01*
X-760463Y15343687D01*
X-759302Y15400286D01*
X-759458Y15404353D01*
X-860857Y15404353D01*
X-861476Y15339450D01*
X-864314Y15296486D01*
X-870840Y15268378D01*
X-882523Y15248047D01*
X-896483Y15232712D01*
X-943365Y15203110D01*
X-993701Y15200581D01*
X-1041276Y15225295D01*
X-1044979Y15228644D01*
X-1060783Y15246065D01*
X-1070693Y15266791D01*
X-1076058Y15297638D01*
X-1078228Y15345423D01*
X-1078571Y15398252D01*
X-1077827Y15464619D01*
X-1074748Y15508894D01*
X-1068061Y15537991D01*
X-1056496Y15558827D01*
X-1047013Y15569893D01*
X-1002960Y15597802D01*
X-952224Y15601157D01*
X-903796Y15579841D01*
X-894450Y15571927D01*
X-878540Y15554353D01*
X-868610Y15533413D01*
X-863278Y15502218D01*
X-861163Y15453878D01*
X-860857Y15404353D01*
X-759458Y15404353D01*
X-762810Y15491432D01*
X-774726Y15559914D01*
X-797135Y15611400D01*
X-832124Y15651557D01*
X-859375Y15672139D01*
X-908907Y15694375D01*
X-966316Y15704696D01*
X-1019682Y15701933D01*
X-1049543Y15690788D01*
X-1061261Y15687617D01*
X-1069037Y15699443D01*
X-1074465Y15731134D01*
X-1078571Y15779407D01*
X-1083067Y15833171D01*
X-1089313Y15865518D01*
X-1100676Y15884015D01*
X-1120528Y15896230D01*
X-1133000Y15901638D01*
X-1180171Y15921399D01*
X-1180117Y15584642D01*
G36*
X-519926Y15700245D02*
G01*
X-585858Y15675916D01*
X-639273Y15632883D01*
X-660164Y15602591D01*
X-682939Y15547006D01*
X-682466Y15506814D01*
X-658562Y15479783D01*
X-649717Y15475187D01*
X-611530Y15460856D01*
X-592028Y15464528D01*
X-585422Y15488593D01*
X-585086Y15501886D01*
X-572992Y15550790D01*
X-541471Y15585001D01*
X-497659Y15601524D01*
X-448695Y15597366D01*
X-408894Y15575773D01*
X-395450Y15563456D01*
X-385921Y15548513D01*
X-379485Y15525925D01*
X-375317Y15490672D01*
X-372597Y15437734D01*
X-370502Y15362093D01*
X-369960Y15338143D01*
X-367981Y15256210D01*
X-365731Y15198545D01*
X-362357Y15160392D01*
X-357006Y15136996D01*
X-348824Y15123602D01*
X-336959Y15115455D01*
X-329362Y15111856D01*
X-297102Y15099548D01*
X-278111Y15095486D01*
X-271836Y15109052D01*
X-268006Y15150066D01*
X-266600Y15219001D01*
X-267598Y15316331D01*
X-267908Y15331343D01*
X-270101Y15420141D01*
X-272693Y15484981D01*
X-276382Y15530933D01*
X-281864Y15563065D01*
X-289835Y15586447D01*
X-300993Y15606148D01*
X-306830Y15614590D01*
X-340296Y15651943D01*
X-377727Y15680997D01*
X-382309Y15683533D01*
X-449426Y15703557D01*
X-519926Y15700245D01*
G37*
X-519926Y15700245D02*
X-585858Y15675916D01*
X-639273Y15632883D01*
X-660164Y15602591D01*
X-682939Y15547006D01*
X-682466Y15506814D01*
X-658562Y15479783D01*
X-649717Y15475187D01*
X-611530Y15460856D01*
X-592028Y15464528D01*
X-585422Y15488593D01*
X-585086Y15501886D01*
X-572992Y15550790D01*
X-541471Y15585001D01*
X-497659Y15601524D01*
X-448695Y15597366D01*
X-408894Y15575773D01*
X-395450Y15563456D01*
X-385921Y15548513D01*
X-379485Y15525925D01*
X-375317Y15490672D01*
X-372597Y15437734D01*
X-370502Y15362093D01*
X-369960Y15338143D01*
X-367981Y15256210D01*
X-365731Y15198545D01*
X-362357Y15160392D01*
X-357006Y15136996D01*
X-348824Y15123602D01*
X-336959Y15115455D01*
X-329362Y15111856D01*
X-297102Y15099548D01*
X-278111Y15095486D01*
X-271836Y15109052D01*
X-268006Y15150066D01*
X-266600Y15219001D01*
X-267598Y15316331D01*
X-267908Y15331343D01*
X-270101Y15420141D01*
X-272693Y15484981D01*
X-276382Y15530933D01*
X-281864Y15563065D01*
X-289835Y15586447D01*
X-300993Y15606148D01*
X-306830Y15614590D01*
X-340296Y15651943D01*
X-377727Y15680997D01*
X-382309Y15683533D01*
X-449426Y15703557D01*
X-519926Y15700245D01*
G36*
X-29744Y15699032D02*
G01*
X-86616Y15677913D01*
X-87267Y15677507D01*
X-122440Y15651620D01*
X-148407Y15621367D01*
X-166670Y15581942D01*
X-178732Y15528538D01*
X-186096Y15456349D01*
X-190264Y15360568D01*
X-190629Y15346922D01*
X-195876Y15141158D01*
X-151716Y15118322D01*
X-119763Y15102890D01*
X-100470Y15095577D01*
X-99578Y15095486D01*
X-96239Y15108978D01*
X-93587Y15145374D01*
X-91956Y15198548D01*
X-91600Y15241607D01*
X-91592Y15311359D01*
X-88403Y15355163D01*
X-77288Y15376056D01*
X-53501Y15377075D01*
X-12296Y15361259D01*
X49914Y15332185D01*
X95659Y15308037D01*
X119187Y15287087D01*
X126104Y15264253D01*
X126114Y15263123D01*
X114701Y15223788D01*
X80908Y15202538D01*
X29191Y15199461D01*
X-8061Y15199994D01*
X-27703Y15189265D01*
X-39952Y15163495D01*
X-47002Y15130663D01*
X-36842Y15112034D01*
X-33017Y15109368D01*
X2999Y15098660D01*
X53434Y15097144D01*
X105374Y15104241D01*
X142178Y15117212D01*
X193062Y15160415D01*
X221986Y15220554D01*
X227714Y15267538D01*
X223343Y15309918D01*
X207525Y15344512D01*
X176203Y15375237D01*
X125322Y15406010D01*
X50824Y15440748D01*
X46286Y15442712D01*
X-20821Y15473713D01*
X-62232Y15499138D01*
X-79981Y15521986D01*
X-76107Y15545255D01*
X-52643Y15571944D01*
X-45627Y15578086D01*
X1370Y15601900D01*
X50067Y15600897D01*
X92478Y15577549D01*
X120616Y15534325D01*
X123231Y15525840D01*
X148692Y15484692D01*
X180999Y15464872D01*
X227714Y15445230D01*
X227714Y15496050D01*
X213504Y15569918D01*
X171325Y15637673D01*
X149376Y15660339D01*
X99483Y15689431D01*
X36033Y15702600D01*
X-29744Y15699032D01*
G37*
X-29744Y15699032D02*
X-86616Y15677913D01*
X-87267Y15677507D01*
X-122440Y15651620D01*
X-148407Y15621367D01*
X-166670Y15581942D01*
X-178732Y15528538D01*
X-186096Y15456349D01*
X-190264Y15360568D01*
X-190629Y15346922D01*
X-195876Y15141158D01*
X-151716Y15118322D01*
X-119763Y15102890D01*
X-100470Y15095577D01*
X-99578Y15095486D01*
X-96239Y15108978D01*
X-93587Y15145374D01*
X-91956Y15198548D01*
X-91600Y15241607D01*
X-91592Y15311359D01*
X-88403Y15355163D01*
X-77288Y15376056D01*
X-53501Y15377075D01*
X-12296Y15361259D01*
X49914Y15332185D01*
X95659Y15308037D01*
X119187Y15287087D01*
X126104Y15264253D01*
X126114Y15263123D01*
X114701Y15223788D01*
X80908Y15202538D01*
X29191Y15199461D01*
X-8061Y15199994D01*
X-27703Y15189265D01*
X-39952Y15163495D01*
X-47002Y15130663D01*
X-36842Y15112034D01*
X-33017Y15109368D01*
X2999Y15098660D01*
X53434Y15097144D01*
X105374Y15104241D01*
X142178Y15117212D01*
X193062Y15160415D01*
X221986Y15220554D01*
X227714Y15267538D01*
X223343Y15309918D01*
X207525Y15344512D01*
X176203Y15375237D01*
X125322Y15406010D01*
X50824Y15440748D01*
X46286Y15442712D01*
X-20821Y15473713D01*
X-62232Y15499138D01*
X-79981Y15521986D01*
X-76107Y15545255D01*
X-52643Y15571944D01*
X-45627Y15578086D01*
X1370Y15601900D01*
X50067Y15600897D01*
X92478Y15577549D01*
X120616Y15534325D01*
X123231Y15525840D01*
X148692Y15484692D01*
X180999Y15464872D01*
X227714Y15445230D01*
X227714Y15496050D01*
X213504Y15569918D01*
X171325Y15637673D01*
X149376Y15660339D01*
X99483Y15689431D01*
X36033Y15702600D01*
X-29744Y15699032D01*
G36*
X634114Y15798711D02*
G01*
X629861Y15739387D01*
X624975Y15704428D01*
X618205Y15689180D01*
X608298Y15688985D01*
X605086Y15690805D01*
X562356Y15703985D01*
X506773Y15703215D01*
X450263Y15689667D01*
X414918Y15672139D01*
X378679Y15644139D01*
X352187Y15612451D01*
X334001Y15572187D01*
X322678Y15518457D01*
X316778Y15446374D01*
X314857Y15351049D01*
X314823Y15332763D01*
X314800Y15127354D01*
X360509Y15111420D01*
X392973Y15100580D01*
X410785Y15095532D01*
X411309Y15095486D01*
X413063Y15109172D01*
X414556Y15146924D01*
X415674Y15203776D01*
X416303Y15274766D01*
X416400Y15317927D01*
X416602Y15403027D01*
X417642Y15464019D01*
X420169Y15505823D01*
X424836Y15533358D01*
X432293Y15551544D01*
X443189Y15565302D01*
X449993Y15571927D01*
X496728Y15598625D01*
X547728Y15600625D01*
X593999Y15578045D01*
X602556Y15569893D01*
X615107Y15554564D01*
X623812Y15536382D01*
X629369Y15510091D01*
X632474Y15470438D01*
X633824Y15412168D01*
X634114Y15331827D01*
X634114Y15127354D01*
X679823Y15111420D01*
X712287Y15100580D01*
X730099Y15095532D01*
X730623Y15095486D01*
X731963Y15109377D01*
X733172Y15148561D01*
X734199Y15209300D01*
X734998Y15287859D01*
X735519Y15380502D01*
X735714Y15483491D01*
X735714Y15880658D01*
X688543Y15900556D01*
X641371Y15920453D01*
X634114Y15798711D01*
G37*
X634114Y15798711D02*
X629861Y15739387D01*
X624975Y15704428D01*
X618205Y15689180D01*
X608298Y15688985D01*
X605086Y15690805D01*
X562356Y15703985D01*
X506773Y15703215D01*
X450263Y15689667D01*
X414918Y15672139D01*
X378679Y15644139D01*
X352187Y15612451D01*
X334001Y15572187D01*
X322678Y15518457D01*
X316778Y15446374D01*
X314857Y15351049D01*
X314823Y15332763D01*
X314800Y15127354D01*
X360509Y15111420D01*
X392973Y15100580D01*
X410785Y15095532D01*
X411309Y15095486D01*
X413063Y15109172D01*
X414556Y15146924D01*
X415674Y15203776D01*
X416303Y15274766D01*
X416400Y15317927D01*
X416602Y15403027D01*
X417642Y15464019D01*
X420169Y15505823D01*
X424836Y15533358D01*
X432293Y15551544D01*
X443189Y15565302D01*
X449993Y15571927D01*
X496728Y15598625D01*
X547728Y15600625D01*
X593999Y15578045D01*
X602556Y15569893D01*
X615107Y15554564D01*
X623812Y15536382D01*
X629369Y15510091D01*
X632474Y15470438D01*
X633824Y15412168D01*
X634114Y15331827D01*
X634114Y15127354D01*
X679823Y15111420D01*
X712287Y15100580D01*
X730099Y15095532D01*
X730623Y15095486D01*
X731963Y15109377D01*
X733172Y15148561D01*
X734199Y15209300D01*
X734998Y15287859D01*
X735519Y15380502D01*
X735714Y15483491D01*
X735714Y15880658D01*
X688543Y15900556D01*
X641371Y15920453D01*
X634114Y15798711D01*
G36*
X1841697Y15718761D02*
G01*
X1784473Y15680265D01*
X1740251Y15624665D01*
X1713833Y15553914D01*
X1708490Y15501838D01*
X1709097Y15480107D01*
X1714178Y15463469D01*
X1728145Y15448563D01*
X1755411Y15432027D01*
X1800388Y15410502D01*
X1867489Y15380626D01*
X1867829Y15380476D01*
X1929593Y15352187D01*
X1980241Y15327067D01*
X2014596Y15307821D01*
X2027482Y15297152D01*
X2027486Y15297066D01*
X2016128Y15273834D01*
X1989569Y15248226D01*
X1959077Y15229779D01*
X1943630Y15226114D01*
X1901485Y15238788D01*
X1865192Y15270529D01*
X1847483Y15305428D01*
X1830448Y15331155D01*
X1797078Y15360454D01*
X1757851Y15385765D01*
X1723244Y15399529D01*
X1716007Y15400286D01*
X1707861Y15387840D01*
X1707370Y15356028D01*
X1713357Y15313134D01*
X1724643Y15267442D01*
X1740050Y15227239D01*
X1740829Y15225678D01*
X1787196Y15160938D01*
X1847289Y15116903D01*
X1915535Y15095289D01*
X1986362Y15097815D01*
X2054196Y15126196D01*
X2057212Y15128192D01*
X2110573Y15176552D01*
X2145660Y15239648D01*
X2165078Y15322613D01*
X2167684Y15345922D01*
X2172299Y15455945D01*
X2166767Y15507252D01*
X2027486Y15507252D01*
X2025676Y15475247D01*
X2015778Y15465907D01*
X1991102Y15472895D01*
X1952205Y15489413D01*
X1908725Y15510119D01*
X1907644Y15510667D01*
X1870791Y15530051D01*
X1856000Y15542987D01*
X1859647Y15556549D01*
X1875005Y15574368D01*
X1914077Y15600155D01*
X1956154Y15602050D01*
X1993897Y15583283D01*
X2019966Y15547085D01*
X2027486Y15507252D01*
X2166767Y15507252D01*
X2162806Y15543973D01*
X2138450Y15613788D01*
X2104544Y15662698D01*
X2043347Y15712122D01*
X1975937Y15736641D01*
X1907120Y15738203D01*
X1841697Y15718761D01*
G37*
X1841697Y15718761D02*
X1784473Y15680265D01*
X1740251Y15624665D01*
X1713833Y15553914D01*
X1708490Y15501838D01*
X1709097Y15480107D01*
X1714178Y15463469D01*
X1728145Y15448563D01*
X1755411Y15432027D01*
X1800388Y15410502D01*
X1867489Y15380626D01*
X1867829Y15380476D01*
X1929593Y15352187D01*
X1980241Y15327067D01*
X2014596Y15307821D01*
X2027482Y15297152D01*
X2027486Y15297066D01*
X2016128Y15273834D01*
X1989569Y15248226D01*
X1959077Y15229779D01*
X1943630Y15226114D01*
X1901485Y15238788D01*
X1865192Y15270529D01*
X1847483Y15305428D01*
X1830448Y15331155D01*
X1797078Y15360454D01*
X1757851Y15385765D01*
X1723244Y15399529D01*
X1716007Y15400286D01*
X1707861Y15387840D01*
X1707370Y15356028D01*
X1713357Y15313134D01*
X1724643Y15267442D01*
X1740050Y15227239D01*
X1740829Y15225678D01*
X1787196Y15160938D01*
X1847289Y15116903D01*
X1915535Y15095289D01*
X1986362Y15097815D01*
X2054196Y15126196D01*
X2057212Y15128192D01*
X2110573Y15176552D01*
X2145660Y15239648D01*
X2165078Y15322613D01*
X2167684Y15345922D01*
X2172299Y15455945D01*
X2166767Y15507252D01*
X2027486Y15507252D01*
X2025676Y15475247D01*
X2015778Y15465907D01*
X1991102Y15472895D01*
X1952205Y15489413D01*
X1908725Y15510119D01*
X1907644Y15510667D01*
X1870791Y15530051D01*
X1856000Y15542987D01*
X1859647Y15556549D01*
X1875005Y15574368D01*
X1914077Y15600155D01*
X1956154Y15602050D01*
X1993897Y15583283D01*
X2019966Y15547085D01*
X2027486Y15507252D01*
X2166767Y15507252D01*
X2162806Y15543973D01*
X2138450Y15613788D01*
X2104544Y15662698D01*
X2043347Y15712122D01*
X1975937Y15736641D01*
X1907120Y15738203D01*
X1841697Y15718761D01*
G36*
X2968885Y15728038D02*
G01*
X2900855Y15692267D01*
X2850649Y15634699D01*
X2832815Y15597688D01*
X2818937Y15542118D01*
X2811833Y15471904D01*
X2811160Y15395273D01*
X2816573Y15320448D01*
X2827730Y15255658D01*
X2844286Y15209127D01*
X2849374Y15201113D01*
X2909645Y15141293D01*
X2981231Y15105465D01*
X3058908Y15094980D01*
X3137452Y15111190D01*
X3159311Y15120908D01*
X3201878Y15150857D01*
X3239237Y15190567D01*
X3242768Y15195603D01*
X3257119Y15219876D01*
X3266606Y15245822D01*
X3272210Y15279978D01*
X3274914Y15328881D01*
X3275701Y15399065D01*
X3275714Y15414800D01*
X3275678Y15419808D01*
X3130571Y15419808D01*
X3129727Y15353570D01*
X3126404Y15309614D01*
X3119417Y15281221D01*
X3107584Y15261675D01*
X3101543Y15255143D01*
X3066814Y15230320D01*
X3033097Y15231452D01*
X2999005Y15252984D01*
X2978671Y15275971D01*
X2966629Y15309522D01*
X2959866Y15362431D01*
X2959402Y15368601D01*
X2958248Y15464487D01*
X2970312Y15535701D01*
X2995430Y15581806D01*
X3033440Y15602365D01*
X3047008Y15603486D01*
X3082636Y15597848D01*
X3107006Y15578314D01*
X3121907Y15540958D01*
X3129125Y15481850D01*
X3130571Y15419808D01*
X3275678Y15419808D01*
X3275174Y15489587D01*
X3272904Y15541841D01*
X3267932Y15578051D01*
X3259287Y15604701D01*
X3245995Y15628278D01*
X3243057Y15632662D01*
X3193687Y15691751D01*
X3139891Y15726053D01*
X3074398Y15739669D01*
X3052158Y15740335D01*
X2968885Y15728038D01*
G37*
X2968885Y15728038D02*
X2900855Y15692267D01*
X2850649Y15634699D01*
X2832815Y15597688D01*
X2818937Y15542118D01*
X2811833Y15471904D01*
X2811160Y15395273D01*
X2816573Y15320448D01*
X2827730Y15255658D01*
X2844286Y15209127D01*
X2849374Y15201113D01*
X2909645Y15141293D01*
X2981231Y15105465D01*
X3058908Y15094980D01*
X3137452Y15111190D01*
X3159311Y15120908D01*
X3201878Y15150857D01*
X3239237Y15190567D01*
X3242768Y15195603D01*
X3257119Y15219876D01*
X3266606Y15245822D01*
X3272210Y15279978D01*
X3274914Y15328881D01*
X3275701Y15399065D01*
X3275714Y15414800D01*
X3275678Y15419808D01*
X3130571Y15419808D01*
X3129727Y15353570D01*
X3126404Y15309614D01*
X3119417Y15281221D01*
X3107584Y15261675D01*
X3101543Y15255143D01*
X3066814Y15230320D01*
X3033097Y15231452D01*
X2999005Y15252984D01*
X2978671Y15275971D01*
X2966629Y15309522D01*
X2959866Y15362431D01*
X2959402Y15368601D01*
X2958248Y15464487D01*
X2970312Y15535701D01*
X2995430Y15581806D01*
X3033440Y15602365D01*
X3047008Y15603486D01*
X3082636Y15597848D01*
X3107006Y15578314D01*
X3121907Y15540958D01*
X3129125Y15481850D01*
X3130571Y15419808D01*
X3275678Y15419808D01*
X3275174Y15489587D01*
X3272904Y15541841D01*
X3267932Y15578051D01*
X3259287Y15604701D01*
X3245995Y15628278D01*
X3243057Y15632662D01*
X3193687Y15691751D01*
X3139891Y15726053D01*
X3074398Y15739669D01*
X3052158Y15740335D01*
X2968885Y15728038D01*
G36*
X1293907Y15722220D02*
G01*
X1247328Y15695277D01*
X1214943Y15668534D01*
X1191258Y15640516D01*
X1174941Y15606252D01*
X1164661Y15560773D01*
X1159086Y15499108D01*
X1156884Y15416289D01*
X1156629Y15356754D01*
X1156629Y15137609D01*
X1218314Y15109956D01*
X1280000Y15082303D01*
X1287257Y15322330D01*
X1290256Y15411972D01*
X1293402Y15477038D01*
X1297299Y15521974D01*
X1302553Y15551230D01*
X1309769Y15569252D01*
X1319550Y15580489D01*
X1322688Y15582921D01*
X1370239Y15601917D01*
X1418303Y15594400D01*
X1446914Y15574457D01*
X1458553Y15560325D01*
X1466609Y15541780D01*
X1471729Y15513666D01*
X1474559Y15470827D01*
X1475744Y15408105D01*
X1475943Y15342739D01*
X1475982Y15260732D01*
X1477386Y15202684D01*
X1482086Y15163535D01*
X1492013Y15138220D01*
X1509097Y15121677D01*
X1535268Y15108844D01*
X1570225Y15095509D01*
X1608404Y15080993D01*
X1603859Y15338611D01*
X1602029Y15431481D01*
X1599888Y15500111D01*
X1596819Y15549289D01*
X1592206Y15583802D01*
X1585432Y15608438D01*
X1575881Y15627984D01*
X1564366Y15645230D01*
X1508810Y15700320D01*
X1441020Y15732178D01*
X1367287Y15739809D01*
X1293907Y15722220D01*
G37*
X1293907Y15722220D02*
X1247328Y15695277D01*
X1214943Y15668534D01*
X1191258Y15640516D01*
X1174941Y15606252D01*
X1164661Y15560773D01*
X1159086Y15499108D01*
X1156884Y15416289D01*
X1156629Y15356754D01*
X1156629Y15137609D01*
X1218314Y15109956D01*
X1280000Y15082303D01*
X1287257Y15322330D01*
X1290256Y15411972D01*
X1293402Y15477038D01*
X1297299Y15521974D01*
X1302553Y15551230D01*
X1309769Y15569252D01*
X1319550Y15580489D01*
X1322688Y15582921D01*
X1370239Y15601917D01*
X1418303Y15594400D01*
X1446914Y15574457D01*
X1458553Y15560325D01*
X1466609Y15541780D01*
X1471729Y15513666D01*
X1474559Y15470827D01*
X1475744Y15408105D01*
X1475943Y15342739D01*
X1475982Y15260732D01*
X1477386Y15202684D01*
X1482086Y15163535D01*
X1492013Y15138220D01*
X1509097Y15121677D01*
X1535268Y15108844D01*
X1570225Y15095509D01*
X1608404Y15080993D01*
X1603859Y15338611D01*
X1602029Y15431481D01*
X1599888Y15500111D01*
X1596819Y15549289D01*
X1592206Y15583802D01*
X1585432Y15608438D01*
X1575881Y15627984D01*
X1564366Y15645230D01*
X1508810Y15700320D01*
X1441020Y15732178D01*
X1367287Y15739809D01*
X1293907Y15722220D01*
G36*
X2410256Y15730082D02*
G01*
X2354799Y15702432D01*
X2305852Y15651520D01*
X2292371Y15632662D01*
X2277686Y15607985D01*
X2268158Y15581184D01*
X2262707Y15545413D01*
X2260253Y15493831D01*
X2259714Y15425733D01*
X2262148Y15332412D01*
X2270606Y15262343D01*
X2286826Y15210069D01*
X2312546Y15170131D01*
X2349503Y15137071D01*
X2352218Y15135114D01*
X2388640Y15115092D01*
X2432498Y15105185D01*
X2488276Y15102743D01*
X2578952Y15102743D01*
X2578990Y15014717D01*
X2579834Y14965692D01*
X2584976Y14936935D01*
X2598413Y14919689D01*
X2624142Y14905192D01*
X2630321Y14902231D01*
X2659236Y14888352D01*
X2681624Y14879586D01*
X2698271Y14878829D01*
X2709964Y14888977D01*
X2717490Y14912927D01*
X2721634Y14953574D01*
X2723185Y15013814D01*
X2722929Y15096545D01*
X2721651Y15204661D01*
X2721252Y15237000D01*
X2719815Y15348476D01*
X2718528Y15421397D01*
X2579029Y15421397D01*
X2578245Y15359501D01*
X2574760Y15319003D01*
X2566876Y15292292D01*
X2552895Y15271756D01*
X2543403Y15261740D01*
X2504596Y15232433D01*
X2470237Y15230048D01*
X2434784Y15254250D01*
X2433886Y15255143D01*
X2419461Y15273847D01*
X2410687Y15299268D01*
X2406261Y15338416D01*
X2404882Y15398303D01*
X2404857Y15411570D01*
X2408188Y15494099D01*
X2419031Y15551309D01*
X2438660Y15586234D01*
X2468350Y15601906D01*
X2485509Y15603486D01*
X2526234Y15596074D01*
X2554168Y15571670D01*
X2570983Y15527020D01*
X2578350Y15458870D01*
X2579029Y15421397D01*
X2718528Y15421397D01*
X2718292Y15434755D01*
X2716323Y15499667D01*
X2713550Y15547042D01*
X2709612Y15580710D01*
X2704151Y15604502D01*
X2696808Y15622247D01*
X2687223Y15637776D01*
X2683113Y15643619D01*
X2628595Y15698815D01*
X2559664Y15730110D01*
X2479928Y15738835D01*
X2410256Y15730082D01*
G37*
X2410256Y15730082D02*
X2354799Y15702432D01*
X2305852Y15651520D01*
X2292371Y15632662D01*
X2277686Y15607985D01*
X2268158Y15581184D01*
X2262707Y15545413D01*
X2260253Y15493831D01*
X2259714Y15425733D01*
X2262148Y15332412D01*
X2270606Y15262343D01*
X2286826Y15210069D01*
X2312546Y15170131D01*
X2349503Y15137071D01*
X2352218Y15135114D01*
X2388640Y15115092D01*
X2432498Y15105185D01*
X2488276Y15102743D01*
X2578952Y15102743D01*
X2578990Y15014717D01*
X2579834Y14965692D01*
X2584976Y14936935D01*
X2598413Y14919689D01*
X2624142Y14905192D01*
X2630321Y14902231D01*
X2659236Y14888352D01*
X2681624Y14879586D01*
X2698271Y14878829D01*
X2709964Y14888977D01*
X2717490Y14912927D01*
X2721634Y14953574D01*
X2723185Y15013814D01*
X2722929Y15096545D01*
X2721651Y15204661D01*
X2721252Y15237000D01*
X2719815Y15348476D01*
X2718528Y15421397D01*
X2579029Y15421397D01*
X2578245Y15359501D01*
X2574760Y15319003D01*
X2566876Y15292292D01*
X2552895Y15271756D01*
X2543403Y15261740D01*
X2504596Y15232433D01*
X2470237Y15230048D01*
X2434784Y15254250D01*
X2433886Y15255143D01*
X2419461Y15273847D01*
X2410687Y15299268D01*
X2406261Y15338416D01*
X2404882Y15398303D01*
X2404857Y15411570D01*
X2408188Y15494099D01*
X2419031Y15551309D01*
X2438660Y15586234D01*
X2468350Y15601906D01*
X2485509Y15603486D01*
X2526234Y15596074D01*
X2554168Y15571670D01*
X2570983Y15527020D01*
X2578350Y15458870D01*
X2579029Y15421397D01*
X2718528Y15421397D01*
X2718292Y15434755D01*
X2716323Y15499667D01*
X2713550Y15547042D01*
X2709612Y15580710D01*
X2704151Y15604502D01*
X2696808Y15622247D01*
X2687223Y15637776D01*
X2683113Y15643619D01*
X2628595Y15698815D01*
X2559664Y15730110D01*
X2479928Y15738835D01*
X2410256Y15730082D01*
D17*
X-7350000Y18070000D02*
X-6750000Y18070000D01*
X-8050000Y20170000D02*
X-8050000Y18770000D01*
X-6750000Y20870000D02*
X-7350000Y20870000D01*
X-6050000Y18770000D02*
X-6050000Y20170000D01*
X-6750000Y18070000D02*
G75*
G03*
X-6050000Y18770000I0J700000D01*
G01*
X-8050000Y18770000D02*
G75*
G03*
X-7350000Y18070000I700000J0D01*
G01*
X-7350000Y20870000D02*
G75*
G03*
X-8050000Y20170000I0J-700000D01*
G01*
X-6050000Y20170000D02*
G75*
G03*
X-6750000Y20870000I-700000J0D01*
G01*
X-2590000Y7000000D02*
X-3990000Y7000000D01*
X-4690000Y6300000D02*
X-4690000Y5700000D01*
X-3990000Y5000000D02*
X-2590000Y5000000D01*
X-1890000Y5700000D02*
X-1890000Y6300000D01*
X-3990000Y7000000D02*
G75*
G03*
X-4690000Y6300000I0J-700000D01*
G01*
X-4690000Y5700000D02*
G75*
G03*
X-3990000Y5000000I700000J0D01*
G01*
X-2590000Y5000000D02*
G75*
G03*
X-1890000Y5700000I0J700000D01*
G01*
X-1890000Y6300000D02*
G75*
G03*
X-2590000Y7000000I-700000J0D01*
G01*
X-7940000Y-3500000D02*
X-7940000Y-4100000D01*
X-5840000Y-2800000D02*
X-7240000Y-2800000D01*
X-5140000Y-4100000D02*
X-5140000Y-3500000D01*
X-7240000Y-4800000D02*
X-5840000Y-4800000D01*
X-7940000Y-4100000D02*
G75*
G03*
X-7240000Y-4800000I700000J0D01*
G01*
X-7240000Y-2800000D02*
G75*
G03*
X-7940000Y-3500000I0J-700000D01*
G01*
X-5140000Y-3500000D02*
G75*
G03*
X-5840000Y-2800000I-700000J0D01*
G01*
X-5840000Y-4800000D02*
G75*
G03*
X-5140000Y-4100000I0J700000D01*
G01*
X-2590000Y4500000D02*
X-3990000Y4500000D01*
X-4690000Y3800000D02*
X-4690000Y3200000D01*
X-3990000Y2500000D02*
X-2590000Y2500000D01*
X-1890000Y3200000D02*
X-1890000Y3800000D01*
X-3990000Y4500000D02*
G75*
G03*
X-4690000Y3800000I0J-700000D01*
G01*
X-4690000Y3200000D02*
G75*
G03*
X-3990000Y2500000I700000J0D01*
G01*
X-2590000Y2500000D02*
G75*
G03*
X-1890000Y3200000I0J700000D01*
G01*
X-1890000Y3800000D02*
G75*
G03*
X-2590000Y4500000I-700000J0D01*
G01*
X-4689999Y8800000D02*
X-4689999Y8200000D01*
X-2589999Y9500000D02*
X-3989999Y9500000D01*
X-1889999Y8200000D02*
X-1889999Y8800000D01*
X-3989999Y7500000D02*
X-2589999Y7500000D01*
X-2589999Y7500000D02*
G75*
G03*
X-1889999Y8200000I0J700000D01*
G01*
X-1889999Y8800000D02*
G75*
G03*
X-2589999Y9500000I-700000J0D01*
G01*
X-3989999Y9500000D02*
G75*
G03*
X-4689999Y8800000I0J-700000D01*
G01*
X-4689999Y8200000D02*
G75*
G03*
X-3989999Y7500000I700000J0D01*
G01*
X8810000Y-1550000D02*
X8810000Y-950000D01*
X6710000Y-2250000D02*
X8110000Y-2250000D01*
X6010000Y-950000D02*
X6010000Y-1550000D01*
X8110000Y-250000D02*
X6710000Y-250000D01*
X6710000Y-250000D02*
G75*
G03*
X6010000Y-950000I0J-700000D01*
G01*
X6010000Y-1550000D02*
G75*
G03*
X6710000Y-2250000I700000J0D01*
G01*
X8110000Y-2250000D02*
G75*
G03*
X8810000Y-1550000I0J700000D01*
G01*
X8810000Y-950000D02*
G75*
G03*
X8110000Y-250000I-700000J0D01*
G01*
X8160000Y2300000D02*
X6760000Y2300000D01*
X6060000Y1600000D02*
X6060000Y1000000D01*
X6760000Y300000D02*
X8160000Y300000D01*
X8860000Y1000000D02*
X8860000Y1600000D01*
X8860000Y1600000D02*
G75*
G03*
X8160000Y2300000I-700000J0D01*
G01*
X8160000Y300000D02*
G75*
G03*
X8860000Y1000000I0J700000D01*
G01*
X6060000Y1000000D02*
G75*
G03*
X6760000Y300000I700000J0D01*
G01*
X6760000Y2300000D02*
G75*
G03*
X6060000Y1600000I0J-700000D01*
G01*
D18*
X-6306667Y21683334D02*
X-6306667Y21183334D01*
X-6273334Y21083334D01*
X-6206667Y21016667D01*
X-6106667Y20983334D01*
X-6040000Y20983334D01*
X-6640000Y20983334D02*
X-6640000Y21683334D01*
X-6906667Y21683334D01*
X-6973334Y21650000D01*
X-7006667Y21616667D01*
X-7040000Y21550000D01*
X-7040000Y21450000D01*
X-7006667Y21383334D01*
X-6973334Y21350000D01*
X-6906667Y21316667D01*
X-6640000Y21316667D01*
X-7706667Y20983334D02*
X-7306667Y20983334D01*
X-7506667Y20983334D02*
X-7506667Y21683334D01*
X-7440000Y21583334D01*
X-7373334Y21516667D01*
X-7306667Y21483334D01*
X-606667Y5283334D02*
X-606667Y4783334D01*
X-573334Y4683334D01*
X-506667Y4616667D01*
X-406667Y4583334D01*
X-340000Y4583334D01*
X-940000Y4583334D02*
X-940000Y5283334D01*
X-1206667Y5283334D01*
X-1273334Y5250000D01*
X-1306667Y5216667D01*
X-1340000Y5150000D01*
X-1340000Y5050000D01*
X-1306667Y4983334D01*
X-1273334Y4950000D01*
X-1206667Y4916667D01*
X-940000Y4916667D01*
X-1606667Y5216667D02*
X-1640000Y5250000D01*
X-1706667Y5283334D01*
X-1873334Y5283334D01*
X-1940000Y5250000D01*
X-1973334Y5216667D01*
X-2006667Y5150000D01*
X-2006667Y5083334D01*
X-1973334Y4983334D01*
X-1573334Y4583334D01*
X-2006667Y4583334D01*
X-806667Y2583334D02*
X-806667Y2083334D01*
X-773334Y1983334D01*
X-706667Y1916667D01*
X-606667Y1883334D01*
X-540000Y1883334D01*
X-1140000Y1883334D02*
X-1140000Y2583334D01*
X-1406667Y2583334D01*
X-1473334Y2550000D01*
X-1506667Y2516667D01*
X-1540000Y2450000D01*
X-1540000Y2350000D01*
X-1506667Y2283334D01*
X-1473334Y2250000D01*
X-1406667Y2216667D01*
X-1140000Y2216667D01*
X-2140000Y2350000D02*
X-2140000Y1883334D01*
X-1973334Y2616667D02*
X-1806667Y2116667D01*
X-2240000Y2116667D01*
X-606667Y7683334D02*
X-606667Y7183334D01*
X-573334Y7083334D01*
X-506667Y7016667D01*
X-406667Y6983334D01*
X-340000Y6983334D01*
X-940000Y6983334D02*
X-940000Y7683334D01*
X-1206667Y7683334D01*
X-1273334Y7650000D01*
X-1306667Y7616667D01*
X-1340000Y7550000D01*
X-1340000Y7450000D01*
X-1306667Y7383334D01*
X-1273334Y7350000D01*
X-1206667Y7316667D01*
X-940000Y7316667D01*
X-1973334Y7683334D02*
X-1640000Y7683334D01*
X-1606667Y7350000D01*
X-1640000Y7383334D01*
X-1706667Y7416667D01*
X-1873334Y7416667D01*
X-1940000Y7383334D01*
X-1973334Y7350000D01*
X-2006667Y7283334D01*
X-2006667Y7116667D01*
X-1973334Y7050000D01*
X-1940000Y7016667D01*
X-1873334Y6983334D01*
X-1706667Y6983334D01*
X-1640000Y7016667D01*
X-1606667Y7050000D01*
D11*
X8193333Y-2316666D02*
X8193333Y-2816666D01*
X8226666Y-2916666D01*
X8293333Y-2983333D01*
X8393333Y-3016666D01*
X8460000Y-3016666D01*
X7860000Y-3016666D02*
X7860000Y-2316666D01*
X7593333Y-2316666D01*
X7526666Y-2350000D01*
X7493333Y-2383333D01*
X7460000Y-2450000D01*
X7460000Y-2550000D01*
X7493333Y-2616666D01*
X7526666Y-2650000D01*
X7593333Y-2683333D01*
X7860000Y-2683333D01*
X6860000Y-2316666D02*
X6993333Y-2316666D01*
X7060000Y-2350000D01*
X7093333Y-2383333D01*
X7160000Y-2483333D01*
X7193333Y-2616666D01*
X7193333Y-2883333D01*
X7160000Y-2950000D01*
X7126666Y-2983333D01*
X7060000Y-3016666D01*
X6926666Y-3016666D01*
X6860000Y-2983333D01*
X6826666Y-2950000D01*
X6793333Y-2883333D01*
X6793333Y-2716666D01*
X6826666Y-2650000D01*
X6860000Y-2616666D01*
X6926666Y-2583333D01*
X7060000Y-2583333D01*
X7126666Y-2616666D01*
X7160000Y-2650000D01*
X7193333Y-2716666D01*
D18*
X8043333Y3133334D02*
X8043333Y2633334D01*
X8076666Y2533334D01*
X8143333Y2466667D01*
X8243333Y2433334D01*
X8310000Y2433334D01*
X7710000Y2433334D02*
X7710000Y3133334D01*
X7443333Y3133334D01*
X7376666Y3100000D01*
X7343333Y3066667D01*
X7310000Y3000000D01*
X7310000Y2900000D01*
X7343333Y2833334D01*
X7376666Y2800000D01*
X7443333Y2766667D01*
X7710000Y2766667D01*
X7076666Y3133334D02*
X6610000Y3133334D01*
X6910000Y2433334D01*
M02*
