G04 #@! TF.GenerationSoftware,KiCad,Pcbnew,(5.1.8)-1*
G04 #@! TF.CreationDate,2020-12-02T12:09:07+01:00*
G04 #@! TF.ProjectId,Penguino-STM32WL-LoRa-E5,50656e67-7569-46e6-9f2d-53544d333257,0.1*
G04 #@! TF.SameCoordinates,PX8198450PY59a5380*
G04 #@! TF.FileFunction,Paste,Top*
G04 #@! TF.FilePolarity,Positive*
%FSLAX46Y46*%
G04 Gerber Fmt 4.6, Leading zero omitted, Abs format (unit mm)*
G04 Created by KiCad (PCBNEW (5.1.8)-1) date 2020-12-02 12:09:07*
%MOMM*%
%LPD*%
G01*
G04 APERTURE LIST*
G04 #@! TA.AperFunction,Profile*
%ADD10C,0.150000*%
G04 #@! TD*
%ADD11R,0.600000X1.450000*%
%ADD12R,0.300000X1.450000*%
%ADD13R,0.800000X1.000000*%
%ADD14R,2.200000X1.050000*%
%ADD15R,1.050000X1.000000*%
%ADD16R,0.900000X0.800000*%
%ADD17R,0.660000X1.050000*%
%ADD18R,1.060000X0.650000*%
%ADD19R,0.300000X1.400000*%
%ADD20R,0.650000X1.220000*%
%ADD21R,2.400000X0.740000*%
%ADD22R,1.200000X0.900000*%
%ADD23R,0.375000X0.500000*%
%ADD24R,0.300000X0.650000*%
G04 APERTURE END LIST*
D10*
X-8890000Y-25380000D02*
G75*
G02*
X-11430000Y-22840000I0J2540000D01*
G01*
X11430000Y-22840000D02*
G75*
G02*
X8890000Y-25380000I-2540000J0D01*
G01*
X8890000Y25420000D02*
G75*
G02*
X11430000Y22880000I0J-2540000D01*
G01*
X-11430000Y22880000D02*
G75*
G02*
X-8890000Y25420000I2540000J0D01*
G01*
X-11430000Y-22840000D02*
X-11430000Y22880000D01*
X8890000Y-25380000D02*
X-8890000Y-25380000D01*
X11430000Y22880000D02*
X11430000Y-22840000D01*
X-8890000Y25420000D02*
X8890000Y25420000D01*
D11*
X-3240000Y19465000D03*
X-2440000Y19465000D03*
X2460000Y19465000D03*
X3260000Y19465000D03*
X3260000Y19465000D03*
X2460000Y19465000D03*
X-2440000Y19465000D03*
X-3240000Y19465000D03*
D12*
X1760000Y19465000D03*
X1260000Y19465000D03*
X760000Y19465000D03*
X-240000Y19465000D03*
X-740000Y19465000D03*
X-1240000Y19465000D03*
X-1740000Y19465000D03*
X260000Y19465000D03*
G36*
G01*
X4000000Y9630000D02*
X4370000Y9630000D01*
G75*
G02*
X4505000Y9495000I0J-135000D01*
G01*
X4505000Y9225000D01*
G75*
G02*
X4370000Y9090000I-135000J0D01*
G01*
X4000000Y9090000D01*
G75*
G02*
X3865000Y9225000I0J135000D01*
G01*
X3865000Y9495000D01*
G75*
G02*
X4000000Y9630000I135000J0D01*
G01*
G37*
G36*
G01*
X4000000Y8610000D02*
X4370000Y8610000D01*
G75*
G02*
X4505000Y8475000I0J-135000D01*
G01*
X4505000Y8205000D01*
G75*
G02*
X4370000Y8070000I-135000J0D01*
G01*
X4000000Y8070000D01*
G75*
G02*
X3865000Y8205000I0J135000D01*
G01*
X3865000Y8475000D01*
G75*
G02*
X4000000Y8610000I135000J0D01*
G01*
G37*
G36*
G01*
X7235000Y19450000D02*
X7235000Y19950000D01*
G75*
G02*
X7460000Y20175000I225000J0D01*
G01*
X7910000Y20175000D01*
G75*
G02*
X8135000Y19950000I0J-225000D01*
G01*
X8135000Y19450000D01*
G75*
G02*
X7910000Y19225000I-225000J0D01*
G01*
X7460000Y19225000D01*
G75*
G02*
X7235000Y19450000I0J225000D01*
G01*
G37*
G36*
G01*
X5685000Y19450000D02*
X5685000Y19950000D01*
G75*
G02*
X5910000Y20175000I225000J0D01*
G01*
X6360000Y20175000D01*
G75*
G02*
X6585000Y19950000I0J-225000D01*
G01*
X6585000Y19450000D01*
G75*
G02*
X6360000Y19225000I-225000J0D01*
G01*
X5910000Y19225000D01*
G75*
G02*
X5685000Y19450000I0J225000D01*
G01*
G37*
G36*
G01*
X-640000Y6775000D02*
X-140000Y6775000D01*
G75*
G02*
X85000Y6550000I0J-225000D01*
G01*
X85000Y6100000D01*
G75*
G02*
X-140000Y5875000I-225000J0D01*
G01*
X-640000Y5875000D01*
G75*
G02*
X-865000Y6100000I0J225000D01*
G01*
X-865000Y6550000D01*
G75*
G02*
X-640000Y6775000I225000J0D01*
G01*
G37*
G36*
G01*
X-640000Y8325000D02*
X-140000Y8325000D01*
G75*
G02*
X85000Y8100000I0J-225000D01*
G01*
X85000Y7650000D01*
G75*
G02*
X-140000Y7425000I-225000J0D01*
G01*
X-640000Y7425000D01*
G75*
G02*
X-865000Y7650000I0J225000D01*
G01*
X-865000Y8100000D01*
G75*
G02*
X-640000Y8325000I225000J0D01*
G01*
G37*
G36*
G01*
X960000Y750000D02*
X960000Y250000D01*
G75*
G02*
X735000Y25000I-225000J0D01*
G01*
X285000Y25000D01*
G75*
G02*
X60000Y250000I0J225000D01*
G01*
X60000Y750000D01*
G75*
G02*
X285000Y975000I225000J0D01*
G01*
X735000Y975000D01*
G75*
G02*
X960000Y750000I0J-225000D01*
G01*
G37*
G36*
G01*
X-590000Y750000D02*
X-590000Y250000D01*
G75*
G02*
X-815000Y25000I-225000J0D01*
G01*
X-1265000Y25000D01*
G75*
G02*
X-1490000Y250000I0J225000D01*
G01*
X-1490000Y750000D01*
G75*
G02*
X-1265000Y975000I225000J0D01*
G01*
X-815000Y975000D01*
G75*
G02*
X-590000Y750000I0J-225000D01*
G01*
G37*
G36*
G01*
X5893750Y23362500D02*
X6406250Y23362500D01*
G75*
G02*
X6625000Y23143750I0J-218750D01*
G01*
X6625000Y22706250D01*
G75*
G02*
X6406250Y22487500I-218750J0D01*
G01*
X5893750Y22487500D01*
G75*
G02*
X5675000Y22706250I0J218750D01*
G01*
X5675000Y23143750D01*
G75*
G02*
X5893750Y23362500I218750J0D01*
G01*
G37*
G36*
G01*
X5893750Y24937500D02*
X6406250Y24937500D01*
G75*
G02*
X6625000Y24718750I0J-218750D01*
G01*
X6625000Y24281250D01*
G75*
G02*
X6406250Y24062500I-218750J0D01*
G01*
X5893750Y24062500D01*
G75*
G02*
X5675000Y24281250I0J218750D01*
G01*
X5675000Y24718750D01*
G75*
G02*
X5893750Y24937500I218750J0D01*
G01*
G37*
D13*
X-7565000Y18770000D03*
X-7565000Y20270000D03*
X-6465000Y20270000D03*
X-6465000Y18770000D03*
G36*
G01*
X-8065000Y493750D02*
X-8065000Y1006250D01*
G75*
G02*
X-7846250Y1225000I218750J0D01*
G01*
X-7408750Y1225000D01*
G75*
G02*
X-7190000Y1006250I0J-218750D01*
G01*
X-7190000Y493750D01*
G75*
G02*
X-7408750Y275000I-218750J0D01*
G01*
X-7846250Y275000D01*
G75*
G02*
X-8065000Y493750I0J218750D01*
G01*
G37*
G36*
G01*
X-6490000Y493750D02*
X-6490000Y1006250D01*
G75*
G02*
X-6271250Y1225000I218750J0D01*
G01*
X-5833750Y1225000D01*
G75*
G02*
X-5615000Y1006250I0J-218750D01*
G01*
X-5615000Y493750D01*
G75*
G02*
X-5833750Y275000I-218750J0D01*
G01*
X-6271250Y275000D01*
G75*
G02*
X-6490000Y493750I0J218750D01*
G01*
G37*
G36*
G01*
X-4615000Y14643750D02*
X-4615000Y15556250D01*
G75*
G02*
X-4371250Y15800000I243750J0D01*
G01*
X-3883750Y15800000D01*
G75*
G02*
X-3640000Y15556250I0J-243750D01*
G01*
X-3640000Y14643750D01*
G75*
G02*
X-3883750Y14400000I-243750J0D01*
G01*
X-4371250Y14400000D01*
G75*
G02*
X-4615000Y14643750I0J243750D01*
G01*
G37*
G36*
G01*
X-2740000Y14643750D02*
X-2740000Y15556250D01*
G75*
G02*
X-2496250Y15800000I243750J0D01*
G01*
X-2008750Y15800000D01*
G75*
G02*
X-1765000Y15556250I0J-243750D01*
G01*
X-1765000Y14643750D01*
G75*
G02*
X-2008750Y14400000I-243750J0D01*
G01*
X-2496250Y14400000D01*
G75*
G02*
X-2740000Y14643750I0J243750D01*
G01*
G37*
G36*
G01*
X-2052500Y18006250D02*
X-2052500Y17493750D01*
G75*
G02*
X-2271250Y17275000I-218750J0D01*
G01*
X-2708750Y17275000D01*
G75*
G02*
X-2927500Y17493750I0J218750D01*
G01*
X-2927500Y18006250D01*
G75*
G02*
X-2708750Y18225000I218750J0D01*
G01*
X-2271250Y18225000D01*
G75*
G02*
X-2052500Y18006250I0J-218750D01*
G01*
G37*
G36*
G01*
X-3627500Y18006250D02*
X-3627500Y17493750D01*
G75*
G02*
X-3846250Y17275000I-218750J0D01*
G01*
X-4283750Y17275000D01*
G75*
G02*
X-4502500Y17493750I0J218750D01*
G01*
X-4502500Y18006250D01*
G75*
G02*
X-4283750Y18225000I218750J0D01*
G01*
X-3846250Y18225000D01*
G75*
G02*
X-3627500Y18006250I0J-218750D01*
G01*
G37*
G36*
G01*
X5460000Y12770000D02*
X2460000Y12770000D01*
G75*
G02*
X2210000Y13020000I0J250000D01*
G01*
X2210000Y13520000D01*
G75*
G02*
X2460000Y13770000I250000J0D01*
G01*
X5460000Y13770000D01*
G75*
G02*
X5710000Y13520000I0J-250000D01*
G01*
X5710000Y13020000D01*
G75*
G02*
X5460000Y12770000I-250000J0D01*
G01*
G37*
G36*
G01*
X5460000Y14770000D02*
X2460000Y14770000D01*
G75*
G02*
X2210000Y15020000I0J250000D01*
G01*
X2210000Y15520000D01*
G75*
G02*
X2460000Y15770000I250000J0D01*
G01*
X5460000Y15770000D01*
G75*
G02*
X5710000Y15520000I0J-250000D01*
G01*
X5710000Y15020000D01*
G75*
G02*
X5460000Y14770000I-250000J0D01*
G01*
G37*
G36*
G01*
X11160000Y10170000D02*
X8260000Y10170000D01*
G75*
G02*
X8010000Y10420000I0J250000D01*
G01*
X8010000Y11420000D01*
G75*
G02*
X8260000Y11670000I250000J0D01*
G01*
X11160000Y11670000D01*
G75*
G02*
X11410000Y11420000I0J-250000D01*
G01*
X11410000Y10420000D01*
G75*
G02*
X11160000Y10170000I-250000J0D01*
G01*
G37*
G36*
G01*
X11160000Y16870000D02*
X8260000Y16870000D01*
G75*
G02*
X8010000Y17120000I0J250000D01*
G01*
X8010000Y18120000D01*
G75*
G02*
X8260000Y18370000I250000J0D01*
G01*
X11160000Y18370000D01*
G75*
G02*
X11410000Y18120000I0J-250000D01*
G01*
X11410000Y17120000D01*
G75*
G02*
X11160000Y16870000I-250000J0D01*
G01*
G37*
D14*
X6935000Y-19475000D03*
D15*
X5410000Y-18000000D03*
D14*
X6935000Y-16525000D03*
D16*
X1010000Y8350000D03*
X1010000Y6450000D03*
X3010000Y7400000D03*
G36*
G01*
X4370000Y7180000D02*
X4000000Y7180000D01*
G75*
G02*
X3865000Y7315000I0J135000D01*
G01*
X3865000Y7585000D01*
G75*
G02*
X4000000Y7720000I135000J0D01*
G01*
X4370000Y7720000D01*
G75*
G02*
X4505000Y7585000I0J-135000D01*
G01*
X4505000Y7315000D01*
G75*
G02*
X4370000Y7180000I-135000J0D01*
G01*
G37*
G36*
G01*
X4370000Y6160000D02*
X4000000Y6160000D01*
G75*
G02*
X3865000Y6295000I0J135000D01*
G01*
X3865000Y6565000D01*
G75*
G02*
X4000000Y6700000I135000J0D01*
G01*
X4370000Y6700000D01*
G75*
G02*
X4505000Y6565000I0J-135000D01*
G01*
X4505000Y6295000D01*
G75*
G02*
X4370000Y6160000I-135000J0D01*
G01*
G37*
G36*
G01*
X-5985000Y21552000D02*
X-5985000Y21922000D01*
G75*
G02*
X-5850000Y22057000I135000J0D01*
G01*
X-5580000Y22057000D01*
G75*
G02*
X-5445000Y21922000I0J-135000D01*
G01*
X-5445000Y21552000D01*
G75*
G02*
X-5580000Y21417000I-135000J0D01*
G01*
X-5850000Y21417000D01*
G75*
G02*
X-5985000Y21552000I0J135000D01*
G01*
G37*
G36*
G01*
X-7005000Y21552000D02*
X-7005000Y21922000D01*
G75*
G02*
X-6870000Y22057000I135000J0D01*
G01*
X-6600000Y22057000D01*
G75*
G02*
X-6465000Y21922000I0J-135000D01*
G01*
X-6465000Y21552000D01*
G75*
G02*
X-6600000Y21417000I-135000J0D01*
G01*
X-6870000Y21417000D01*
G75*
G02*
X-7005000Y21552000I0J135000D01*
G01*
G37*
G36*
G01*
X9940001Y19515000D02*
X9940001Y19885000D01*
G75*
G02*
X10075001Y20020000I135000J0D01*
G01*
X10345001Y20020000D01*
G75*
G02*
X10480001Y19885000I0J-135000D01*
G01*
X10480001Y19515000D01*
G75*
G02*
X10345001Y19380000I-135000J0D01*
G01*
X10075001Y19380000D01*
G75*
G02*
X9940001Y19515000I0J135000D01*
G01*
G37*
G36*
G01*
X8920001Y19515000D02*
X8920001Y19885000D01*
G75*
G02*
X9055001Y20020000I135000J0D01*
G01*
X9325001Y20020000D01*
G75*
G02*
X9460001Y19885000I0J-135000D01*
G01*
X9460001Y19515000D01*
G75*
G02*
X9325001Y19380000I-135000J0D01*
G01*
X9055001Y19380000D01*
G75*
G02*
X8920001Y19515000I0J135000D01*
G01*
G37*
G36*
G01*
X-7125000Y17590000D02*
X-6755000Y17590000D01*
G75*
G02*
X-6620000Y17455000I0J-135000D01*
G01*
X-6620000Y17185000D01*
G75*
G02*
X-6755000Y17050000I-135000J0D01*
G01*
X-7125000Y17050000D01*
G75*
G02*
X-7260000Y17185000I0J135000D01*
G01*
X-7260000Y17455000D01*
G75*
G02*
X-7125000Y17590000I135000J0D01*
G01*
G37*
G36*
G01*
X-7125000Y16570000D02*
X-6755000Y16570000D01*
G75*
G02*
X-6620000Y16435000I0J-135000D01*
G01*
X-6620000Y16165000D01*
G75*
G02*
X-6755000Y16030000I-135000J0D01*
G01*
X-7125000Y16030000D01*
G75*
G02*
X-7260000Y16165000I0J135000D01*
G01*
X-7260000Y16435000D01*
G75*
G02*
X-7125000Y16570000I135000J0D01*
G01*
G37*
G36*
G01*
X-6075000Y16560000D02*
X-5705000Y16560000D01*
G75*
G02*
X-5570000Y16425000I0J-135000D01*
G01*
X-5570000Y16155000D01*
G75*
G02*
X-5705000Y16020000I-135000J0D01*
G01*
X-6075000Y16020000D01*
G75*
G02*
X-6210000Y16155000I0J135000D01*
G01*
X-6210000Y16425000D01*
G75*
G02*
X-6075000Y16560000I135000J0D01*
G01*
G37*
G36*
G01*
X-6075000Y17580000D02*
X-5705000Y17580000D01*
G75*
G02*
X-5570000Y17445000I0J-135000D01*
G01*
X-5570000Y17175000D01*
G75*
G02*
X-5705000Y17040000I-135000J0D01*
G01*
X-6075000Y17040000D01*
G75*
G02*
X-6210000Y17175000I0J135000D01*
G01*
X-6210000Y17445000D01*
G75*
G02*
X-6075000Y17580000I135000J0D01*
G01*
G37*
G36*
G01*
X-8175000Y17580000D02*
X-7805000Y17580000D01*
G75*
G02*
X-7670000Y17445000I0J-135000D01*
G01*
X-7670000Y17175000D01*
G75*
G02*
X-7805000Y17040000I-135000J0D01*
G01*
X-8175000Y17040000D01*
G75*
G02*
X-8310000Y17175000I0J135000D01*
G01*
X-8310000Y17445000D01*
G75*
G02*
X-8175000Y17580000I135000J0D01*
G01*
G37*
G36*
G01*
X-8175000Y16560000D02*
X-7805000Y16560000D01*
G75*
G02*
X-7670000Y16425000I0J-135000D01*
G01*
X-7670000Y16155000D01*
G75*
G02*
X-7805000Y16020000I-135000J0D01*
G01*
X-8175000Y16020000D01*
G75*
G02*
X-8310000Y16155000I0J135000D01*
G01*
X-8310000Y16425000D01*
G75*
G02*
X-8175000Y16560000I135000J0D01*
G01*
G37*
G36*
G01*
X-7110000Y-735000D02*
X-7110000Y-365000D01*
G75*
G02*
X-6975000Y-230000I135000J0D01*
G01*
X-6705000Y-230000D01*
G75*
G02*
X-6570000Y-365000I0J-135000D01*
G01*
X-6570000Y-735000D01*
G75*
G02*
X-6705000Y-870000I-135000J0D01*
G01*
X-6975000Y-870000D01*
G75*
G02*
X-7110000Y-735000I0J135000D01*
G01*
G37*
G36*
G01*
X-8130000Y-735000D02*
X-8130000Y-365000D01*
G75*
G02*
X-7995000Y-230000I135000J0D01*
G01*
X-7725000Y-230000D01*
G75*
G02*
X-7590000Y-365000I0J-135000D01*
G01*
X-7590000Y-735000D01*
G75*
G02*
X-7725000Y-870000I-135000J0D01*
G01*
X-7995000Y-870000D01*
G75*
G02*
X-8130000Y-735000I0J135000D01*
G01*
G37*
G36*
G01*
X6950000Y-485000D02*
X6950000Y-115000D01*
G75*
G02*
X7085000Y20000I135000J0D01*
G01*
X7355000Y20000D01*
G75*
G02*
X7490000Y-115000I0J-135000D01*
G01*
X7490000Y-485000D01*
G75*
G02*
X7355000Y-620000I-135000J0D01*
G01*
X7085000Y-620000D01*
G75*
G02*
X6950000Y-485000I0J135000D01*
G01*
G37*
G36*
G01*
X5930000Y-485000D02*
X5930000Y-115000D01*
G75*
G02*
X6065000Y20000I135000J0D01*
G01*
X6335000Y20000D01*
G75*
G02*
X6470000Y-115000I0J-135000D01*
G01*
X6470000Y-485000D01*
G75*
G02*
X6335000Y-620000I-135000J0D01*
G01*
X6065000Y-620000D01*
G75*
G02*
X5930000Y-485000I0J135000D01*
G01*
G37*
G36*
G01*
X97500Y-19280000D02*
X-272500Y-19280000D01*
G75*
G02*
X-407500Y-19145000I0J135000D01*
G01*
X-407500Y-18875000D01*
G75*
G02*
X-272500Y-18740000I135000J0D01*
G01*
X97500Y-18740000D01*
G75*
G02*
X232500Y-18875000I0J-135000D01*
G01*
X232500Y-19145000D01*
G75*
G02*
X97500Y-19280000I-135000J0D01*
G01*
G37*
G36*
G01*
X97500Y-18260000D02*
X-272500Y-18260000D01*
G75*
G02*
X-407500Y-18125000I0J135000D01*
G01*
X-407500Y-17855000D01*
G75*
G02*
X-272500Y-17720000I135000J0D01*
G01*
X97500Y-17720000D01*
G75*
G02*
X232500Y-17855000I0J-135000D01*
G01*
X232500Y-18125000D01*
G75*
G02*
X97500Y-18260000I-135000J0D01*
G01*
G37*
G36*
G01*
X-2812000Y1685000D02*
X-2442000Y1685000D01*
G75*
G02*
X-2307000Y1550000I0J-135000D01*
G01*
X-2307000Y1280000D01*
G75*
G02*
X-2442000Y1145000I-135000J0D01*
G01*
X-2812000Y1145000D01*
G75*
G02*
X-2947000Y1280000I0J135000D01*
G01*
X-2947000Y1550000D01*
G75*
G02*
X-2812000Y1685000I135000J0D01*
G01*
G37*
G36*
G01*
X-2812000Y665000D02*
X-2442000Y665000D01*
G75*
G02*
X-2307000Y530000I0J-135000D01*
G01*
X-2307000Y260000D01*
G75*
G02*
X-2442000Y125000I-135000J0D01*
G01*
X-2812000Y125000D01*
G75*
G02*
X-2947000Y260000I0J135000D01*
G01*
X-2947000Y530000D01*
G75*
G02*
X-2812000Y665000I135000J0D01*
G01*
G37*
G36*
G01*
X-3542000Y121001D02*
X-3912000Y121001D01*
G75*
G02*
X-4047000Y256001I0J135000D01*
G01*
X-4047000Y526001D01*
G75*
G02*
X-3912000Y661001I135000J0D01*
G01*
X-3542000Y661001D01*
G75*
G02*
X-3407000Y526001I0J-135000D01*
G01*
X-3407000Y256001D01*
G75*
G02*
X-3542000Y121001I-135000J0D01*
G01*
G37*
G36*
G01*
X-3542000Y1141001D02*
X-3912000Y1141001D01*
G75*
G02*
X-4047000Y1276001I0J135000D01*
G01*
X-4047000Y1546001D01*
G75*
G02*
X-3912000Y1681001I135000J0D01*
G01*
X-3542000Y1681001D01*
G75*
G02*
X-3407000Y1546001I0J-135000D01*
G01*
X-3407000Y1276001D01*
G75*
G02*
X-3542000Y1141001I-135000J0D01*
G01*
G37*
G36*
G01*
X-270000Y-18185000D02*
X-270000Y-17815000D01*
G75*
G02*
X-135000Y-17680000I135000J0D01*
G01*
X135000Y-17680000D01*
G75*
G02*
X270000Y-17815000I0J-135000D01*
G01*
X270000Y-18185000D01*
G75*
G02*
X135000Y-18320000I-135000J0D01*
G01*
X-135000Y-18320000D01*
G75*
G02*
X-270000Y-18185000I0J135000D01*
G01*
G37*
G36*
G01*
X750000Y-18185000D02*
X750000Y-17815000D01*
G75*
G02*
X885000Y-17680000I135000J0D01*
G01*
X1155000Y-17680000D01*
G75*
G02*
X1290000Y-17815000I0J-135000D01*
G01*
X1290000Y-18185000D01*
G75*
G02*
X1155000Y-18320000I-135000J0D01*
G01*
X885000Y-18320000D01*
G75*
G02*
X750000Y-18185000I0J135000D01*
G01*
G37*
G36*
G01*
X-2578891Y-16699480D02*
X-2840520Y-16961109D01*
G75*
G02*
X-3031438Y-16961109I-95459J95459D01*
G01*
X-3222357Y-16770190D01*
G75*
G02*
X-3222357Y-16579272I95459J95459D01*
G01*
X-2960728Y-16317643D01*
G75*
G02*
X-2769810Y-16317643I95459J-95459D01*
G01*
X-2578891Y-16508562D01*
G75*
G02*
X-2578891Y-16699480I-95459J-95459D01*
G01*
G37*
G36*
G01*
X-1857643Y-17420728D02*
X-2119272Y-17682357D01*
G75*
G02*
X-2310190Y-17682357I-95459J95459D01*
G01*
X-2501109Y-17491438D01*
G75*
G02*
X-2501109Y-17300520I95459J95459D01*
G01*
X-2239480Y-17038891D01*
G75*
G02*
X-2048562Y-17038891I95459J-95459D01*
G01*
X-1857643Y-17229810D01*
G75*
G02*
X-1857643Y-17420728I-95459J-95459D01*
G01*
G37*
D17*
X-7760000Y10425000D03*
X-5620000Y10425000D03*
X-7760000Y14575000D03*
X-5620000Y14575000D03*
X5540000Y1125000D03*
X7680000Y1125000D03*
X5540000Y5275000D03*
X7680000Y5275000D03*
D18*
X5510000Y6850000D03*
X5510000Y8750000D03*
X7710000Y8750000D03*
X7710000Y7800000D03*
X7710000Y6850000D03*
D16*
X2210000Y3900000D03*
X4210000Y4850000D03*
X4210000Y2950000D03*
D19*
X1010000Y14600000D03*
X510000Y14600000D03*
X10000Y14600000D03*
X-490000Y14600000D03*
X-990000Y14600000D03*
X-990000Y10200000D03*
X-490000Y10200000D03*
X10000Y10200000D03*
X510000Y10200000D03*
X1010000Y10200000D03*
G36*
G01*
X-4992500Y1663000D02*
X-4652500Y1663000D01*
G75*
G02*
X-4512500Y1523000I0J-140000D01*
G01*
X-4512500Y1243000D01*
G75*
G02*
X-4652500Y1103000I-140000J0D01*
G01*
X-4992500Y1103000D01*
G75*
G02*
X-5132500Y1243000I0J140000D01*
G01*
X-5132500Y1523000D01*
G75*
G02*
X-4992500Y1663000I140000J0D01*
G01*
G37*
G36*
G01*
X-4992500Y703000D02*
X-4652500Y703000D01*
G75*
G02*
X-4512500Y563000I0J-140000D01*
G01*
X-4512500Y283000D01*
G75*
G02*
X-4652500Y143000I-140000J0D01*
G01*
X-4992500Y143000D01*
G75*
G02*
X-5132500Y283000I0J140000D01*
G01*
X-5132500Y563000D01*
G75*
G02*
X-4992500Y703000I140000J0D01*
G01*
G37*
D20*
X885000Y4760000D03*
X-65000Y4760000D03*
X-1015000Y4760000D03*
X-1015000Y2140000D03*
X885000Y2140000D03*
G36*
G01*
X2480000Y9390000D02*
X2140000Y9390000D01*
G75*
G02*
X2000000Y9530000I0J140000D01*
G01*
X2000000Y9810000D01*
G75*
G02*
X2140000Y9950000I140000J0D01*
G01*
X2480000Y9950000D01*
G75*
G02*
X2620000Y9810000I0J-140000D01*
G01*
X2620000Y9530000D01*
G75*
G02*
X2480000Y9390000I-140000J0D01*
G01*
G37*
G36*
G01*
X2480000Y10350000D02*
X2140000Y10350000D01*
G75*
G02*
X2000000Y10490000I0J140000D01*
G01*
X2000000Y10770000D01*
G75*
G02*
X2140000Y10910000I140000J0D01*
G01*
X2480000Y10910000D01*
G75*
G02*
X2620000Y10770000I0J-140000D01*
G01*
X2620000Y10490000D01*
G75*
G02*
X2480000Y10350000I-140000J0D01*
G01*
G37*
G36*
G01*
X-6329500Y23518500D02*
X-5989500Y23518500D01*
G75*
G02*
X-5849500Y23378500I0J-140000D01*
G01*
X-5849500Y23098500D01*
G75*
G02*
X-5989500Y22958500I-140000J0D01*
G01*
X-6329500Y22958500D01*
G75*
G02*
X-6469500Y23098500I0J140000D01*
G01*
X-6469500Y23378500D01*
G75*
G02*
X-6329500Y23518500I140000J0D01*
G01*
G37*
G36*
G01*
X-6329500Y24478500D02*
X-5989500Y24478500D01*
G75*
G02*
X-5849500Y24338500I0J-140000D01*
G01*
X-5849500Y24058500D01*
G75*
G02*
X-5989500Y23918500I-140000J0D01*
G01*
X-6329500Y23918500D01*
G75*
G02*
X-6469500Y24058500I0J140000D01*
G01*
X-6469500Y24338500D01*
G75*
G02*
X-6329500Y24478500I140000J0D01*
G01*
G37*
G36*
G01*
X-3120000Y16380000D02*
X-3120000Y16720000D01*
G75*
G02*
X-2980000Y16860000I140000J0D01*
G01*
X-2700000Y16860000D01*
G75*
G02*
X-2560000Y16720000I0J-140000D01*
G01*
X-2560000Y16380000D01*
G75*
G02*
X-2700000Y16240000I-140000J0D01*
G01*
X-2980000Y16240000D01*
G75*
G02*
X-3120000Y16380000I0J140000D01*
G01*
G37*
G36*
G01*
X-2160000Y16380000D02*
X-2160000Y16720000D01*
G75*
G02*
X-2020000Y16860000I140000J0D01*
G01*
X-1740000Y16860000D01*
G75*
G02*
X-1600000Y16720000I0J-140000D01*
G01*
X-1600000Y16380000D01*
G75*
G02*
X-1740000Y16240000I-140000J0D01*
G01*
X-2020000Y16240000D01*
G75*
G02*
X-2160000Y16380000I0J140000D01*
G01*
G37*
G36*
G01*
X-4640000Y16720000D02*
X-4640000Y16380000D01*
G75*
G02*
X-4780000Y16240000I-140000J0D01*
G01*
X-5060000Y16240000D01*
G75*
G02*
X-5200000Y16380000I0J140000D01*
G01*
X-5200000Y16720000D01*
G75*
G02*
X-5060000Y16860000I140000J0D01*
G01*
X-4780000Y16860000D01*
G75*
G02*
X-4640000Y16720000I0J-140000D01*
G01*
G37*
G36*
G01*
X-3680000Y16720000D02*
X-3680000Y16380000D01*
G75*
G02*
X-3820000Y16240000I-140000J0D01*
G01*
X-4100000Y16240000D01*
G75*
G02*
X-4240000Y16380000I0J140000D01*
G01*
X-4240000Y16720000D01*
G75*
G02*
X-4100000Y16860000I140000J0D01*
G01*
X-3820000Y16860000D01*
G75*
G02*
X-3680000Y16720000I0J-140000D01*
G01*
G37*
G36*
G01*
X3050000Y1530000D02*
X3050000Y1870000D01*
G75*
G02*
X3190000Y2010000I140000J0D01*
G01*
X3470000Y2010000D01*
G75*
G02*
X3610000Y1870000I0J-140000D01*
G01*
X3610000Y1530000D01*
G75*
G02*
X3470000Y1390000I-140000J0D01*
G01*
X3190000Y1390000D01*
G75*
G02*
X3050000Y1530000I0J140000D01*
G01*
G37*
G36*
G01*
X4010000Y1530000D02*
X4010000Y1870000D01*
G75*
G02*
X4150000Y2010000I140000J0D01*
G01*
X4430000Y2010000D01*
G75*
G02*
X4570000Y1870000I0J-140000D01*
G01*
X4570000Y1530000D01*
G75*
G02*
X4430000Y1390000I-140000J0D01*
G01*
X4150000Y1390000D01*
G75*
G02*
X4010000Y1530000I0J140000D01*
G01*
G37*
G36*
G01*
X4135000Y750000D02*
X4135000Y250000D01*
G75*
G02*
X3910000Y25000I-225000J0D01*
G01*
X3460000Y25000D01*
G75*
G02*
X3235000Y250000I0J225000D01*
G01*
X3235000Y750000D01*
G75*
G02*
X3460000Y975000I225000J0D01*
G01*
X3910000Y975000D01*
G75*
G02*
X4135000Y750000I0J-225000D01*
G01*
G37*
G36*
G01*
X2585000Y750000D02*
X2585000Y250000D01*
G75*
G02*
X2360000Y25000I-225000J0D01*
G01*
X1910000Y25000D01*
G75*
G02*
X1685000Y250000I0J225000D01*
G01*
X1685000Y750000D01*
G75*
G02*
X1910000Y975000I225000J0D01*
G01*
X2360000Y975000D01*
G75*
G02*
X2585000Y750000I0J-225000D01*
G01*
G37*
G36*
G01*
X-3502807Y-15792391D02*
X-3262391Y-16032807D01*
G75*
G02*
X-3262391Y-16230797I-98995J-98995D01*
G01*
X-3460381Y-16428787D01*
G75*
G02*
X-3658371Y-16428787I-98995J98995D01*
G01*
X-3898787Y-16188371D01*
G75*
G02*
X-3898787Y-15990381I98995J98995D01*
G01*
X-3700797Y-15792391D01*
G75*
G02*
X-3502807Y-15792391I98995J-98995D01*
G01*
G37*
G36*
G01*
X-4181629Y-16471213D02*
X-3941213Y-16711629D01*
G75*
G02*
X-3941213Y-16909619I-98995J-98995D01*
G01*
X-4139203Y-17107609D01*
G75*
G02*
X-4337193Y-17107609I-98995J98995D01*
G01*
X-4577609Y-16867193D01*
G75*
G02*
X-4577609Y-16669203I98995J98995D01*
G01*
X-4379619Y-16471213D01*
G75*
G02*
X-4181629Y-16471213I98995J-98995D01*
G01*
G37*
G36*
G01*
X-2081629Y-18341213D02*
X-1841213Y-18581629D01*
G75*
G02*
X-1841213Y-18779619I-98995J-98995D01*
G01*
X-2039203Y-18977609D01*
G75*
G02*
X-2237193Y-18977609I-98995J98995D01*
G01*
X-2477609Y-18737193D01*
G75*
G02*
X-2477609Y-18539203I98995J98995D01*
G01*
X-2279619Y-18341213D01*
G75*
G02*
X-2081629Y-18341213I98995J-98995D01*
G01*
G37*
G36*
G01*
X-1402807Y-17662391D02*
X-1162391Y-17902807D01*
G75*
G02*
X-1162391Y-18100797I-98995J-98995D01*
G01*
X-1360381Y-18298787D01*
G75*
G02*
X-1558371Y-18298787I-98995J98995D01*
G01*
X-1798787Y-18058371D01*
G75*
G02*
X-1798787Y-17860381I98995J98995D01*
G01*
X-1600797Y-17662391D01*
G75*
G02*
X-1402807Y-17662391I98995J-98995D01*
G01*
G37*
G36*
G01*
X4030500Y-2737000D02*
X3294500Y-2737000D01*
G75*
G02*
X3202500Y-2645000I0J92000D01*
G01*
X3202500Y-609000D01*
G75*
G02*
X3294500Y-517000I92000J0D01*
G01*
X4030500Y-517000D01*
G75*
G02*
X4122500Y-609000I0J-92000D01*
G01*
X4122500Y-2645000D01*
G75*
G02*
X4030500Y-2737000I-92000J0D01*
G01*
G37*
G36*
G01*
X2780500Y-2737000D02*
X2044500Y-2737000D01*
G75*
G02*
X1952500Y-2645000I0J92000D01*
G01*
X1952500Y-609000D01*
G75*
G02*
X2044500Y-517000I92000J0D01*
G01*
X2780500Y-517000D01*
G75*
G02*
X2872500Y-609000I0J-92000D01*
G01*
X2872500Y-2645000D01*
G75*
G02*
X2780500Y-2737000I-92000J0D01*
G01*
G37*
G36*
G01*
X1530500Y-2737000D02*
X794500Y-2737000D01*
G75*
G02*
X702500Y-2645000I0J92000D01*
G01*
X702500Y-609000D01*
G75*
G02*
X794500Y-517000I92000J0D01*
G01*
X1530500Y-517000D01*
G75*
G02*
X1622500Y-609000I0J-92000D01*
G01*
X1622500Y-2645000D01*
G75*
G02*
X1530500Y-2737000I-92000J0D01*
G01*
G37*
G36*
G01*
X280500Y-2737000D02*
X-455500Y-2737000D01*
G75*
G02*
X-547500Y-2645000I0J92000D01*
G01*
X-547500Y-609000D01*
G75*
G02*
X-455500Y-517000I92000J0D01*
G01*
X280500Y-517000D01*
G75*
G02*
X372500Y-609000I0J-92000D01*
G01*
X372500Y-2645000D01*
G75*
G02*
X280500Y-2737000I-92000J0D01*
G01*
G37*
G36*
G01*
X-969500Y-2737000D02*
X-1705500Y-2737000D01*
G75*
G02*
X-1797500Y-2645000I0J92000D01*
G01*
X-1797500Y-609000D01*
G75*
G02*
X-1705500Y-517000I92000J0D01*
G01*
X-969500Y-517000D01*
G75*
G02*
X-877500Y-609000I0J-92000D01*
G01*
X-877500Y-2645000D01*
G75*
G02*
X-969500Y-2737000I-92000J0D01*
G01*
G37*
G36*
G01*
X-2219500Y-2737000D02*
X-2955500Y-2737000D01*
G75*
G02*
X-3047500Y-2645000I0J92000D01*
G01*
X-3047500Y-609000D01*
G75*
G02*
X-2955500Y-517000I92000J0D01*
G01*
X-2219500Y-517000D01*
G75*
G02*
X-2127500Y-609000I0J-92000D01*
G01*
X-2127500Y-2645000D01*
G75*
G02*
X-2219500Y-2737000I-92000J0D01*
G01*
G37*
G36*
G01*
X-3469500Y-2737000D02*
X-4205500Y-2737000D01*
G75*
G02*
X-4297500Y-2645000I0J92000D01*
G01*
X-4297500Y-609000D01*
G75*
G02*
X-4205500Y-517000I92000J0D01*
G01*
X-3469500Y-517000D01*
G75*
G02*
X-3377500Y-609000I0J-92000D01*
G01*
X-3377500Y-2645000D01*
G75*
G02*
X-3469500Y-2737000I-92000J0D01*
G01*
G37*
G36*
G01*
X1530500Y-14937000D02*
X794500Y-14937000D01*
G75*
G02*
X702500Y-14845000I0J92000D01*
G01*
X702500Y-12809000D01*
G75*
G02*
X794500Y-12717000I92000J0D01*
G01*
X1530500Y-12717000D01*
G75*
G02*
X1622500Y-12809000I0J-92000D01*
G01*
X1622500Y-14845000D01*
G75*
G02*
X1530500Y-14937000I-92000J0D01*
G01*
G37*
G36*
G01*
X280500Y-14937000D02*
X-455500Y-14937000D01*
G75*
G02*
X-547500Y-14845000I0J92000D01*
G01*
X-547500Y-12809000D01*
G75*
G02*
X-455500Y-12717000I92000J0D01*
G01*
X280500Y-12717000D01*
G75*
G02*
X372500Y-12809000I0J-92000D01*
G01*
X372500Y-14845000D01*
G75*
G02*
X280500Y-14937000I-92000J0D01*
G01*
G37*
G36*
G01*
X-969500Y-14937000D02*
X-1705500Y-14937000D01*
G75*
G02*
X-1797500Y-14845000I0J92000D01*
G01*
X-1797500Y-12809000D01*
G75*
G02*
X-1705500Y-12717000I92000J0D01*
G01*
X-969500Y-12717000D01*
G75*
G02*
X-877500Y-12809000I0J-92000D01*
G01*
X-877500Y-14845000D01*
G75*
G02*
X-969500Y-14937000I-92000J0D01*
G01*
G37*
G36*
G01*
X-2219500Y-14937000D02*
X-2955500Y-14937000D01*
G75*
G02*
X-3047500Y-14845000I0J92000D01*
G01*
X-3047500Y-12809000D01*
G75*
G02*
X-2955500Y-12717000I92000J0D01*
G01*
X-2219500Y-12717000D01*
G75*
G02*
X-2127500Y-12809000I0J-92000D01*
G01*
X-2127500Y-14845000D01*
G75*
G02*
X-2219500Y-14937000I-92000J0D01*
G01*
G37*
G36*
G01*
X2780500Y-14937000D02*
X2044500Y-14937000D01*
G75*
G02*
X1952500Y-14845000I0J92000D01*
G01*
X1952500Y-12809000D01*
G75*
G02*
X2044500Y-12717000I92000J0D01*
G01*
X2780500Y-12717000D01*
G75*
G02*
X2872500Y-12809000I0J-92000D01*
G01*
X2872500Y-14845000D01*
G75*
G02*
X2780500Y-14937000I-92000J0D01*
G01*
G37*
G36*
G01*
X-3469500Y-14937000D02*
X-4205500Y-14937000D01*
G75*
G02*
X-4297500Y-14845000I0J92000D01*
G01*
X-4297500Y-12809000D01*
G75*
G02*
X-4205500Y-12717000I92000J0D01*
G01*
X-3469500Y-12717000D01*
G75*
G02*
X-3377500Y-12809000I0J-92000D01*
G01*
X-3377500Y-14845000D01*
G75*
G02*
X-3469500Y-14937000I-92000J0D01*
G01*
G37*
G36*
G01*
X4030500Y-14937000D02*
X3294500Y-14937000D01*
G75*
G02*
X3202500Y-14845000I0J92000D01*
G01*
X3202500Y-12809000D01*
G75*
G02*
X3294500Y-12717000I92000J0D01*
G01*
X4030500Y-12717000D01*
G75*
G02*
X4122500Y-12809000I0J-92000D01*
G01*
X4122500Y-14845000D01*
G75*
G02*
X4030500Y-14937000I-92000J0D01*
G01*
G37*
G36*
G01*
X-4877500Y-5909000D02*
X-4877500Y-6645000D01*
G75*
G02*
X-4969500Y-6737000I-92000J0D01*
G01*
X-7005500Y-6737000D01*
G75*
G02*
X-7097500Y-6645000I0J92000D01*
G01*
X-7097500Y-5909000D01*
G75*
G02*
X-7005500Y-5817000I92000J0D01*
G01*
X-4969500Y-5817000D01*
G75*
G02*
X-4877500Y-5909000I0J-92000D01*
G01*
G37*
G36*
G01*
X-4877500Y-7159000D02*
X-4877500Y-7895000D01*
G75*
G02*
X-4969500Y-7987000I-92000J0D01*
G01*
X-7005500Y-7987000D01*
G75*
G02*
X-7097500Y-7895000I0J92000D01*
G01*
X-7097500Y-7159000D01*
G75*
G02*
X-7005500Y-7067000I92000J0D01*
G01*
X-4969500Y-7067000D01*
G75*
G02*
X-4877500Y-7159000I0J-92000D01*
G01*
G37*
G36*
G01*
X-4877500Y-8409000D02*
X-4877500Y-9145000D01*
G75*
G02*
X-4969500Y-9237000I-92000J0D01*
G01*
X-7005500Y-9237000D01*
G75*
G02*
X-7097500Y-9145000I0J92000D01*
G01*
X-7097500Y-8409000D01*
G75*
G02*
X-7005500Y-8317000I92000J0D01*
G01*
X-4969500Y-8317000D01*
G75*
G02*
X-4877500Y-8409000I0J-92000D01*
G01*
G37*
G36*
G01*
X-4877500Y-9659000D02*
X-4877500Y-10395000D01*
G75*
G02*
X-4969500Y-10487000I-92000J0D01*
G01*
X-7005500Y-10487000D01*
G75*
G02*
X-7097500Y-10395000I0J92000D01*
G01*
X-7097500Y-9659000D01*
G75*
G02*
X-7005500Y-9567000I92000J0D01*
G01*
X-4969500Y-9567000D01*
G75*
G02*
X-4877500Y-9659000I0J-92000D01*
G01*
G37*
G36*
G01*
X-4877500Y-4659000D02*
X-4877500Y-5395000D01*
G75*
G02*
X-4969500Y-5487000I-92000J0D01*
G01*
X-7005500Y-5487000D01*
G75*
G02*
X-7097500Y-5395000I0J92000D01*
G01*
X-7097500Y-4659000D01*
G75*
G02*
X-7005500Y-4567000I92000J0D01*
G01*
X-4969500Y-4567000D01*
G75*
G02*
X-4877500Y-4659000I0J-92000D01*
G01*
G37*
G36*
G01*
X-4877500Y-10909000D02*
X-4877500Y-11645000D01*
G75*
G02*
X-4969500Y-11737000I-92000J0D01*
G01*
X-7005500Y-11737000D01*
G75*
G02*
X-7097500Y-11645000I0J92000D01*
G01*
X-7097500Y-10909000D01*
G75*
G02*
X-7005500Y-10817000I92000J0D01*
G01*
X-4969500Y-10817000D01*
G75*
G02*
X-4877500Y-10909000I0J-92000D01*
G01*
G37*
G36*
G01*
X-4877500Y-3409000D02*
X-4877500Y-4145000D01*
G75*
G02*
X-4969500Y-4237000I-92000J0D01*
G01*
X-7005500Y-4237000D01*
G75*
G02*
X-7097500Y-4145000I0J92000D01*
G01*
X-7097500Y-3409000D01*
G75*
G02*
X-7005500Y-3317000I92000J0D01*
G01*
X-4969500Y-3317000D01*
G75*
G02*
X-4877500Y-3409000I0J-92000D01*
G01*
G37*
G36*
G01*
X7322500Y-7159000D02*
X7322500Y-7895000D01*
G75*
G02*
X7230500Y-7987000I-92000J0D01*
G01*
X5194500Y-7987000D01*
G75*
G02*
X5102500Y-7895000I0J92000D01*
G01*
X5102500Y-7159000D01*
G75*
G02*
X5194500Y-7067000I92000J0D01*
G01*
X7230500Y-7067000D01*
G75*
G02*
X7322500Y-7159000I0J-92000D01*
G01*
G37*
G36*
G01*
X7322500Y-5909000D02*
X7322500Y-6645000D01*
G75*
G02*
X7230500Y-6737000I-92000J0D01*
G01*
X5194500Y-6737000D01*
G75*
G02*
X5102500Y-6645000I0J92000D01*
G01*
X5102500Y-5909000D01*
G75*
G02*
X5194500Y-5817000I92000J0D01*
G01*
X7230500Y-5817000D01*
G75*
G02*
X7322500Y-5909000I0J-92000D01*
G01*
G37*
G36*
G01*
X7322500Y-10909000D02*
X7322500Y-11645000D01*
G75*
G02*
X7230500Y-11737000I-92000J0D01*
G01*
X5194500Y-11737000D01*
G75*
G02*
X5102500Y-11645000I0J92000D01*
G01*
X5102500Y-10909000D01*
G75*
G02*
X5194500Y-10817000I92000J0D01*
G01*
X7230500Y-10817000D01*
G75*
G02*
X7322500Y-10909000I0J-92000D01*
G01*
G37*
G36*
G01*
X7322500Y-3409000D02*
X7322500Y-4145000D01*
G75*
G02*
X7230500Y-4237000I-92000J0D01*
G01*
X5194500Y-4237000D01*
G75*
G02*
X5102500Y-4145000I0J92000D01*
G01*
X5102500Y-3409000D01*
G75*
G02*
X5194500Y-3317000I92000J0D01*
G01*
X7230500Y-3317000D01*
G75*
G02*
X7322500Y-3409000I0J-92000D01*
G01*
G37*
G36*
G01*
X7322500Y-9659000D02*
X7322500Y-10395000D01*
G75*
G02*
X7230500Y-10487000I-92000J0D01*
G01*
X5194500Y-10487000D01*
G75*
G02*
X5102500Y-10395000I0J92000D01*
G01*
X5102500Y-9659000D01*
G75*
G02*
X5194500Y-9567000I92000J0D01*
G01*
X7230500Y-9567000D01*
G75*
G02*
X7322500Y-9659000I0J-92000D01*
G01*
G37*
G36*
G01*
X7322500Y-4659000D02*
X7322500Y-5395000D01*
G75*
G02*
X7230500Y-5487000I-92000J0D01*
G01*
X5194500Y-5487000D01*
G75*
G02*
X5102500Y-5395000I0J92000D01*
G01*
X5102500Y-4659000D01*
G75*
G02*
X5194500Y-4567000I92000J0D01*
G01*
X7230500Y-4567000D01*
G75*
G02*
X7322500Y-4659000I0J-92000D01*
G01*
G37*
G36*
G01*
X7322500Y-8409000D02*
X7322500Y-9145000D01*
G75*
G02*
X7230500Y-9237000I-92000J0D01*
G01*
X5194500Y-9237000D01*
G75*
G02*
X5102500Y-9145000I0J92000D01*
G01*
X5102500Y-8409000D01*
G75*
G02*
X5194500Y-8317000I92000J0D01*
G01*
X7230500Y-8317000D01*
G75*
G02*
X7322500Y-8409000I0J-92000D01*
G01*
G37*
D21*
X-3190000Y2860000D03*
X-7090000Y2860000D03*
X-3190000Y4130000D03*
X-7090000Y4130000D03*
X-3190000Y5400000D03*
X-7090000Y5400000D03*
X-3190000Y6670000D03*
X-7090000Y6670000D03*
X-3190000Y7940000D03*
X-7090000Y7940000D03*
D22*
X-3290000Y10050000D03*
X-3290000Y13350000D03*
G36*
G01*
X2470000Y16695000D02*
X2100000Y16695000D01*
G75*
G02*
X1965000Y16830000I0J135000D01*
G01*
X1965000Y17100000D01*
G75*
G02*
X2100000Y17235000I135000J0D01*
G01*
X2470000Y17235000D01*
G75*
G02*
X2605000Y17100000I0J-135000D01*
G01*
X2605000Y16830000D01*
G75*
G02*
X2470000Y16695000I-135000J0D01*
G01*
G37*
G36*
G01*
X2470000Y17715000D02*
X2100000Y17715000D01*
G75*
G02*
X1965000Y17850000I0J135000D01*
G01*
X1965000Y18120000D01*
G75*
G02*
X2100000Y18255000I135000J0D01*
G01*
X2470000Y18255000D01*
G75*
G02*
X2605000Y18120000I0J-135000D01*
G01*
X2605000Y17850000D01*
G75*
G02*
X2470000Y17715000I-135000J0D01*
G01*
G37*
G36*
G01*
X-805000Y17740000D02*
X-1175000Y17740000D01*
G75*
G02*
X-1310000Y17875000I0J135000D01*
G01*
X-1310000Y18145000D01*
G75*
G02*
X-1175000Y18280000I135000J0D01*
G01*
X-805000Y18280000D01*
G75*
G02*
X-670000Y18145000I0J-135000D01*
G01*
X-670000Y17875000D01*
G75*
G02*
X-805000Y17740000I-135000J0D01*
G01*
G37*
G36*
G01*
X-805000Y16720000D02*
X-1175000Y16720000D01*
G75*
G02*
X-1310000Y16855000I0J135000D01*
G01*
X-1310000Y17125000D01*
G75*
G02*
X-1175000Y17260000I135000J0D01*
G01*
X-805000Y17260000D01*
G75*
G02*
X-670000Y17125000I0J-135000D01*
G01*
X-670000Y16855000D01*
G75*
G02*
X-805000Y16720000I-135000J0D01*
G01*
G37*
D23*
X1117500Y17830000D03*
X42500Y17830000D03*
D24*
X580000Y16055000D03*
X580000Y17905000D03*
D23*
X42500Y16130000D03*
X1117500Y16130000D03*
M02*
