G04 #@! TF.GenerationSoftware,KiCad,Pcbnew,(5.1.8)-1*
G04 #@! TF.CreationDate,2020-12-21T10:11:38+01:00*
G04 #@! TF.ProjectId,Penguino-STM32WL-LoRa-E5,50656e67-7569-46e6-9f2d-53544d333257,0.1*
G04 #@! TF.SameCoordinates,PX8198450PY59a5380*
G04 #@! TF.FileFunction,Legend,Top*
G04 #@! TF.FilePolarity,Positive*
%FSLAX46Y46*%
G04 Gerber Fmt 4.6, Leading zero omitted, Abs format (unit mm)*
G04 Created by KiCad (PCBNEW (5.1.8)-1) date 2020-12-21 10:11:38*
%MOMM*%
%LPD*%
G01*
G04 APERTURE LIST*
%ADD10C,0.180000*%
%ADD11C,0.150000*%
%ADD12C,0.200000*%
%ADD13C,0.300000*%
G04 #@! TA.AperFunction,Profile*
%ADD14C,0.150000*%
G04 #@! TD*
%ADD15C,0.120000*%
G04 APERTURE END LIST*
D10*
X-6576786Y-13947619D02*
X-5826786Y-13947619D01*
X-5826786Y-14252380D01*
X-5862500Y-14328571D01*
X-5898215Y-14366666D01*
X-5969643Y-14404761D01*
X-6076786Y-14404761D01*
X-6148215Y-14366666D01*
X-6183929Y-14328571D01*
X-6219643Y-14252380D01*
X-6219643Y-13947619D01*
X-6541072Y-15052380D02*
X-6576786Y-14976190D01*
X-6576786Y-14823809D01*
X-6541072Y-14747619D01*
X-6469643Y-14709523D01*
X-6183929Y-14709523D01*
X-6112500Y-14747619D01*
X-6076786Y-14823809D01*
X-6076786Y-14976190D01*
X-6112500Y-15052380D01*
X-6183929Y-15090476D01*
X-6255358Y-15090476D01*
X-6326786Y-14709523D01*
X-6076786Y-15433333D02*
X-6576786Y-15433333D01*
X-6148215Y-15433333D02*
X-6112500Y-15471428D01*
X-6076786Y-15547619D01*
X-6076786Y-15661904D01*
X-6112500Y-15738095D01*
X-6183929Y-15776190D01*
X-6576786Y-15776190D01*
X-6076786Y-16500000D02*
X-6683929Y-16500000D01*
X-6755358Y-16461904D01*
X-6791072Y-16423809D01*
X-6826786Y-16347619D01*
X-6826786Y-16233333D01*
X-6791072Y-16157142D01*
X-6541072Y-16500000D02*
X-6576786Y-16423809D01*
X-6576786Y-16271428D01*
X-6541072Y-16195238D01*
X-6505358Y-16157142D01*
X-6433929Y-16119047D01*
X-6219643Y-16119047D01*
X-6148215Y-16157142D01*
X-6112500Y-16195238D01*
X-6076786Y-16271428D01*
X-6076786Y-16423809D01*
X-6112500Y-16500000D01*
X-6076786Y-17223809D02*
X-6576786Y-17223809D01*
X-6076786Y-16880952D02*
X-6469643Y-16880952D01*
X-6541072Y-16919047D01*
X-6576786Y-16995238D01*
X-6576786Y-17109523D01*
X-6541072Y-17185714D01*
X-6505358Y-17223809D01*
X-6576786Y-17604761D02*
X-6076786Y-17604761D01*
X-5826786Y-17604761D02*
X-5862500Y-17566666D01*
X-5898215Y-17604761D01*
X-5862500Y-17642857D01*
X-5826786Y-17604761D01*
X-5898215Y-17604761D01*
X-6076786Y-17985714D02*
X-6576786Y-17985714D01*
X-6148215Y-17985714D02*
X-6112500Y-18023809D01*
X-6076786Y-18100000D01*
X-6076786Y-18214285D01*
X-6112500Y-18290476D01*
X-6183929Y-18328571D01*
X-6576786Y-18328571D01*
X-6576786Y-18823809D02*
X-6541072Y-18747619D01*
X-6505358Y-18709523D01*
X-6433929Y-18671428D01*
X-6219643Y-18671428D01*
X-6148215Y-18709523D01*
X-6112500Y-18747619D01*
X-6076786Y-18823809D01*
X-6076786Y-18938095D01*
X-6112500Y-19014285D01*
X-6148215Y-19052380D01*
X-6219643Y-19090476D01*
X-6433929Y-19090476D01*
X-6505358Y-19052380D01*
X-6541072Y-19014285D01*
X-6576786Y-18938095D01*
X-6576786Y-18823809D01*
X-7846072Y-12728571D02*
X-7881786Y-12842857D01*
X-7881786Y-13033333D01*
X-7846072Y-13109523D01*
X-7810358Y-13147619D01*
X-7738929Y-13185714D01*
X-7667500Y-13185714D01*
X-7596072Y-13147619D01*
X-7560358Y-13109523D01*
X-7524643Y-13033333D01*
X-7488929Y-12880952D01*
X-7453215Y-12804761D01*
X-7417500Y-12766666D01*
X-7346072Y-12728571D01*
X-7274643Y-12728571D01*
X-7203215Y-12766666D01*
X-7167500Y-12804761D01*
X-7131786Y-12880952D01*
X-7131786Y-13071428D01*
X-7167500Y-13185714D01*
X-7131786Y-13414285D02*
X-7131786Y-13871428D01*
X-7881786Y-13642857D02*
X-7131786Y-13642857D01*
X-7881786Y-14138095D02*
X-7131786Y-14138095D01*
X-7667500Y-14404761D01*
X-7131786Y-14671428D01*
X-7881786Y-14671428D01*
X-7131786Y-14976190D02*
X-7131786Y-15471428D01*
X-7417500Y-15204761D01*
X-7417500Y-15319047D01*
X-7453215Y-15395238D01*
X-7488929Y-15433333D01*
X-7560358Y-15471428D01*
X-7738929Y-15471428D01*
X-7810358Y-15433333D01*
X-7846072Y-15395238D01*
X-7881786Y-15319047D01*
X-7881786Y-15090476D01*
X-7846072Y-15014285D01*
X-7810358Y-14976190D01*
X-7203215Y-15776190D02*
X-7167500Y-15814285D01*
X-7131786Y-15890476D01*
X-7131786Y-16080952D01*
X-7167500Y-16157142D01*
X-7203215Y-16195238D01*
X-7274643Y-16233333D01*
X-7346072Y-16233333D01*
X-7453215Y-16195238D01*
X-7881786Y-15738095D01*
X-7881786Y-16233333D01*
X-7131786Y-16500000D02*
X-7881786Y-16690476D01*
X-7346072Y-16842857D01*
X-7881786Y-16995238D01*
X-7131786Y-17185714D01*
X-7881786Y-17871428D02*
X-7881786Y-17490476D01*
X-7131786Y-17490476D01*
X-7596072Y-18138095D02*
X-7596072Y-18747619D01*
X-7488929Y-19128571D02*
X-7488929Y-19395238D01*
X-7881786Y-19509523D02*
X-7881786Y-19128571D01*
X-7131786Y-19128571D01*
X-7131786Y-19509523D01*
X-7131786Y-20233333D02*
X-7131786Y-19852380D01*
X-7488929Y-19814285D01*
X-7453215Y-19852380D01*
X-7417500Y-19928571D01*
X-7417500Y-20119047D01*
X-7453215Y-20195238D01*
X-7488929Y-20233333D01*
X-7560358Y-20271428D01*
X-7738929Y-20271428D01*
X-7810358Y-20233333D01*
X-7846072Y-20195238D01*
X-7881786Y-20119047D01*
X-7881786Y-19928571D01*
X-7846072Y-19852380D01*
X-7810358Y-19814285D01*
D11*
X-5661429Y19483334D02*
X-5375715Y19716667D01*
X-5661429Y19883334D02*
X-5061429Y19883334D01*
X-5061429Y19616667D01*
X-5090000Y19550000D01*
X-5118572Y19516667D01*
X-5175715Y19483334D01*
X-5261429Y19483334D01*
X-5318572Y19516667D01*
X-5347143Y19550000D01*
X-5375715Y19616667D01*
X-5375715Y19883334D01*
X-5090000Y18816667D02*
X-5061429Y18883334D01*
X-5061429Y18983334D01*
X-5090000Y19083334D01*
X-5147143Y19150000D01*
X-5204286Y19183334D01*
X-5318572Y19216667D01*
X-5404286Y19216667D01*
X-5518572Y19183334D01*
X-5575715Y19150000D01*
X-5632858Y19083334D01*
X-5661429Y18983334D01*
X-5661429Y18916667D01*
X-5632858Y18816667D01*
X-5604286Y18783334D01*
X-5404286Y18783334D01*
X-5404286Y18916667D01*
X-5347143Y18250000D02*
X-5375715Y18150000D01*
X-5404286Y18116667D01*
X-5461429Y18083334D01*
X-5547143Y18083334D01*
X-5604286Y18116667D01*
X-5632858Y18150000D01*
X-5661429Y18216667D01*
X-5661429Y18483334D01*
X-5061429Y18483334D01*
X-5061429Y18250000D01*
X-5090000Y18183334D01*
X-5118572Y18150000D01*
X-5175715Y18116667D01*
X-5232858Y18116667D01*
X-5290000Y18150000D01*
X-5318572Y18183334D01*
X-5347143Y18250000D01*
X-5347143Y18483334D01*
D12*
X5940178Y21214286D02*
X5892559Y21176191D01*
X5759226Y21138096D01*
X5673511Y21138096D01*
X5549702Y21176191D01*
X5473511Y21252381D01*
X5440178Y21328572D01*
X5416369Y21480953D01*
X5430654Y21595239D01*
X5492559Y21747620D01*
X5544940Y21823810D01*
X5640178Y21900000D01*
X5773511Y21938096D01*
X5859226Y21938096D01*
X5983035Y21900000D01*
X6021130Y21861905D01*
X6316369Y21138096D02*
X6416369Y21938096D01*
X6368750Y21557143D02*
X6883035Y21557143D01*
X6830654Y21138096D02*
X6930654Y21938096D01*
D13*
X2538571Y11692858D02*
X3681428Y11692858D01*
X3110000Y11121429D02*
X3110000Y12264286D01*
D11*
X9052857Y-19825000D02*
X9081428Y-19725000D01*
X9081428Y-19558333D01*
X9052857Y-19491666D01*
X9024285Y-19458333D01*
X8967142Y-19425000D01*
X8910000Y-19425000D01*
X8852857Y-19458333D01*
X8824285Y-19491666D01*
X8795714Y-19558333D01*
X8767142Y-19691666D01*
X8738571Y-19758333D01*
X8710000Y-19791666D01*
X8652857Y-19825000D01*
X8595714Y-19825000D01*
X8538571Y-19791666D01*
X8510000Y-19758333D01*
X8481428Y-19691666D01*
X8481428Y-19525000D01*
X8510000Y-19425000D01*
X9081428Y-19125000D02*
X8481428Y-19125000D01*
X8481428Y-18958333D01*
X8510000Y-18858333D01*
X8567142Y-18791666D01*
X8624285Y-18758333D01*
X8738571Y-18725000D01*
X8824285Y-18725000D01*
X8938571Y-18758333D01*
X8995714Y-18791666D01*
X9052857Y-18858333D01*
X9081428Y-18958333D01*
X9081428Y-19125000D01*
X8910000Y-18458333D02*
X8910000Y-18125000D01*
X9081428Y-18525000D02*
X8481428Y-18291666D01*
X9081428Y-18058333D01*
X9052857Y-17258333D02*
X9081428Y-17158333D01*
X9081428Y-16991666D01*
X9052857Y-16925000D01*
X9024285Y-16891666D01*
X8967142Y-16858333D01*
X8910000Y-16858333D01*
X8852857Y-16891666D01*
X8824285Y-16925000D01*
X8795714Y-16991666D01*
X8767142Y-17125000D01*
X8738571Y-17191666D01*
X8710000Y-17225000D01*
X8652857Y-17258333D01*
X8595714Y-17258333D01*
X8538571Y-17225000D01*
X8510000Y-17191666D01*
X8481428Y-17125000D01*
X8481428Y-16958333D01*
X8510000Y-16858333D01*
X9024285Y-16158333D02*
X9052857Y-16191666D01*
X9081428Y-16291666D01*
X9081428Y-16358333D01*
X9052857Y-16458333D01*
X8995714Y-16525000D01*
X8938571Y-16558333D01*
X8824285Y-16591666D01*
X8738571Y-16591666D01*
X8624285Y-16558333D01*
X8567142Y-16525000D01*
X8510000Y-16458333D01*
X8481428Y-16358333D01*
X8481428Y-16291666D01*
X8510000Y-16191666D01*
X8538571Y-16158333D01*
X9081428Y-15525000D02*
X9081428Y-15858333D01*
X8481428Y-15858333D01*
X9106428Y-14816666D02*
X8506428Y-14816666D01*
X8506428Y-14550000D01*
X8535000Y-14483333D01*
X8563571Y-14450000D01*
X8620714Y-14416666D01*
X8706428Y-14416666D01*
X8763571Y-14450000D01*
X8792142Y-14483333D01*
X8820714Y-14550000D01*
X8820714Y-14816666D01*
X8935000Y-14150000D02*
X8935000Y-13816666D01*
X9106428Y-14216666D02*
X8506428Y-13983333D01*
X9106428Y-13750000D01*
X8506428Y-13583333D02*
X8506428Y-13150000D01*
X8735000Y-13383333D01*
X8735000Y-13283333D01*
X8763571Y-13216666D01*
X8792142Y-13183333D01*
X8849285Y-13150000D01*
X8992142Y-13150000D01*
X9049285Y-13183333D01*
X9077857Y-13216666D01*
X9106428Y-13283333D01*
X9106428Y-13483333D01*
X9077857Y-13550000D01*
X9049285Y-13583333D01*
X8624458Y-11369399D02*
X8200194Y-10945135D01*
X8388756Y-10756573D01*
X8456099Y-10729636D01*
X8499872Y-10726269D01*
X8563849Y-10743104D01*
X8624458Y-10803714D01*
X8641294Y-10867690D01*
X8637927Y-10911463D01*
X8610989Y-10978807D01*
X8422427Y-11167369D01*
X8974644Y-10776776D02*
X9210346Y-10541074D01*
X9048722Y-10945135D02*
X8789450Y-10355879D01*
X9378705Y-10615152D01*
X9136269Y-10089872D02*
X9139636Y-10046099D01*
X9166573Y-9978756D01*
X9284424Y-9860905D01*
X9351768Y-9833967D01*
X9395541Y-9830600D01*
X9459517Y-9847436D01*
X9499923Y-9887842D01*
X9536962Y-9972021D01*
X9496556Y-10497301D01*
X9802969Y-10190888D01*
X8103400Y-9340457D02*
X7679136Y-8916193D01*
X7867698Y-8727631D01*
X7935042Y-8700693D01*
X7978815Y-8697326D01*
X8042791Y-8714162D01*
X8103400Y-8774771D01*
X8120236Y-8838748D01*
X8116869Y-8882521D01*
X8089932Y-8949864D01*
X7901370Y-9138426D01*
X8541133Y-8458257D02*
X8632047Y-8407749D01*
X8675820Y-8404382D01*
X8739796Y-8421218D01*
X8800406Y-8481827D01*
X8817241Y-8545803D01*
X8813874Y-8589577D01*
X8786937Y-8656920D01*
X8598375Y-8845482D01*
X8174111Y-8421218D01*
X8339103Y-8256226D01*
X8406446Y-8229289D01*
X8450219Y-8225922D01*
X8514196Y-8242758D01*
X8554602Y-8283164D01*
X8571438Y-8347140D01*
X8568071Y-8390913D01*
X8541133Y-8458257D01*
X8376142Y-8623248D01*
X9352622Y-8091235D02*
X9069780Y-8374077D01*
X9211201Y-8232656D02*
X8786937Y-7808392D01*
X8800406Y-7916142D01*
X8793671Y-8003688D01*
X8766734Y-8071032D01*
X9234771Y-7360558D02*
X9281912Y-7313417D01*
X9349255Y-7286480D01*
X9393028Y-7283113D01*
X9457005Y-7299948D01*
X9561387Y-7357190D01*
X9662402Y-7458206D01*
X9719644Y-7562588D01*
X9736480Y-7626564D01*
X9733113Y-7670338D01*
X9706176Y-7737681D01*
X9659035Y-7784822D01*
X9591692Y-7811759D01*
X9547918Y-7815126D01*
X9483942Y-7798290D01*
X9379560Y-7741048D01*
X9278544Y-7640033D01*
X9221302Y-7535651D01*
X9204467Y-7471674D01*
X9207834Y-7427901D01*
X9234771Y-7360558D01*
X8624458Y-6369399D02*
X8200194Y-5945135D01*
X8388756Y-5756573D01*
X8456099Y-5729636D01*
X8499872Y-5726269D01*
X8563849Y-5743104D01*
X8624458Y-5803714D01*
X8641294Y-5867690D01*
X8637927Y-5911463D01*
X8610989Y-5978807D01*
X8422427Y-6167369D01*
X8974644Y-5776776D02*
X9210346Y-5541074D01*
X9048722Y-5945135D02*
X8789450Y-5355879D01*
X9378705Y-5615152D01*
X9567267Y-5426590D02*
X9661548Y-5332309D01*
X9688485Y-5264966D01*
X9691852Y-5221192D01*
X9678384Y-5113443D01*
X9621142Y-5009060D01*
X9459517Y-4847436D01*
X9395541Y-4830600D01*
X9351768Y-4833967D01*
X9284424Y-4860905D01*
X9190143Y-4955185D01*
X9163206Y-5022529D01*
X9159839Y-5066302D01*
X9176675Y-5130279D01*
X9277690Y-5231294D01*
X9341666Y-5248130D01*
X9385440Y-5244763D01*
X9452783Y-5217825D01*
X9547064Y-5123544D01*
X9574001Y-5056201D01*
X9577369Y-5012427D01*
X9560533Y-4948451D01*
X-9086429Y-13155547D02*
X-8486429Y-13155547D01*
X-8486429Y-13422214D01*
X-8515000Y-13488880D01*
X-8543572Y-13522214D01*
X-8600715Y-13555547D01*
X-8686429Y-13555547D01*
X-8743572Y-13522214D01*
X-8772143Y-13488880D01*
X-8800715Y-13422214D01*
X-8800715Y-13155547D01*
X-9029286Y-14255547D02*
X-9057858Y-14222214D01*
X-9086429Y-14122214D01*
X-9086429Y-14055547D01*
X-9057858Y-13955547D01*
X-9000715Y-13888880D01*
X-8943572Y-13855547D01*
X-8829286Y-13822214D01*
X-8743572Y-13822214D01*
X-8629286Y-13855547D01*
X-8572143Y-13888880D01*
X-8515000Y-13955547D01*
X-8486429Y-14055547D01*
X-8486429Y-14122214D01*
X-8515000Y-14222214D01*
X-8543572Y-14255547D01*
X-8486429Y-14688880D02*
X-8486429Y-14755547D01*
X-8515000Y-14822214D01*
X-8543572Y-14855547D01*
X-8600715Y-14888880D01*
X-8715000Y-14922214D01*
X-8857858Y-14922214D01*
X-8972143Y-14888880D01*
X-9029286Y-14855547D01*
X-9057858Y-14822214D01*
X-9086429Y-14755547D01*
X-9086429Y-14688880D01*
X-9057858Y-14622214D01*
X-9029286Y-14588880D01*
X-8972143Y-14555547D01*
X-8857858Y-14522214D01*
X-8715000Y-14522214D01*
X-8600715Y-14555547D01*
X-8543572Y-14588880D01*
X-8515000Y-14622214D01*
X-8486429Y-14688880D01*
X-9086429Y-15577769D02*
X-8486429Y-15577769D01*
X-8486429Y-15844436D01*
X-8515000Y-15911102D01*
X-8543572Y-15944436D01*
X-8600715Y-15977769D01*
X-8686429Y-15977769D01*
X-8743572Y-15944436D01*
X-8772143Y-15911102D01*
X-8800715Y-15844436D01*
X-8800715Y-15577769D01*
X-9029286Y-16677769D02*
X-9057858Y-16644436D01*
X-9086429Y-16544436D01*
X-9086429Y-16477769D01*
X-9057858Y-16377769D01*
X-9000715Y-16311102D01*
X-8943572Y-16277769D01*
X-8829286Y-16244436D01*
X-8743572Y-16244436D01*
X-8629286Y-16277769D01*
X-8572143Y-16311102D01*
X-8515000Y-16377769D01*
X-8486429Y-16477769D01*
X-8486429Y-16544436D01*
X-8515000Y-16644436D01*
X-8543572Y-16677769D01*
X-9086429Y-17344436D02*
X-9086429Y-16944436D01*
X-9086429Y-17144436D02*
X-8486429Y-17144436D01*
X-8572143Y-17077769D01*
X-8629286Y-17011102D01*
X-8657858Y-16944436D01*
X-9086429Y-433333D02*
X-8486429Y-433333D01*
X-8486429Y-700000D01*
X-8515000Y-766666D01*
X-8543572Y-800000D01*
X-8600715Y-833333D01*
X-8686429Y-833333D01*
X-8743572Y-800000D01*
X-8772143Y-766666D01*
X-8800715Y-700000D01*
X-8800715Y-433333D01*
X-8772143Y-1366666D02*
X-8800715Y-1466666D01*
X-8829286Y-1500000D01*
X-8886429Y-1533333D01*
X-8972143Y-1533333D01*
X-9029286Y-1500000D01*
X-9057858Y-1466666D01*
X-9086429Y-1400000D01*
X-9086429Y-1133333D01*
X-8486429Y-1133333D01*
X-8486429Y-1366666D01*
X-8515000Y-1433333D01*
X-8543572Y-1466666D01*
X-8600715Y-1500000D01*
X-8657858Y-1500000D01*
X-8715000Y-1466666D01*
X-8743572Y-1433333D01*
X-8772143Y-1366666D01*
X-8772143Y-1133333D01*
X-8486429Y-2166666D02*
X-8486429Y-1833333D01*
X-8772143Y-1800000D01*
X-8743572Y-1833333D01*
X-8715000Y-1900000D01*
X-8715000Y-2066666D01*
X-8743572Y-2133333D01*
X-8772143Y-2166666D01*
X-8829286Y-2200000D01*
X-8972143Y-2200000D01*
X-9029286Y-2166666D01*
X-9057858Y-2133333D01*
X-9086429Y-2066666D01*
X-9086429Y-1900000D01*
X-9057858Y-1833333D01*
X-9029286Y-1800000D01*
X8506428Y3666667D02*
X8506428Y3333334D01*
X8792142Y3300000D01*
X8763571Y3333334D01*
X8735000Y3400000D01*
X8735000Y3566667D01*
X8763571Y3633334D01*
X8792142Y3666667D01*
X8849285Y3700000D01*
X8992142Y3700000D01*
X9049285Y3666667D01*
X9077857Y3633334D01*
X9106428Y3566667D01*
X9106428Y3400000D01*
X9077857Y3333334D01*
X9049285Y3300000D01*
X8506428Y3900000D02*
X9106428Y4133334D01*
X8506428Y4366667D01*
X8767142Y5908334D02*
X8767142Y6141667D01*
X9081428Y6241667D02*
X9081428Y5908334D01*
X8481428Y5908334D01*
X8481428Y6241667D01*
X9081428Y6541667D02*
X8481428Y6541667D01*
X9081428Y6941667D01*
X8481428Y6941667D01*
X8792142Y8333334D02*
X8820714Y8433334D01*
X8849285Y8466667D01*
X8906428Y8500000D01*
X8992142Y8500000D01*
X9049285Y8466667D01*
X9077857Y8433334D01*
X9106428Y8366667D01*
X9106428Y8100000D01*
X8506428Y8100000D01*
X8506428Y8333334D01*
X8535000Y8400000D01*
X8563571Y8433334D01*
X8620714Y8466667D01*
X8677857Y8466667D01*
X8735000Y8433334D01*
X8763571Y8400000D01*
X8792142Y8333334D01*
X8792142Y8100000D01*
X8935000Y8766667D02*
X8935000Y9100000D01*
X9106428Y8700000D02*
X8506428Y8933334D01*
X9106428Y9166667D01*
X8506428Y9300000D02*
X8506428Y9700000D01*
X9106428Y9500000D02*
X8506428Y9500000D01*
X-9111429Y9991667D02*
X-8511429Y9991667D01*
X-8511429Y9725000D01*
X-8540000Y9658334D01*
X-8568572Y9625000D01*
X-8625715Y9591667D01*
X-8711429Y9591667D01*
X-8768572Y9625000D01*
X-8797143Y9658334D01*
X-8825715Y9725000D01*
X-8825715Y9991667D01*
X-8797143Y9058334D02*
X-8825715Y8958334D01*
X-8854286Y8925000D01*
X-8911429Y8891667D01*
X-8997143Y8891667D01*
X-9054286Y8925000D01*
X-9082858Y8958334D01*
X-9111429Y9025000D01*
X-9111429Y9291667D01*
X-8511429Y9291667D01*
X-8511429Y9058334D01*
X-8540000Y8991667D01*
X-8568572Y8958334D01*
X-8625715Y8925000D01*
X-8682858Y8925000D01*
X-8740000Y8958334D01*
X-8768572Y8991667D01*
X-8797143Y9058334D01*
X-8797143Y9291667D01*
X-8711429Y8291667D02*
X-9111429Y8291667D01*
X-8482858Y8458334D02*
X-8911429Y8625000D01*
X-8911429Y8191667D01*
X-9111429Y7641667D02*
X-8511429Y7641667D01*
X-8511429Y7375000D01*
X-8540000Y7308334D01*
X-8568572Y7275000D01*
X-8625715Y7241667D01*
X-8711429Y7241667D01*
X-8768572Y7275000D01*
X-8797143Y7308334D01*
X-8825715Y7375000D01*
X-8825715Y7641667D01*
X-8797143Y6708334D02*
X-8825715Y6608334D01*
X-8854286Y6575000D01*
X-8911429Y6541667D01*
X-8997143Y6541667D01*
X-9054286Y6575000D01*
X-9082858Y6608334D01*
X-9111429Y6675000D01*
X-9111429Y6941667D01*
X-8511429Y6941667D01*
X-8511429Y6708334D01*
X-8540000Y6641667D01*
X-8568572Y6608334D01*
X-8625715Y6575000D01*
X-8682858Y6575000D01*
X-8740000Y6608334D01*
X-8768572Y6641667D01*
X-8797143Y6708334D01*
X-8797143Y6941667D01*
X-8511429Y6308334D02*
X-8511429Y5875000D01*
X-8740000Y6108334D01*
X-8740000Y6008334D01*
X-8768572Y5941667D01*
X-8797143Y5908334D01*
X-8854286Y5875000D01*
X-8997143Y5875000D01*
X-9054286Y5908334D01*
X-9082858Y5941667D01*
X-9111429Y6008334D01*
X-9111429Y6208334D01*
X-9082858Y6275000D01*
X-9054286Y6308334D01*
X-9086429Y5250000D02*
X-8486429Y5250000D01*
X-8486429Y4983334D01*
X-8515000Y4916667D01*
X-8543572Y4883334D01*
X-8600715Y4850000D01*
X-8686429Y4850000D01*
X-8743572Y4883334D01*
X-8772143Y4916667D01*
X-8800715Y4983334D01*
X-8800715Y5250000D01*
X-8915000Y4583334D02*
X-8915000Y4250000D01*
X-9086429Y4650000D02*
X-8486429Y4416667D01*
X-9086429Y4183334D01*
X-9086429Y3583334D02*
X-9086429Y3983334D01*
X-9086429Y3783334D02*
X-8486429Y3783334D01*
X-8572143Y3850000D01*
X-8629286Y3916667D01*
X-8657858Y3983334D01*
X-8686429Y2983334D02*
X-9086429Y2983334D01*
X-8457858Y3150000D02*
X-8886429Y3316667D01*
X-8886429Y2883334D01*
X-9086429Y2350000D02*
X-8486429Y2350000D01*
X-8486429Y2083334D01*
X-8515000Y2016667D01*
X-8543572Y1983334D01*
X-8600715Y1950000D01*
X-8686429Y1950000D01*
X-8743572Y1983334D01*
X-8772143Y2016667D01*
X-8800715Y2083334D01*
X-8800715Y2350000D01*
X-8915000Y1683334D02*
X-8915000Y1350000D01*
X-9086429Y1750000D02*
X-8486429Y1516667D01*
X-9086429Y1283334D01*
X-9086429Y683334D02*
X-9086429Y1083334D01*
X-9086429Y883334D02*
X-8486429Y883334D01*
X-8572143Y950000D01*
X-8629286Y1016667D01*
X-8657858Y1083334D01*
X-8486429Y450000D02*
X-8486429Y16667D01*
X-8715000Y250000D01*
X-8715000Y150000D01*
X-8743572Y83334D01*
X-8772143Y50000D01*
X-8829286Y16667D01*
X-8972143Y16667D01*
X-9029286Y50000D01*
X-9057858Y83334D01*
X-9086429Y150000D01*
X-9086429Y350000D01*
X-9057858Y416667D01*
X-9029286Y450000D01*
X8624458Y-3819399D02*
X8200194Y-3395135D01*
X8388756Y-3206573D01*
X8456099Y-3179636D01*
X8499872Y-3176269D01*
X8563849Y-3193104D01*
X8624458Y-3253714D01*
X8641294Y-3317690D01*
X8637927Y-3361463D01*
X8610989Y-3428807D01*
X8422427Y-3617369D01*
X8974644Y-3226776D02*
X9210346Y-2991074D01*
X9048722Y-3395135D02*
X8789450Y-2805879D01*
X9378705Y-3065152D01*
X9213714Y-2381615D02*
X9260854Y-2334475D01*
X9328198Y-2307537D01*
X9371971Y-2304170D01*
X9435947Y-2321006D01*
X9540330Y-2378248D01*
X9641345Y-2479263D01*
X9698587Y-2583646D01*
X9715423Y-2647622D01*
X9712056Y-2691395D01*
X9685118Y-2758739D01*
X9637978Y-2805879D01*
X9570634Y-2832817D01*
X9526861Y-2836184D01*
X9462885Y-2819348D01*
X9358502Y-2762106D01*
X9257487Y-2661091D01*
X9200245Y-2556708D01*
X9183409Y-2492732D01*
X9186776Y-2448959D01*
X9213714Y-2381615D01*
X-9544755Y-2904103D02*
X-9120491Y-2479839D01*
X-8931929Y-2668400D01*
X-8904992Y-2735744D01*
X-8901625Y-2779517D01*
X-8918461Y-2843493D01*
X-8979070Y-2904103D01*
X-9043046Y-2920938D01*
X-9086820Y-2917571D01*
X-9154163Y-2890634D01*
X-9342725Y-2702072D01*
X-8662555Y-3341835D02*
X-8612048Y-3432749D01*
X-8608681Y-3476522D01*
X-8625517Y-3540499D01*
X-8686126Y-3601108D01*
X-8750102Y-3617944D01*
X-8793875Y-3614577D01*
X-8861219Y-3587639D01*
X-9049781Y-3399077D01*
X-8625517Y-2974813D01*
X-8460525Y-3139805D01*
X-8433588Y-3207148D01*
X-8430220Y-3250922D01*
X-8447056Y-3314898D01*
X-8487462Y-3355304D01*
X-8551439Y-3372140D01*
X-8595212Y-3368773D01*
X-8662555Y-3341835D01*
X-8827547Y-3176844D01*
X-8531236Y-3917622D02*
X-8436955Y-4011903D01*
X-8369611Y-4038841D01*
X-8325838Y-4042208D01*
X-8218088Y-4028739D01*
X-8113706Y-3971497D01*
X-7952082Y-3809873D01*
X-7935246Y-3745896D01*
X-7938613Y-3702123D01*
X-7965550Y-3634780D01*
X-8059831Y-3540499D01*
X-8127175Y-3513561D01*
X-8170948Y-3510194D01*
X-8234924Y-3527030D01*
X-8335939Y-3628045D01*
X-8352775Y-3692022D01*
X-8349408Y-3735795D01*
X-8322471Y-3803138D01*
X-8228190Y-3897419D01*
X-8160846Y-3924357D01*
X-8117073Y-3927724D01*
X-8053097Y-3910888D01*
X-9544756Y-5393400D02*
X-9120492Y-4969136D01*
X-8931930Y-5157698D01*
X-8904992Y-5225042D01*
X-8901625Y-5268815D01*
X-8918461Y-5332791D01*
X-8979070Y-5393400D01*
X-9043047Y-5410236D01*
X-9086820Y-5406869D01*
X-9154163Y-5379932D01*
X-9342725Y-5191370D01*
X-8662556Y-5831133D02*
X-8612048Y-5922047D01*
X-8608681Y-5965820D01*
X-8625517Y-6029796D01*
X-8686126Y-6090406D01*
X-8750102Y-6107241D01*
X-8793876Y-6103874D01*
X-8861219Y-6076937D01*
X-9049781Y-5888375D01*
X-8625517Y-5464111D01*
X-8460525Y-5629103D01*
X-8433588Y-5696446D01*
X-8430221Y-5740219D01*
X-8447057Y-5804196D01*
X-8487463Y-5844602D01*
X-8551439Y-5861438D01*
X-8595212Y-5858071D01*
X-8662556Y-5831133D01*
X-8827547Y-5666142D01*
X-8295534Y-6642622D02*
X-8578376Y-6359780D01*
X-8436955Y-6501201D02*
X-8012691Y-6076937D01*
X-8120441Y-6090406D01*
X-8207987Y-6083671D01*
X-8275331Y-6056734D01*
X-7706278Y-6383350D02*
X-7399865Y-6689763D01*
X-7726481Y-6686396D01*
X-7655770Y-6757106D01*
X-7628833Y-6824450D01*
X-7625466Y-6868223D01*
X-7642302Y-6932199D01*
X-7743317Y-7033215D01*
X-7807293Y-7050051D01*
X-7851067Y-7046683D01*
X-7918410Y-7019746D01*
X-8059831Y-6878325D01*
X-8086769Y-6810981D01*
X-8090136Y-6767208D01*
X-9544755Y-7903756D02*
X-9120491Y-7479492D01*
X-8931929Y-7668053D01*
X-8904992Y-7735397D01*
X-8901625Y-7779170D01*
X-8918461Y-7843147D01*
X-8979070Y-7903756D01*
X-9043046Y-7920592D01*
X-9086819Y-7917224D01*
X-9154163Y-7890287D01*
X-9342725Y-7701725D01*
X-8952132Y-8253942D02*
X-8716430Y-8489644D01*
X-9120491Y-8328020D02*
X-8531236Y-8068747D01*
X-8790508Y-8658003D01*
X-8366244Y-9082267D02*
X-8649087Y-8799424D01*
X-8507665Y-8940846D02*
X-8083401Y-8516582D01*
X-8191151Y-8530050D01*
X-8278697Y-8523316D01*
X-8346041Y-8496379D01*
X-7635567Y-8964416D02*
X-7588427Y-9011556D01*
X-7561489Y-9078900D01*
X-7558122Y-9122673D01*
X-7574958Y-9186649D01*
X-7632200Y-9291032D01*
X-7733215Y-9392047D01*
X-7837597Y-9449289D01*
X-7901574Y-9466125D01*
X-7945347Y-9462758D01*
X-8012691Y-9435820D01*
X-8059831Y-9388680D01*
X-8086768Y-9321336D01*
X-8090136Y-9277563D01*
X-8073300Y-9213587D01*
X-8016058Y-9109204D01*
X-7915043Y-9008189D01*
X-7810660Y-8950947D01*
X-7746684Y-8934111D01*
X-7702910Y-8937478D01*
X-7635567Y-8964416D01*
X-9544756Y-10443400D02*
X-9120492Y-10019136D01*
X-8931930Y-10207698D01*
X-8904992Y-10275042D01*
X-8901625Y-10318815D01*
X-8918461Y-10382791D01*
X-8979070Y-10443400D01*
X-9043047Y-10460236D01*
X-9086820Y-10456869D01*
X-9154163Y-10429932D01*
X-9342725Y-10241370D01*
X-8662556Y-10881133D02*
X-8612048Y-10972047D01*
X-8608681Y-11015820D01*
X-8625517Y-11079796D01*
X-8686126Y-11140406D01*
X-8750102Y-11157241D01*
X-8793876Y-11153874D01*
X-8861219Y-11126937D01*
X-9049781Y-10938375D01*
X-8625517Y-10514111D01*
X-8460525Y-10679103D01*
X-8433588Y-10746446D01*
X-8430221Y-10790219D01*
X-8447057Y-10854196D01*
X-8487463Y-10894602D01*
X-8551439Y-10911438D01*
X-8595212Y-10908071D01*
X-8662556Y-10881133D01*
X-8827547Y-10716142D01*
X-8295534Y-11692622D02*
X-8578376Y-11409780D01*
X-8436955Y-11551201D02*
X-8012691Y-11126937D01*
X-8120441Y-11140406D01*
X-8207987Y-11133671D01*
X-8275331Y-11106734D01*
X-7588427Y-11834044D02*
X-7871270Y-12116886D01*
X-7544654Y-11554568D02*
X-7965550Y-11739763D01*
X-7659138Y-12046176D01*
X9081428Y-2166666D02*
X8481428Y-2166666D01*
X8481428Y-1900000D01*
X8510000Y-1833333D01*
X8538571Y-1800000D01*
X8595714Y-1766666D01*
X8681428Y-1766666D01*
X8738571Y-1800000D01*
X8767142Y-1833333D01*
X8795714Y-1900000D01*
X8795714Y-2166666D01*
X8767142Y-1233333D02*
X8795714Y-1133333D01*
X8824285Y-1100000D01*
X8881428Y-1066666D01*
X8967142Y-1066666D01*
X9024285Y-1100000D01*
X9052857Y-1133333D01*
X9081428Y-1200000D01*
X9081428Y-1466666D01*
X8481428Y-1466666D01*
X8481428Y-1233333D01*
X8510000Y-1166666D01*
X8538571Y-1133333D01*
X8595714Y-1100000D01*
X8652857Y-1100000D01*
X8710000Y-1133333D01*
X8738571Y-1166666D01*
X8767142Y-1233333D01*
X8767142Y-1466666D01*
X8481428Y-833333D02*
X8481428Y-366666D01*
X9081428Y-666666D01*
X9081428Y233334D02*
X8481428Y233334D01*
X8481428Y500000D01*
X8510000Y566667D01*
X8538571Y600000D01*
X8595714Y633334D01*
X8681428Y633334D01*
X8738571Y600000D01*
X8767142Y566667D01*
X8795714Y500000D01*
X8795714Y233334D01*
X8767142Y1166667D02*
X8795714Y1266667D01*
X8824285Y1300000D01*
X8881428Y1333334D01*
X8967142Y1333334D01*
X9024285Y1300000D01*
X9052857Y1266667D01*
X9081428Y1200000D01*
X9081428Y933334D01*
X8481428Y933334D01*
X8481428Y1166667D01*
X8510000Y1233334D01*
X8538571Y1266667D01*
X8595714Y1300000D01*
X8652857Y1300000D01*
X8710000Y1266667D01*
X8738571Y1233334D01*
X8767142Y1166667D01*
X8767142Y933334D01*
X8481428Y1933334D02*
X8481428Y1800000D01*
X8510000Y1733334D01*
X8538571Y1700000D01*
X8624285Y1633334D01*
X8738571Y1600000D01*
X8967142Y1600000D01*
X9024285Y1633334D01*
X9052857Y1666667D01*
X9081428Y1733334D01*
X9081428Y1866667D01*
X9052857Y1933334D01*
X9024285Y1966667D01*
X8967142Y2000000D01*
X8824285Y2000000D01*
X8767142Y1966667D01*
X8738571Y1933334D01*
X8710000Y1866667D01*
X8710000Y1733334D01*
X8738571Y1666667D01*
X8767142Y1633334D01*
X8824285Y1600000D01*
X-8515000Y-18491666D02*
X-8486429Y-18425000D01*
X-8486429Y-18325000D01*
X-8515000Y-18225000D01*
X-8572143Y-18158333D01*
X-8629286Y-18125000D01*
X-8743572Y-18091666D01*
X-8829286Y-18091666D01*
X-8943572Y-18125000D01*
X-9000715Y-18158333D01*
X-9057858Y-18225000D01*
X-9086429Y-18325000D01*
X-9086429Y-18391666D01*
X-9057858Y-18491666D01*
X-9029286Y-18525000D01*
X-8829286Y-18525000D01*
X-8829286Y-18391666D01*
X-9086429Y-18825000D02*
X-8486429Y-18825000D01*
X-9086429Y-19225000D01*
X-8486429Y-19225000D01*
X-9086429Y-19558333D02*
X-8486429Y-19558333D01*
X-8486429Y-19725000D01*
X-8515000Y-19825000D01*
X-8572143Y-19891666D01*
X-8629286Y-19925000D01*
X-8743572Y-19958333D01*
X-8829286Y-19958333D01*
X-8943572Y-19925000D01*
X-9000715Y-19891666D01*
X-9057858Y-19825000D01*
X-9086429Y-19725000D01*
X-9086429Y-19558333D01*
X-8565000Y12008334D02*
X-8536429Y12075000D01*
X-8536429Y12175000D01*
X-8565000Y12275000D01*
X-8622143Y12341667D01*
X-8679286Y12375000D01*
X-8793572Y12408334D01*
X-8879286Y12408334D01*
X-8993572Y12375000D01*
X-9050715Y12341667D01*
X-9107858Y12275000D01*
X-9136429Y12175000D01*
X-9136429Y12108334D01*
X-9107858Y12008334D01*
X-9079286Y11975000D01*
X-8879286Y11975000D01*
X-8879286Y12108334D01*
X-9136429Y11675000D02*
X-8536429Y11675000D01*
X-9136429Y11275000D01*
X-8536429Y11275000D01*
X-9136429Y10941667D02*
X-8536429Y10941667D01*
X-8536429Y10775000D01*
X-8565000Y10675000D01*
X-8622143Y10608334D01*
X-8679286Y10575000D01*
X-8793572Y10541667D01*
X-8879286Y10541667D01*
X-8993572Y10575000D01*
X-9050715Y10608334D01*
X-9107858Y10675000D01*
X-9136429Y10775000D01*
X-9136429Y10941667D01*
X-9111429Y14600000D02*
X-8511429Y14600000D01*
X-9111429Y14200000D01*
X-8511429Y14200000D01*
X-9054286Y13466667D02*
X-9082858Y13500000D01*
X-9111429Y13600000D01*
X-9111429Y13666667D01*
X-9082858Y13766667D01*
X-9025715Y13833334D01*
X-8968572Y13866667D01*
X-8854286Y13900000D01*
X-8768572Y13900000D01*
X-8654286Y13866667D01*
X-8597143Y13833334D01*
X-8540000Y13766667D01*
X-8511429Y13666667D01*
X-8511429Y13600000D01*
X-8540000Y13500000D01*
X-8568572Y13466667D01*
X-8511429Y17083334D02*
X-8511429Y16650000D01*
X-8740000Y16883334D01*
X-8740000Y16783334D01*
X-8768572Y16716667D01*
X-8797143Y16683334D01*
X-8854286Y16650000D01*
X-8997143Y16650000D01*
X-9054286Y16683334D01*
X-9082858Y16716667D01*
X-9111429Y16783334D01*
X-9111429Y16983334D01*
X-9082858Y17050000D01*
X-9054286Y17083334D01*
X-8511429Y16450000D02*
X-9111429Y16216667D01*
X-8511429Y15983334D01*
D12*
X4802857Y-21426160D02*
X4202857Y-21589255D01*
X4802857Y-21902351D01*
X5102857Y-22511279D02*
X5102857Y-22606517D01*
X5060000Y-22696398D01*
X5017142Y-22738660D01*
X4931428Y-22775565D01*
X4760000Y-22801755D01*
X4545714Y-22774970D01*
X4374285Y-22705922D01*
X4288571Y-22647589D01*
X4245714Y-22594613D01*
X4202857Y-22494017D01*
X4202857Y-22398779D01*
X4245714Y-22308898D01*
X4288571Y-22266636D01*
X4374285Y-22229732D01*
X4545714Y-22203541D01*
X4760000Y-22230327D01*
X4931428Y-22299375D01*
X5017142Y-22357708D01*
X5060000Y-22410684D01*
X5102857Y-22511279D01*
X4288571Y-23171398D02*
X4245714Y-23213660D01*
X4202857Y-23160684D01*
X4245714Y-23118422D01*
X4288571Y-23171398D01*
X4202857Y-23160684D01*
X4202857Y-24160684D02*
X4202857Y-23589255D01*
X4202857Y-23874970D02*
X5102857Y-23987470D01*
X4974285Y-23876160D01*
X4888571Y-23770208D01*
X4845714Y-23669613D01*
D11*
X-9086429Y19433334D02*
X-8800715Y19666667D01*
X-9086429Y19833334D02*
X-8486429Y19833334D01*
X-8486429Y19566667D01*
X-8515000Y19500000D01*
X-8543572Y19466667D01*
X-8600715Y19433334D01*
X-8686429Y19433334D01*
X-8743572Y19466667D01*
X-8772143Y19500000D01*
X-8800715Y19566667D01*
X-8800715Y19833334D01*
X-9057858Y19166667D02*
X-9086429Y19066667D01*
X-9086429Y18900000D01*
X-9057858Y18833334D01*
X-9029286Y18800000D01*
X-8972143Y18766667D01*
X-8915000Y18766667D01*
X-8857858Y18800000D01*
X-8829286Y18833334D01*
X-8800715Y18900000D01*
X-8772143Y19033334D01*
X-8743572Y19100000D01*
X-8715000Y19133334D01*
X-8657858Y19166667D01*
X-8600715Y19166667D01*
X-8543572Y19133334D01*
X-8515000Y19100000D01*
X-8486429Y19033334D01*
X-8486429Y18866667D01*
X-8515000Y18766667D01*
X-8486429Y18566667D02*
X-8486429Y18166667D01*
X-9086429Y18366667D02*
X-8486429Y18366667D01*
D14*
X-8890000Y-25380000D02*
G75*
G02*
X-11430000Y-22840000I0J2540000D01*
G01*
X11430000Y-22840000D02*
G75*
G02*
X8890000Y-25380000I-2540000J0D01*
G01*
X8890000Y25420000D02*
G75*
G02*
X11430000Y22880000I0J-2540000D01*
G01*
X-11430000Y22880000D02*
G75*
G02*
X-8890000Y25420000I2540000J0D01*
G01*
X-11430000Y-22840000D02*
X-11430000Y22880000D01*
X8890000Y-25380000D02*
X-8890000Y-25380000D01*
X11430000Y22880000D02*
X11430000Y-22840000D01*
X-8890000Y25420000D02*
X8890000Y25420000D01*
D15*
X4710000Y25510000D02*
X4710000Y27410000D01*
X4710000Y21610000D02*
X4710000Y23610000D01*
X-4690000Y25510000D02*
X-4690000Y27410000D01*
X-4690000Y21610000D02*
X-4690000Y23610000D01*
X4710000Y27410000D02*
X-4690000Y27410000D01*
X3805000Y9003641D02*
X3805000Y8696359D01*
X4565000Y9003641D02*
X4565000Y8696359D01*
X6769420Y20210000D02*
X7050580Y20210000D01*
X6769420Y19190000D02*
X7050580Y19190000D01*
X120000Y7240580D02*
X120000Y6959420D01*
X-900000Y7240580D02*
X-900000Y6959420D01*
X-124420Y1010000D02*
X-405580Y1010000D01*
X-124420Y-10000D02*
X-405580Y-10000D01*
X6885000Y22912500D02*
X6885000Y25197500D01*
X6885000Y25197500D02*
X5415000Y25197500D01*
X5415000Y25197500D02*
X5415000Y22912500D01*
X-5865000Y18070000D02*
X-5865000Y20970000D01*
X-8165000Y18070000D02*
X-8165000Y20970000D01*
X-7565000Y18070000D02*
X-8165000Y18070000D01*
X-8325000Y15000D02*
X-6040000Y15000D01*
X-8325000Y1485000D02*
X-8325000Y15000D01*
X-6040000Y1485000D02*
X-8325000Y1485000D01*
X-3448578Y14390000D02*
X-2931422Y14390000D01*
X-3448578Y15810000D02*
X-2931422Y15810000D01*
X-3114721Y18260000D02*
X-3440279Y18260000D01*
X-3114721Y17240000D02*
X-3440279Y17240000D01*
X11320000Y11930000D02*
X11320000Y16610000D01*
X5100000Y17310000D02*
X5100000Y16030000D01*
X3500000Y17310000D02*
X5100000Y17310000D01*
X3500000Y18330000D02*
X3500000Y17310000D01*
X7750000Y18330000D02*
X3500000Y18330000D01*
X5100000Y12510000D02*
X2210000Y12510000D01*
X5100000Y11230000D02*
X5100000Y12510000D01*
X3500000Y11230000D02*
X5100000Y11230000D01*
X3500000Y10210000D02*
X3500000Y11230000D01*
X7750000Y10210000D02*
X3500000Y10210000D01*
X5575000Y-16600000D02*
X5575000Y-17240000D01*
X5575000Y-19400000D02*
X5575000Y-18760000D01*
X5575000Y-17240000D02*
X4945000Y-17240000D01*
X8295000Y-16650000D02*
X8295000Y-19350000D01*
X-87500Y-20820000D02*
X162500Y-20320000D01*
X162500Y-20320000D02*
X-337500Y-20320000D01*
X-337500Y-20320000D02*
X-87500Y-20820000D01*
X2770000Y5820000D02*
X1310000Y5820000D01*
X2770000Y8980000D02*
X610000Y8980000D01*
X2770000Y8980000D02*
X2770000Y8050000D01*
X2770000Y5820000D02*
X2770000Y6750000D01*
X3805000Y6786359D02*
X3805000Y7093641D01*
X4565000Y6786359D02*
X4565000Y7093641D01*
X-6378641Y22117000D02*
X-6071359Y22117000D01*
X-6378641Y21357000D02*
X-6071359Y21357000D01*
X9546360Y20080000D02*
X9853642Y20080000D01*
X9546360Y19320000D02*
X9853642Y19320000D01*
X-7320000Y16963641D02*
X-7320000Y16656359D01*
X-6560000Y16963641D02*
X-6560000Y16656359D01*
X-5510000Y16953641D02*
X-5510000Y16646359D01*
X-6270000Y16953641D02*
X-6270000Y16646359D01*
X-8370000Y16953641D02*
X-8370000Y16646359D01*
X-7610000Y16953641D02*
X-7610000Y16646359D01*
X-7503641Y-170000D02*
X-7196359Y-170000D01*
X-7503641Y-930000D02*
X-7196359Y-930000D01*
X6556359Y80000D02*
X6863641Y80000D01*
X6556359Y-680000D02*
X6863641Y-680000D01*
X292500Y-18653641D02*
X292500Y-18346359D01*
X-467500Y-18653641D02*
X-467500Y-18346359D01*
X-3007000Y1058641D02*
X-3007000Y751359D01*
X-2247000Y1058641D02*
X-2247000Y751359D01*
X-3347000Y747360D02*
X-3347000Y1054642D01*
X-4107000Y747360D02*
X-4107000Y1054642D01*
X356359Y-18380000D02*
X663641Y-18380000D01*
X356359Y-17620000D02*
X663641Y-17620000D01*
X-2700060Y-17377341D02*
X-2917341Y-17160060D01*
X-2162659Y-16839940D02*
X-2379940Y-16622659D01*
X-6750000Y10090000D02*
X-6650000Y10090000D01*
X-8400000Y14700000D02*
X-8400000Y10300000D01*
X-4980000Y10300000D02*
X-4980000Y14700000D01*
X-6740000Y14920000D02*
X-6640000Y14920000D01*
X6660000Y780000D02*
X6560000Y780000D01*
X4900000Y5400000D02*
X4900000Y1000000D01*
X8320000Y1000000D02*
X8320000Y5400000D01*
X6670000Y5610000D02*
X6570000Y5610000D01*
X7510000Y9410000D02*
X5710000Y9410000D01*
X5710000Y6190000D02*
X8160000Y6190000D01*
X2450000Y5480000D02*
X2450000Y4550000D01*
X2450000Y2320000D02*
X2450000Y3250000D01*
X2450000Y2320000D02*
X4610000Y2320000D01*
X2450000Y5480000D02*
X3910000Y5480000D01*
D11*
X1460000Y14075000D02*
X1460000Y15300000D01*
X-1665000Y14075000D02*
X-1665000Y10725000D01*
X1685000Y14075000D02*
X1685000Y10725000D01*
X-1665000Y14075000D02*
X-1365000Y14075000D01*
X-1665000Y10725000D02*
X-1365000Y10725000D01*
X1685000Y10725000D02*
X1385000Y10725000D01*
X1685000Y14075000D02*
X1460000Y14075000D01*
D15*
X-5182500Y1010836D02*
X-5182500Y795164D01*
X-4462500Y1010836D02*
X-4462500Y795164D01*
X1445000Y2570000D02*
X1445000Y5000000D01*
X-1625000Y4330000D02*
X-1625000Y2570000D01*
X2670000Y10042164D02*
X2670000Y10257836D01*
X1950000Y10042164D02*
X1950000Y10257836D01*
X-5799500Y23826336D02*
X-5799500Y23610664D01*
X-6519500Y23826336D02*
X-6519500Y23610664D01*
X-2467836Y16190000D02*
X-2252164Y16190000D01*
X-2467836Y16910000D02*
X-2252164Y16910000D01*
X-4332164Y16190000D02*
X-4547836Y16190000D01*
X-4332164Y16910000D02*
X-4547836Y16910000D01*
X3702164Y1340000D02*
X3917836Y1340000D01*
X3702164Y2060000D02*
X3917836Y2060000D01*
X3050580Y1010000D02*
X2769420Y1010000D01*
X3050580Y-10000D02*
X2769420Y-10000D01*
X-4098307Y-16119190D02*
X-4250810Y-16271693D01*
X-3589190Y-16628307D02*
X-3741693Y-16780810D01*
X-1489190Y-18498307D02*
X-1641693Y-18650810D01*
X-1998307Y-17989190D02*
X-2150810Y-18141693D01*
X6395343Y-1327000D02*
G75*
G03*
X6395343Y-1327000I-282843J0D01*
G01*
X6112500Y-1327000D02*
X-6287500Y-1327000D01*
X6112500Y-13727000D02*
X6112500Y-1327000D01*
X-6287500Y-13727000D02*
X6112500Y-13727000D01*
X-6287500Y-1427000D02*
X-6287500Y-13727000D01*
X-6905000Y8570000D02*
X-6905000Y8635000D01*
X-3375000Y8570000D02*
X-3375000Y8635000D01*
X-6905000Y2165000D02*
X-6905000Y2230000D01*
X-3375000Y2165000D02*
X-3375000Y2230000D01*
X-2050000Y2230000D02*
X-3375000Y2230000D01*
X-3375000Y8635000D02*
X-6905000Y8635000D01*
X-3375000Y2165000D02*
X-6905000Y2165000D01*
X-4290000Y9450000D02*
X-2290000Y9450000D01*
X-2290000Y9450000D02*
X-2290000Y13350000D01*
X-4290000Y9450000D02*
X-4290000Y13350000D01*
X1905000Y17321359D02*
X1905000Y17628641D01*
X2665000Y17321359D02*
X2665000Y17628641D01*
X-610000Y17346359D02*
X-610000Y17653641D01*
X-1370000Y17346359D02*
X-1370000Y17653641D01*
X1480000Y16180000D02*
X1480000Y18080000D01*
X-320000Y17780000D02*
X-320000Y16180000D01*
M02*
