M48
; DRILL file {KiCad (5.1.8)-1} date 12/02/20 12:09:11
; FORMAT={-:-/ absolute / metric / decimal}
; #@! TF.CreationDate,2020-12-02T12:09:11+01:00
; #@! TF.GenerationSoftware,Kicad,Pcbnew,(5.1.8)-1
FMAT,2
METRIC
T1C0.300
T2C0.600
T3C1.000
T4C2.540
T5C0.650
%
G90
G05
T1
X-10.45Y-21.092
X-10.29Y20.95
X-9.39Y4.975
X-8.828Y9.488
X-8.665Y13.575
X-8.615Y11.35
X-8.39Y-17.5
X-8.39Y-24.7
X-8.343Y-20.389
X-8.341Y-3.482
X-8.14Y-15.45
X-8.04Y-18.7
X-7.93Y-2.16
X-7.85Y-8.82
X-7.59Y-11.275
X-7.553Y1.671
X-7.39Y-12.35
X-7.14Y-21.1
X-7.04Y-18.3
X-6.99Y24.2
X-6.99Y-24.7
X-6.965Y-2.125
X-6.74Y-14.35
X-6.69Y22.5
X-6.64Y-13.0
X-6.59Y-19.6
X-6.04Y-12.325
X-6.03Y-0.51
X-5.59Y-24.0
X-5.57Y-22.6
X-5.57Y-23.3
X-5.54Y-13.05
X-5.54Y-14.85
X-5.533Y-16.175
X-5.533Y-18.282
X-5.515Y20.275
X-5.49Y19.2
X-5.44Y-17.15
X-5.165Y15.65
X-5.09Y17.8
X-4.94Y6.9
X-4.889Y5.948
X-4.81Y-14.44
X-4.79Y-12.9
X-4.79Y-13.7
X-4.77Y-15.17
X-4.743Y4.875
X-4.705Y18.649
X-4.69Y13.1
X-4.69Y11.35
X-4.59Y10.1
X-4.59Y-15.86
X-4.49Y2.04
X-4.44Y-17.75
X-4.404Y-7.315
X-4.34Y-11.275
X-4.293Y-6.621
X-4.29Y-21.2
X-4.19Y-24.7
X-4.08Y-18.9
X-3.92Y-10.067
X-3.8Y-3.376
X-3.8Y-4.091
X-3.79Y-12.2
X-3.597Y-8.583
X-3.59Y-11.4
X-3.52Y-17.25
X-3.512Y-7.886
X-3.44Y21.55
X-3.289Y18.446
X-3.265Y11.5
X-3.22Y2.05
X-3.04Y-10.025
X-2.815Y-11.1
X-2.8Y-19.29
X-2.76Y-18.01
X-2.74Y22.75
X-2.615Y-12.1
X-2.615Y-15.525
X-2.49Y21.85
X-2.215Y-16.1
X-2.192Y-9.771
X-1.89Y-12.0
X-1.865Y-11.1
X-1.84Y1.425
X-1.84Y0.5
X-1.715Y-16.625
X-1.65Y17.225
X-1.615Y12.45
X-1.61Y3.564
X-1.55Y-19.28
X-1.49Y13.475
X-1.486Y-9.258
X-1.465Y6.675
X-1.34Y-20.8
X-1.34Y-21.7
X-1.34Y-22.65
X-1.34Y-23.6
X-1.34Y-24.65
X-1.319Y23.159
X-1.319Y-5.639
X-1.19Y-15.7
X-1.14Y-17.1
X-1.138Y5.851
X-1.08Y16.35
X-1.04Y-19.85
X-0.95Y-18.87
X-0.74Y11.45
X-0.616Y-10.556
X-0.49Y12.35
X-0.39Y-16.3
X-0.365Y20.825
X-0.263Y2.2
X-0.24Y1.5
X-0.165Y-17.125
X-0.09Y-11.9
X0.01Y13.325
X0.11Y3.65
X0.11Y-5.8
X0.185Y23.075
X0.56Y-17.15
X0.76Y20.825
X0.76Y-18.86
X0.788Y-4.937
X0.86Y-19.85
X0.91Y-10.6
X1.01Y3.65
X1.11Y-11.875
X1.16Y17.075
X1.16Y-20.85
X1.16Y-21.75
X1.16Y-22.7
X1.16Y-23.65
X1.16Y-24.7
X1.21Y-4.1
X1.31Y-5.8
X1.385Y0.025
X1.491Y23.159
X1.51Y-18.85
X1.56Y-17.125
X1.587Y10.65
X1.61Y-3.3
X1.685Y15.275
X1.837Y7.749
X1.887Y8.525
X2.01Y5.74
X2.11Y-4.4
X2.21Y-5.3
X2.26Y-18.85
X2.31Y11.5
X2.31Y8.948
X2.31Y-17.125
X2.335Y-3.275
X2.385Y-11.875
X2.71Y-19.8
X2.76Y22.9
X3.01Y-4.4
X3.01Y-9.5
X3.06Y-18.85
X3.11Y-17.125
X3.21Y5.1
X3.21Y-3.275
X3.27Y3.92
X3.31Y17.9
X3.36Y17.0
X3.61Y-3.9
X3.91Y-10.3
X3.96Y16.4
X3.96Y-18.85
X4.01Y-17.125
X4.01Y-22.85
X4.06Y12.25
X4.21Y-20.85
X4.21Y-24.7
X4.26Y-19.75
X4.358Y10.798
X4.46Y-11.2
X4.485Y17.825
X4.51Y17.0
X4.61Y0.875
X4.758Y-1.202
X4.91Y7.85
X4.91Y-18.95
X4.96Y-17.0
X5.003Y-20.389
X5.16Y16.45
X5.21Y0.0
X5.21Y-16.2
X5.26Y2.95
X5.46Y-21.6
X5.51Y-24.7
X5.61Y7.675
X5.635Y-12.35
X5.66Y17.15
X5.66Y4.15
X5.705Y-23.901
X5.71Y-1.25
X6.16Y10.775
X6.21Y2.85
X6.21Y-22.5
X6.26Y12.3
X6.3Y16.37
X6.36Y9.7
X6.385Y-12.35
X6.408Y-21.092
X6.41Y14.95
X6.452Y14.1
X6.56Y4.35
X6.61Y8.8
X6.63Y5.26
X6.91Y18.69
X6.91Y-15.5
X6.91Y-24.7
X7.06Y-12.35
X7.235Y24.7
X7.65Y18.68
X7.66Y-21.0
X7.86Y-11.275
X7.9Y-12.72
X7.91Y-13.475
X7.91Y3.85
X7.91Y-10.45
X8.03Y12.36
X8.043Y-1.25
X8.21Y0.025
X8.21Y-24.7
X8.29Y15.9
X8.33Y6.107
X8.71Y-19.5
X8.958Y5.525
X9.11Y-20.6
X9.16Y20.45
X9.71Y15.775
X9.71Y14.475
X9.71Y13.15
X10.56Y21.175
X10.622Y-21.092
T3
X-10.16Y19.07
X-10.16Y16.53
X-10.16Y13.99
X-10.16Y11.45
X-10.16Y8.91
X-10.16Y6.37
X-10.16Y3.83
X-10.16Y1.29
X-10.16Y-1.25
X-10.16Y-3.79
X-10.16Y-6.33
X-10.16Y-8.87
X-10.16Y-11.41
X-10.16Y-13.95
X-10.16Y-16.49
X-10.16Y-19.03
X10.16Y8.91
X10.16Y6.37
X10.16Y3.83
X10.16Y1.29
X10.16Y-1.25
X10.16Y-3.79
X10.16Y-6.33
X10.16Y-8.87
X10.16Y-11.41
X10.16Y-13.95
X10.16Y-16.49
X10.16Y-19.03
T4
X-8.89Y22.88
X-8.89Y-22.84
X8.89Y22.88
X8.89Y-22.84
T5
X-2.88Y20.91
X2.9Y20.91
T2
G00X-4.31Y24.26
M15
G01X-4.31Y24.86
M16
G05
G00X-4.31Y19.83
M15
G01X-4.31Y20.93
M16
G05
G00X4.33Y24.26
M15
G01X4.33Y24.86
M16
G05
G00X4.33Y19.83
M15
G01X4.33Y20.93
M16
G05
T0
M30
